<svg title="AM General" alt="AM General" version="1.1" id="svg-logo" xmlns="http://www.w3.org/2000/svg" xmlns:xlink="http://www.w3.org/1999/xlink" x="0px" y="0px" width="284px" height="40px" viewBox="0 0 284 40" enable-background="new 0 0 284 40" xml:space="preserve">
<g>
	<path fill="#0e4388" d="M63.75,8.9l10.642,21.358h-8.559l-2.094-4.396H52.746l-2.131,4.396h-6.983L54.529,8.9H63.75z
		 M54.656,21.918h7.203l-3.57-7.495L54.656,21.918z"></path>
    <polygon fill="#0e4388" points="91.076,30.258 82.688,12.843 82.688,30.258 76.013,30.258 76.013,8.901 88.415,8.901
		94.381,21.684 100.659,8.901 113.099,8.901 113.099,30.258 105.079,30.258 105.079,12.843 96.527,30.258 	"></polygon>
    <g>
		<defs>
			<rect id="SVGID_1_" x="-0.001" y="-0.299" width="284" height="39.799"></rect>
		</defs>
        <clipPath id="SVGID_2_">
			<use xlink:href="#SVGID_1_" overflow="visible"></use>
		</clipPath>
        <path clip-path="url(#SVGID_2_)" fill="#0e4388" d="M155.021,18.835v11.422h-3.637c-0.264-0.805-0.641-1.621-1.133-2.457
			c-2.425,1.857-5.516,2.785-9.271,2.785c-4.436,0-7.887-0.994-10.354-2.988c-2.467-1.992-3.7-4.57-3.7-7.73
			c0-3.398,1.316-6.132,3.948-8.198c2.631-2.064,6.206-3.098,10.722-3.098c3.786,0,6.841,0.669,9.165,2.003
			c2.326,1.336,3.745,3.114,4.26,5.335l-7.572,0.625c-0.613-2.587-2.564-3.879-5.853-3.879c-2.157,0-3.79,0.613-4.894,1.838
			c-1.104,1.226-1.656,2.975-1.656,5.25c0,2.19,0.598,3.864,1.793,5.022c1.195,1.158,2.897,1.736,5.106,1.736
			c1.429,0,2.702-0.291,3.823-0.875s1.68-1.518,1.68-2.801h-6.4v-3.991H155.021z"></path>
        <path clip-path="url(#SVGID_2_)" fill="#0e4388" d="M181.498,23.137H165.31c-0.017,0.283-0.025,0.527-0.025,0.736
			c0,1.127,0.477,1.977,1.432,2.551s2.097,0.861,3.426,0.861c2.473,0,3.961-0.83,4.457-2.488l6.726,0.314
			c-1.877,3.648-5.688,5.475-11.431,5.475c-2.508,0-4.639-0.316-6.391-0.945c-1.752-0.633-3.196-1.553-4.333-2.762
			c-1.139-1.211-1.706-2.66-1.706-4.35c0-2.514,1.143-4.543,3.424-6.087c2.284-1.543,5.218-2.315,8.805-2.315
			c3.237,0,6.016,0.718,8.332,2.15C180.341,17.711,181.498,19.999,181.498,23.137 M165.284,20.432h8.941
			c-0.232-2.169-1.651-3.255-4.259-3.255C167.177,17.176,165.616,18.262,165.284,20.432"></path>
        <path clip-path="url(#SVGID_2_)" fill="#0e4388" d="M206.008,30.258h-7.422v-8.871c0-1.074-0.066-1.811-0.198-2.206
			c-0.134-0.396-0.457-0.733-0.972-1.011c-0.515-0.275-1.163-0.414-1.943-0.414c-2.607,0-3.91,1.21-3.91,3.63v8.871h-7.423V14.454
			h6.899v2.676c1.146-1.271,2.276-2.09,3.389-2.456c1.112-0.364,2.315-0.547,3.61-0.547c2.391,0,4.317,0.403,5.778,1.213
			c1.461,0.808,2.191,2.396,2.191,4.764V30.258z"></path>
        <path clip-path="url(#SVGID_2_)" fill="#0e4388" d="M232.686,23.137h-16.189c-0.016,0.283-0.025,0.527-0.025,0.736
			c0,1.127,0.478,1.977,1.433,2.551c0.956,0.574,2.097,0.861,3.425,0.861c2.474,0,3.961-0.83,4.459-2.488l6.725,0.314
			c-1.877,3.648-5.688,5.475-11.432,5.475c-2.509,0-4.639-0.316-6.39-0.945c-1.752-0.633-3.196-1.553-4.334-2.762
			c-1.138-1.211-1.705-2.66-1.705-4.35c0-2.514,1.141-4.543,3.424-6.087c2.284-1.543,5.218-2.315,8.805-2.315
			c3.237,0,6.016,0.718,8.331,2.15C231.528,17.711,232.686,19.999,232.686,23.137 M216.471,20.432h8.942
			c-0.233-2.169-1.651-3.255-4.259-3.255C218.364,17.176,216.804,18.262,216.471,20.432"></path>
        <path clip-path="url(#SVGID_2_)" fill="#0e4388" d="M242.525,30.258h-7.197V14.454h6.799v2.943
			c1.046-2.191,2.856-3.287,5.431-3.287c0.363,0,0.812,0.017,1.345,0.048v4.6c-1.512,0-2.687,0.147-3.526,0.439
			c-0.838,0.291-1.522,0.815-2.054,1.571c-0.531,0.758-0.797,1.775-0.797,3.061V30.258z"></path>
        <path clip-path="url(#SVGID_2_)" fill="#0e4388" d="M272.938,30.258h-7.197c-0.233-0.625-0.349-1.451-0.349-2.473
			c-1.261,1.127-2.517,1.875-3.769,2.244c-1.252,0.371-2.673,0.557-4.264,0.557c-2.355,0-4.257-0.4-5.708-1.203
			c-1.451-0.805-2.175-1.885-2.175-3.24c0-0.99,0.423-1.904,1.268-2.738s2.205-1.49,4.077-1.963
			c1.873-0.475,5.289-0.826,10.246-1.057v-0.907c0-1.533-1.218-2.3-3.649-2.3c-2.6,0-4.048,0.767-4.346,2.3l-6.85-0.408
			c0.447-1.794,1.803-3.066,4.061-3.817c2.257-0.751,4.814-1.127,7.671-1.127c1.71,0,3.32,0.126,4.832,0.376
			c1.51,0.251,2.688,0.625,3.536,1.127c0.848,0.501,1.42,1.03,1.719,1.587c0.299,0.559,0.448,1.533,0.448,2.919v7.164
			C272.49,28.678,272.64,29.662,272.938,30.258 M265.068,22.686c-5.18,0.322-7.771,1.309-7.771,2.957
			c0,0.553,0.272,1.029,0.819,1.43c0.546,0.402,1.325,0.604,2.335,0.604c1.306,0,2.403-0.342,3.289-1.023
			c0.887-0.686,1.328-1.527,1.328-2.527V22.686z"></path>
        <rect x="276.577" y="8.9" clip-path="url(#SVGID_2_)" fill="#0e4388" width="7.422" height="21.358"></rect>
        <path clip-path="url(#SVGID_2_)" fill="#0e4388" d="M80.358,35.297c-46.583-0.85-60.121-8.51-58.616-17.25
			C23.33,8.846,42.45,3.678,68.813,1.481c5.014-0.417,38.355-1.376,42.48-1.757c-3.61,0.019-37.005-0.079-40.39,0.021
			C26.961,1.042,2.019,8.918,0.123,19.048c-2.007,10.733,20.326,20.04,69.972,20.436V39.5h3.379h21.698H284v-4.203H80.358z"></path>
	</g>
</g>
</svg>