<svg id="svg" xmlns="http://www.w3.org/2000/svg" xmlns:xlink="http://www.w3.org/1999/xlink" width="400" height="333.9130434782609" viewBox="0, 0, 400,333.9130434782609" version="1.1">
    <g id="svgg">
        <path id="path0"
              d="M183.885 8.154 C 174.838 9.584,173.849 10.762,182.668 9.602 C 191.245 8.475,210.288 8.429,220.290 9.511 C 225.842 10.112,226.910 10.030,224.348 9.199 C 219.366 7.584,191.968 6.876,183.885 8.154 M194.783 10.435 C 194.783 11.072,197.361 11.594,200.511 11.594 C 203.662 11.594,206.562 11.072,206.957 10.435 C 207.401 9.715,205.229 9.275,201.228 9.275 C 197.683 9.275,194.783 9.797,194.783 10.435 M163.478 12.981 C 159.333 14.309,156.622 15.637,157.453 15.931 C 158.570 16.327,158.419 16.879,156.873 18.051 C 155.723 18.923,155.304 19.645,155.942 19.656 C 157.997 19.689,160.318 17.685,159.590 16.506 C 159.201 15.877,161.320 14.680,164.298 13.846 C 168.417 12.693,169.823 12.658,170.171 13.701 C 170.422 14.455,171.170 15.072,171.833 15.072 C 172.589 15.072,172.528 14.459,171.668 13.423 C 170.561 12.088,170.810 11.676,172.976 11.262 C 175.157 10.845,175.223 10.733,173.333 10.658 C 172.058 10.607,167.623 11.652,163.478 12.981 M180.466 11.651 C 172.968 12.909,171.745 14.366,179.108 13.270 C 186.144 12.222,191.892 10.616,188.406 10.671 C 187.130 10.691,183.558 11.132,180.466 11.651 M232.455 11.654 C 242.382 14.184,250.849 17.795,248.657 18.564 C 246.666 19.263,246.662 19.349,248.585 20.087 C 251.357 21.151,251.857 21.073,251.014 19.710 C 249.928 17.951,251.735 18.394,256.232 20.989 C 259.860 23.083,259.179 23.131,253.913 21.153 C 251.192 20.131,252.842 21.335,258.995 24.861 C 262.109 26.645,264.296 27.521,263.854 26.806 C 262.680 24.907,264.712 25.221,267.315 27.341 C 269.534 29.149,269.533 29.164,267.246 28.432 C 264.685 27.611,265.343 28.345,270.725 32.312 C 284.460 42.437,298.109 61.601,299.736 73.043 C 300.295 76.976,300.273 77.003,299.044 73.910 L 297.776 70.718 294.980 76.228 C 291.938 82.224,290.698 98.172,293.491 95.379 C 294.473 94.396,295.230 94.484,296.472 95.727 C 298.688 97.943,300.020 97.826,300.635 95.362 C 300.914 94.246,300.902 95.661,300.608 98.505 C 298.721 116.796,282.076 138.124,260.871 149.422 C 255.769 152.141,251.594 154.081,251.594 153.734 C 251.594 153.387,253.105 152.322,254.952 151.367 C 257.325 150.140,258.260 148.832,258.140 146.909 L 257.971 144.187 249.505 148.098 C 220.518 161.491,181.273 160.975,153.372 146.834 C 146.338 143.268,145.937 143.187,146.827 145.507 C 147.217 146.523,146.840 147.254,145.921 147.266 C 145.056 147.277,146.014 148.353,148.052 149.658 C 155.101 154.173,151.433 155.876,143.623 151.713 C 135.332 147.294,135.324 145.866,143.614 150.067 C 153.087 154.867,151.923 153.505,140.974 146.978 C 126.699 138.468,116.506 127.495,109.500 113.092 C 106.540 107.007,103.958 102.029,103.762 102.029 C 103.195 102.029,104.597 107.127,105.515 108.406 C 105.972 109.043,106.657 111.130,107.037 113.043 C 107.555 115.654,107.013 115.075,104.864 110.725 C 103.290 107.536,102.336 106.232,102.744 107.826 C 103.599 111.165,107.621 119.420,108.393 119.420 C 108.679 119.420,108.612 118.638,108.245 117.681 C 107.878 116.725,108.100 115.942,108.737 115.942 C 109.892 115.942,111.304 118.584,111.304 120.743 C 111.304 121.366,110.708 121.507,109.978 121.056 C 101.039 115.532,125.155 141.377,135.336 148.232 C 157.908 163.431,201.363 172.920,221.449 167.036 C 223.043 166.569,217.935 166.432,210.096 166.733 C 195.379 167.297,174.590 165.197,175.782 163.268 C 176.137 162.694,177.372 162.525,178.528 162.891 C 184.360 164.742,215.657 166.218,218.492 164.775 C 219.098 164.467,220.663 164.105,221.970 163.972 C 223.934 163.771,227.813 163.192,233.878 162.193 C 238.111 161.496,235.749 162.893,230.725 164.058 C 227.157 164.885,225.625 165.591,227.246 165.661 C 232.021 165.864,239.478 163.429,237.612 162.276 C 236.730 161.731,236.335 160.960,236.732 160.562 C 237.130 160.165,238.466 160.470,239.700 161.241 C 241.408 162.308,242.475 162.323,244.161 161.306 C 246.057 160.161,245.875 160.076,242.899 160.713 C 237.039 161.969,241.041 159.444,250.145 156.142 C 259.950 152.585,261.233 153.115,252.464 157.100 C 249.116 158.622,247.044 159.896,247.859 159.933 C 254.632 160.238,291.288 134.493,287.454 132.123 C 286.698 131.656,286.438 130.694,286.876 129.985 C 287.976 128.205,290.164 128.352,289.264 130.145 C 288.864 130.942,290.193 129.768,292.217 127.536 C 296.085 123.271,303.788 108.568,303.741 105.540 C 303.725 104.565,302.527 106.638,301.076 110.145 C 299.626 113.652,297.777 117.565,296.966 118.841 L 295.493 121.159 296.089 118.841 C 296.416 117.565,298.214 112.348,300.084 107.246 C 304.305 95.731,305.183 73.425,301.195 79.007 C 300.390 80.133,300.306 79.921,300.898 78.261 C 302.053 75.025,302.000 74.532,299.621 66.377 C 299.202 64.942,299.167 63.768,299.542 63.768 C 302.072 63.768,305.197 80.884,304.696 92.004 C 304.405 98.474,304.546 102.464,305.011 100.870 C 315.012 66.556,274.063 15.836,232.464 11.012 L 227.826 10.475 232.455 11.654 M224.928 12.544 C 224.928 13.152,227.319 14.008,230.242 14.447 C 233.164 14.885,237.620 15.972,240.144 16.862 C 242.667 17.753,244.427 17.989,244.056 17.388 C 243.451 16.409,237.227 14.362,231.506 13.261 C 230.337 13.035,228.378 12.533,227.154 12.145 C 225.929 11.756,224.928 11.936,224.928 12.544 M164.638 15.751 C 160.840 17.306,160.803 17.369,164.058 16.740 C 165.971 16.370,168.032 15.583,168.638 14.990 C 170.026 13.632,169.627 13.708,164.638 15.751 M146.667 19.865 C 129.156 28.997,101.837 55.847,105.911 59.921 C 106.327 60.336,106.667 60.037,106.667 59.255 C 106.667 58.474,107.217 58.174,107.889 58.590 C 108.716 59.101,108.601 60.155,107.533 61.846 C 106.665 63.222,105.236 66.696,104.357 69.565 C 102.251 76.439,102.340 76.013,102.174 80.000 C 102.086 82.108,101.458 83.364,100.580 83.188 C 99.641 83.001,99.130 84.329,99.130 86.957 C 99.130 89.376,99.666 90.914,100.458 90.765 C 102.030 90.470,103.128 97.949,101.816 100.015 C 101.262 100.887,100.830 99.858,100.714 97.391 C 100.566 94.262,100.417 94.007,100.063 96.277 C 99.810 97.895,100.116 100.504,100.743 102.074 C 101.550 104.096,101.903 104.336,101.955 102.899 C 101.996 101.783,102.444 100.870,102.952 100.870 C 103.460 100.870,103.662 95.988,103.401 90.023 C 102.646 72.756,108.616 57.065,121.254 43.099 C 124.709 39.281,127.536 35.556,127.536 34.822 C 127.536 34.087,128.055 33.807,128.689 34.199 C 129.323 34.590,131.801 33.476,134.196 31.722 C 139.933 27.522,141.706 25.722,137.581 28.286 C 135.772 29.410,134.017 30.056,133.682 29.720 C 133.042 29.080,140.187 24.360,141.808 24.352 C 142.323 24.350,142.415 24.883,142.010 25.537 C 141.606 26.192,144.196 25.294,147.765 23.544 C 151.555 21.685,154.031 19.774,153.715 18.951 C 153.417 18.176,153.797 17.288,154.558 16.978 C 155.319 16.668,155.420 16.375,154.783 16.326 C 154.145 16.277,150.493 17.869,146.667 19.865 M153.043 19.107 C 153.043 20.027,143.589 24.555,142.967 23.933 C 142.649 23.616,144.396 22.298,146.847 21.005 C 151.374 18.616,153.043 18.105,153.043 19.107 M186.667 21.025 C 176.656 22.663,172.434 24.305,173.850 26.011 C 174.511 26.808,174.759 27.753,174.400 28.112 C 173.492 29.020,179.674 30.104,183.188 29.653 C 184.783 29.449,186.087 29.158,186.087 29.006 C 186.087 27.797,209.179 26.941,214.739 27.944 C 221.880 29.232,218.585 29.897,207.915 29.320 C 199.980 28.891,193.548 29.268,186.723 30.564 C 179.032 32.024,176.729 32.117,176.016 30.995 C 175.340 29.930,175.103 29.918,175.090 30.946 C 175.058 33.434,176.964 33.593,186.035 31.858 C 201.416 28.915,221.255 30.464,231.105 35.378 C 232.964 36.305,235.017 36.735,235.667 36.333 C 236.949 35.541,224.623 31.349,220.928 31.321 C 219.279 31.309,219.013 30.958,219.946 30.025 C 220.832 29.139,221.874 29.108,223.331 29.923 C 225.775 31.291,231.178 29.019,232.275 26.161 C 234.052 21.531,204.154 18.163,186.667 21.025 M132.174 31.884 C 131.380 32.841,130.209 33.623,129.571 33.623 C 128.924 33.623,129.050 32.854,129.855 31.884 C 130.649 30.928,131.820 30.145,132.458 30.145 C 133.105 30.145,132.979 30.914,132.174 31.884 M168.205 32.943 L 165.395 34.500 169.944 37.357 C 172.446 38.928,175.797 40.894,177.391 41.725 L 180.290 43.236 177.971 40.580 L 175.652 37.923 178.261 39.292 C 179.696 40.045,180.870 41.338,180.870 42.166 C 180.870 42.993,182.978 45.364,185.555 47.435 C 188.247 49.598,190.510 52.552,190.875 54.377 C 191.334 56.669,192.189 57.531,193.949 57.472 C 197.507 57.354,198.301 63.026,196.204 73.567 C 194.625 81.501,194.206 82.319,191.724 82.319 C 189.922 82.319,188.956 81.625,188.898 80.290 C 188.850 79.174,187.317 83.827,185.492 90.629 C 181.718 104.694,178.728 111.286,173.498 117.077 C 171.494 119.295,171.037 120.120,172.482 118.910 C 174.107 117.548,177.563 116.506,181.546 116.176 L 187.983 115.642 186.121 120.097 C 185.097 122.548,183.366 125.541,182.275 126.750 C 179.344 129.993,163.288 137.892,163.655 135.909 C 164.813 129.658,159.459 126.330,149.673 127.218 C 140.215 128.075,136.812 127.080,136.812 123.456 C 136.812 121.129,137.421 120.550,140.000 120.422 C 142.380 120.304,142.583 120.144,140.801 119.790 C 139.348 119.502,137.089 116.869,135.030 113.062 C 131.236 106.048,129.803 105.206,132.973 111.854 L 135.031 116.170 131.117 119.666 L 127.204 123.163 135.444 130.973 C 148.188 143.052,169.275 153.196,169.275 147.246 C 169.275 144.517,169.971 144.478,179.130 146.690 C 186.513 148.472,189.799 148.832,188.705 147.739 C 187.977 147.011,187.320 146.844,179.974 145.517 C 177.250 145.025,174.690 144.088,174.286 143.433 C 173.812 142.667,174.544 142.537,176.340 143.066 C 185.676 145.819,199.682 147.459,208.915 146.879 C 215.270 146.480,219.135 146.682,219.383 147.425 C 219.634 148.178,222.331 147.940,226.867 146.765 C 235.908 144.422,236.429 144.451,235.698 147.246 C 233.767 154.630,259.279 141.844,271.244 129.433 L 276.400 124.083 273.063 120.600 L 269.726 117.117 272.428 111.706 C 273.915 108.730,276.048 103.379,277.170 99.814 C 278.364 96.019,279.253 94.443,279.315 96.012 C 279.491 100.491,287.602 99.214,288.970 94.493 C 292.707 81.594,283.169 56.011,272.357 49.935 C 255.357 40.380,223.719 59.671,230.656 75.362 C 231.925 78.233,231.931 78.229,231.278 74.950 C 229.437 65.703,243.930 56.373,259.980 56.472 C 265.537 56.506,270.944 60.378,269.254 63.112 C 268.882 63.714,268.063 63.053,267.434 61.643 C 263.785 53.467,232.859 61.565,233.090 70.637 C 233.119 71.793,233.727 71.378,234.746 69.504 C 238.986 61.709,260.320 56.262,265.667 61.609 C 267.173 63.115,268.793 64.348,269.266 64.348 C 270.553 64.348,274.598 72.360,275.213 76.128 C 275.509 77.939,275.856 79.420,275.983 79.420 C 279.795 79.420,274.613 106.086,269.068 115.006 C 266.495 119.144,265.755 121.291,266.607 122.144 C 270.739 126.275,265.881 129.855,256.145 129.855 C 250.297 129.855,250.244 129.887,244.839 136.767 L 242.596 139.620 234.028 135.386 C 221.989 129.436,220.079 127.174,221.768 120.870 C 222.699 117.395,223.701 115.942,225.167 115.942 C 227.822 115.942,227.781 115.165,224.795 108.984 C 223.446 106.193,221.229 98.793,219.867 92.539 C 217.471 81.533,217.290 81.168,214.225 81.164 C 211.875 81.161,210.920 80.487,210.523 78.551 C 210.228 77.116,209.482 73.855,208.865 71.304 L 207.743 66.667 208.103 72.464 C 208.300 75.652,208.597 78.522,208.762 78.841 C 208.927 79.159,209.204 80.986,209.379 82.899 C 209.846 88.022,210.745 94.099,211.523 97.391 C 211.900 98.986,212.421 102.377,212.682 104.928 C 212.942 107.478,213.492 110.425,213.903 111.477 C 214.314 112.528,214.132 113.709,213.498 114.101 C 212.817 114.522,211.982 112.079,211.458 108.132 C 210.971 104.456,210.366 102.396,210.114 103.554 C 208.122 112.706,216.446 129.787,225.782 135.708 C 231.333 139.228,235.249 140.463,231.236 137.428 C 228.178 135.115,230.516 135.359,234.644 137.783 C 238.605 140.110,238.790 141.899,235.118 142.369 C 233.041 142.636,232.835 142.460,234.169 141.563 C 237.107 139.587,234.749 139.036,231.116 140.848 C 224.243 144.277,209.894 146.429,198.841 145.689 C 189.704 145.078,185.215 144.218,172.862 140.716 C 170.896 140.158,170.317 140.321,170.902 141.267 C 171.923 142.919,171.685 142.924,167.130 141.336 C 162.097 139.582,162.460 138.974,170.525 135.652 C 178.125 132.522,186.052 125.172,187.333 120.069 C 188.058 117.181,190.145 115.882,190.145 118.318 C 190.145 122.428,184.169 129.279,175.673 134.911 C 169.648 138.904,171.341 138.887,177.704 134.890 C 187.981 128.434,196.493 111.071,195.804 97.971 C 195.737 96.696,195.074 98.522,194.330 102.029 C 193.587 105.536,192.647 107.876,192.241 107.228 C 191.835 106.579,192.033 103.449,192.681 100.271 C 193.330 97.093,194.024 93.449,194.225 92.174 C 194.425 90.899,194.676 89.855,194.783 89.855 C 195.099 89.855,196.496 81.390,197.747 71.895 C 198.124 69.031,198.655 66.466,198.926 66.194 C 199.908 65.213,199.345 72.678,197.665 82.899 C 195.798 94.264,195.655 95.746,196.508 94.893 C 197.720 93.681,201.844 61.831,201.222 58.494 C 200.235 53.208,193.126 46.884,177.391 37.295 C 175.159 35.935,173.762 34.813,174.286 34.802 C 174.810 34.791,174.455 34.000,173.499 33.043 C 171.439 30.983,171.732 30.989,168.205 32.943 M287.731 44.482 C 293.689 51.731,299.406 61.217,298.814 62.874 C 298.524 63.684,297.303 62.261,296.100 59.710 C 293.511 54.220,293.880 54.750,285.997 45.217 C 282.569 41.072,278.382 36.644,276.694 35.377 C 275.005 34.110,273.623 32.649,273.623 32.131 C 273.623 30.646,283.379 39.187,287.731 44.482 M174.069 37.101 C 174.833 37.101,175.162 37.398,174.799 37.761 C 174.262 38.299,171.419 37.122,168.150 35.009 C 167.849 34.815,168.367 34.184,169.301 33.607 C 170.523 32.852,171.234 33.195,171.839 34.830 C 172.301 36.079,173.304 37.101,174.069 37.101 M236.010 34.131 C 238.234 35.779,238.233 35.820,235.942 37.573 C 233.290 39.602,231.405 39.975,232.464 38.261 C 234.981 34.188,217.752 44.304,210.865 50.942 L 205.217 56.385 205.284 66.164 C 205.321 71.542,205.764 78.029,206.269 80.580 C 206.824 83.383,206.962 79.902,206.619 71.783 C 206.222 62.401,206.473 57.679,207.450 56.130 C 208.657 54.220,208.762 54.474,208.213 57.971 C 207.721 61.104,207.849 61.566,208.773 60.000 C 209.432 58.884,211.249 57.971,212.811 57.971 C 214.938 57.971,215.652 57.349,215.652 55.499 C 215.652 51.941,222.267 46.216,232.375 41.026 C 237.201 38.549,241.152 36.043,241.154 35.459 C 241.157 34.874,240.836 34.719,240.442 35.114 C 240.047 35.509,238.966 35.074,238.040 34.148 C 237.114 33.222,235.772 32.464,235.058 32.464 C 234.344 32.464,234.772 33.214,236.010 34.131 M121.503 41.491 C 118.630 44.563,114.790 49.397,112.970 52.234 C 111.151 55.070,109.510 57.609,109.324 57.874 C 109.138 58.140,108.674 58.046,108.294 57.666 C 107.914 57.286,109.327 54.460,111.434 51.386 C 116.044 44.662,125.339 34.518,126.148 35.327 C 126.467 35.645,124.377 38.420,121.503 41.491 M228.406 41.720 C 224.569 44.697,213.540 50.582,215.246 48.743 C 217.028 46.821,228.681 39.622,230.145 39.538 C 230.783 39.502,230.000 40.484,228.406 41.720 M195.510 51.197 C 199.132 54.879,203.563 69.151,200.080 65.916 C 199.636 65.503,199.223 63.460,199.164 61.376 C 199.056 57.572,193.821 51.297,184.880 44.254 L 181.449 41.551 186.394 44.254 C 189.114 45.740,193.216 48.865,195.510 51.197 M134.493 47.174 C 120.373 54.486,107.383 102.193,120.401 98.926 C 122.071 98.507,124.098 98.164,124.907 98.164 C 125.749 98.164,126.431 96.636,126.504 94.589 C 126.620 91.312,126.709 91.400,127.572 95.652 C 128.090 98.203,129.091 101.594,129.797 103.188 C 130.945 105.781,131.027 105.812,130.576 103.479 C 130.299 102.045,130.546 100.580,131.123 100.223 C 131.701 99.865,132.174 100.398,132.174 101.405 C 132.174 102.413,133.822 106.618,135.837 110.749 C 140.006 119.301,142.235 120.021,153.729 116.534 C 156.859 115.585,159.681 114.818,160.000 114.830 C 161.047 114.871,156.026 117.527,151.884 119.122 L 147.826 120.686 151.865 120.028 C 156.863 119.214,164.111 114.538,165.812 111.031 C 166.798 108.997,166.527 109.123,164.605 111.594 C 163.241 113.348,161.566 114.783,160.883 114.783 C 160.200 114.783,160.467 113.870,161.477 112.754 C 164.620 109.280,167.825 100.439,170.338 88.312 C 174.225 69.557,173.742 66.731,165.797 61.726 C 163.136 60.049,162.436 59.163,163.765 59.150 C 170.908 59.081,175.254 67.571,173.744 78.646 C 173.216 82.520,174.420 81.683,175.132 77.681 C 177.218 65.957,176.633 62.631,171.651 57.892 C 161.078 47.834,143.184 42.673,134.493 47.174 M212.197 52.726 C 211.391 53.698,210.192 54.493,209.533 54.493 C 208.875 54.493,209.283 53.446,210.441 52.167 C 212.839 49.517,214.438 50.026,212.197 52.726 M151.418 54.799 C 151.887 55.268,149.917 55.652,147.040 55.652 C 141.472 55.652,139.765 56.864,136.423 63.188 C 135.094 65.704,134.573 66.075,134.539 64.531 C 134.396 57.956,147.195 50.577,151.418 54.799 M161.159 58.408 C 161.159 58.615,159.374 58.226,157.191 57.542 C 155.008 56.859,153.473 55.895,153.779 55.401 C 154.265 54.614,161.159 57.422,161.159 58.408 M160.000 60.377 C 173.103 66.571,173.452 67.644,169.158 88.473 C 164.624 110.460,159.958 116.146,146.237 116.403 L 139.925 116.522 137.020 110.745 C 135.422 107.567,133.464 102.611,132.668 99.730 C 131.781 96.516,131.182 95.527,131.118 97.170 C 131.061 98.642,130.561 99.567,130.006 99.224 C 126.929 97.322,130.274 66.087,133.555 66.087 C 134.786 66.087,134.778 66.147,132.754 71.884 C 131.797 74.595,131.049 77.922,131.091 79.276 C 131.133 80.631,131.903 79.008,132.802 75.669 C 134.779 68.326,139.661 58.412,141.704 57.591 C 145.785 55.951,152.946 57.042,160.000 60.377 M104.006 62.242 C 102.661 64.461,99.718 76.027,99.802 78.761 C 99.853 80.399,100.594 78.522,101.449 74.589 C 102.304 70.657,103.609 66.308,104.349 64.925 C 105.598 62.591,105.284 60.134,104.006 62.242 M269.734 67.826 C 270.162 69.101,271.487 73.536,272.678 77.681 C 274.506 84.039,274.742 84.414,274.187 80.081 C 273.825 77.257,272.500 72.822,271.243 70.226 C 269.985 67.631,269.306 66.551,269.734 67.826 M233.173 76.300 C 233.091 78.722,232.583 79.852,231.794 79.365 C 230.315 78.451,231.539 88.822,233.238 91.594 C 234.254 93.252,233.700 88.181,232.330 83.286 C 232.033 82.224,232.333 81.019,232.996 80.609 C 233.721 80.161,234.213 81.164,234.228 83.120 C 234.242 84.911,235.285 91.046,236.547 96.753 C 239.219 108.840,239.139 108.148,237.759 107.295 C 237.164 106.927,236.075 103.724,235.339 100.178 C 234.603 96.631,233.767 93.962,233.483 94.247 C 232.596 95.134,235.309 105.496,237.596 109.955 C 241.652 117.863,250.339 122.899,259.927 122.899 C 266.257 122.899,264.703 121.464,257.982 121.103 C 252.122 120.788,242.117 116.293,241.332 113.623 C 240.921 112.226,241.261 112.274,243.061 113.869 C 246.553 116.961,252.789 119.175,259.131 119.574 L 264.928 119.938 269.272 111.273 C 271.733 106.366,274.069 99.592,274.660 95.652 C 275.673 88.907,275.443 85.045,274.358 90.588 C 271.806 103.637,270.829 106.843,267.781 112.174 C 263.711 119.293,258.792 120.270,248.734 115.958 C 241.072 112.674,239.756 109.232,234.320 78.261 C 233.489 73.523,233.279 73.165,233.173 76.300 M130.203 88.116 C 130.203 91.623,130.420 93.058,130.686 91.304 C 130.951 89.551,130.951 86.681,130.686 84.928 C 130.420 83.174,130.203 84.609,130.203 88.116 M101.476 86.884 C 101.182 90.873,99.710 91.038,99.710 87.081 C 99.710 85.024,100.146 83.611,100.679 83.940 C 101.213 84.270,101.571 85.594,101.476 86.884 M207.748 88.696 C 207.705 90.609,208.102 94.261,208.629 96.812 C 209.892 102.915,210.000 97.431,208.755 90.435 C 208.059 86.522,207.807 86.087,207.748 88.696 M168.116 103.188 C 167.307 105.142,166.915 107.012,167.246 107.343 C 167.577 107.674,168.432 106.268,169.147 104.219 C 170.833 99.380,170.027 98.574,168.116 103.188 M191.832 112.915 C 191.402 115.206,190.635 116.824,190.127 116.510 C 189.284 115.989,189.549 113.297,190.855 109.109 C 191.850 105.922,192.597 108.835,191.832 112.915 M215.200 116.908 C 216.427 124.322,218.506 127.414,226.667 133.963 C 229.991 136.631,226.192 134.656,221.895 131.483 C 218.299 128.827,213.333 120.046,213.333 116.341 C 213.333 114.580,214.894 115.054,215.200 116.908 M295.610 121.449 C 295.550 122.702,289.868 129.468,289.861 128.295 C 289.852 126.729,293.743 120.580,294.743 120.580 C 295.243 120.580,295.633 120.971,295.610 121.449 M113.623 122.747 C 113.623 124.017,123.081 136.071,124.565 136.693 C 125.170 136.947,126.764 138.252,128.106 139.595 C 129.448 140.937,132.002 142.989,133.780 144.154 C 135.558 145.319,136.719 146.566,136.361 146.924 C 135.294 147.991,122.741 137.191,116.812 130.103 C 111.244 123.448,110.356 121.739,112.464 121.739 C 113.101 121.739,113.623 122.193,113.623 122.747 M281.598 137.919 C 275.705 143.347,261.048 153.609,260.282 152.843 C 259.995 152.556,262.749 150.405,266.402 148.064 C 270.055 145.723,275.893 141.214,279.376 138.044 C 282.860 134.873,285.926 132.496,286.192 132.762 C 286.457 133.027,284.390 135.348,281.598 137.919 M230.410 143.875 C 229.281 144.532,227.455 145.249,226.352 145.469 C 225.250 145.688,223.826 145.978,223.188 146.114 C 219.595 146.881,220.396 145.683,224.348 144.380 C 230.236 142.440,233.316 142.183,230.410 143.875 M191.134 148.699 C 191.718 149.284,193.430 149.567,194.939 149.330 C 197.260 148.965,197.096 148.802,193.877 148.268 C 191.573 147.886,190.491 148.056,191.134 148.699 M211.014 148.406 L 206.957 149.260 211.014 149.395 C 213.246 149.469,215.855 149.024,216.812 148.406 C 218.920 147.043,217.488 147.043,211.014 148.406 M157.836 156.705 C 160.302 157.444,162.319 158.523,162.319 159.102 C 162.319 160.294,158.527 159.313,154.203 157.003 C 150.584 155.071,151.994 154.955,157.836 156.705 M173.623 161.498 C 174.420 161.524,175.072 162.046,175.072 162.657 C 175.072 164.074,168.016 162.714,166.413 160.988 C 165.545 160.053,166.169 159.940,168.696 160.576 C 170.609 161.057,172.826 161.472,173.623 161.498 M125.896 201.593 C 127.545 203.039,141.405 207.744,142.724 207.305 C 143.371 207.089,139.611 205.506,134.368 203.787 C 129.126 202.069,125.313 201.081,125.896 201.593 M62.349 202.590 C 65.076 202.834,69.250 202.831,71.625 202.582 C 73.999 202.333,71.768 202.132,66.667 202.137 C 61.565 202.141,59.622 202.345,62.349 202.590 M86.697 202.590 C 89.424 202.834,93.598 202.831,95.973 202.582 C 98.347 202.333,96.116 202.132,91.014 202.137 C 85.913 202.141,83.970 202.345,86.697 202.590 M154.493 202.584 C 156.884 202.834,160.797 202.834,163.188 202.584 C 165.580 202.334,163.623 202.129,158.841 202.129 C 154.058 202.129,152.101 202.334,154.493 202.584 M216.496 202.576 C 218.554 202.832,222.206 202.836,224.612 202.585 C 227.017 202.334,225.333 202.125,220.870 202.120 C 216.406 202.114,214.438 202.320,216.496 202.576 M244.378 202.590 C 247.105 202.834,251.279 202.831,253.654 202.582 C 256.028 202.333,253.797 202.132,248.696 202.137 C 243.594 202.141,241.651 202.345,244.378 202.590 M308.769 202.607 C 319.491 202.799,336.708 202.798,347.030 202.606 C 357.352 202.414,348.580 202.258,327.536 202.258 C 306.493 202.258,298.048 202.416,308.769 202.607 M76.788 229.181 C 76.642 243.317,76.221 255.839,75.854 257.007 C 75.248 258.937,75.303 258.951,76.457 257.164 C 77.306 255.848,77.615 246.650,77.390 229.338 L 77.055 203.478 76.788 229.181 M80.496 229.565 C 80.496 243.913,80.662 249.783,80.866 242.609 C 81.069 235.435,81.069 223.696,80.866 216.522 C 80.662 209.348,80.496 215.217,80.496 229.565 M101.086 211.014 L 100.864 218.551 109.273 217.980 L 117.681 217.410 109.911 217.059 L 102.142 216.708 101.725 210.093 L 101.308 203.478 101.086 211.014 M146.904 206.757 C 144.782 209.996,144.309 220.217,146.091 224.348 C 146.717 225.801,146.904 223.365,146.590 217.822 C 146.199 210.924,146.471 208.661,147.827 207.536 C 149.244 206.360,149.565 206.423,149.565 207.877 C 149.565 208.859,148.913 209.931,148.116 210.259 C 147.148 210.659,147.756 211.853,149.948 213.859 L 153.230 216.861 175.456 216.546 L 197.681 216.232 197.801 211.884 L 197.921 207.536 182.728 207.298 L 167.536 207.060 183.188 206.377 L 198.841 205.694 184.017 205.456 C 171.662 205.257,168.670 205.552,166.046 207.226 C 163.000 209.170,162.954 209.166,164.611 207.081 C 166.253 205.014,165.981 204.945,157.956 205.399 C 153.355 205.659,149.430 205.392,149.235 204.806 C 149.040 204.221,147.991 205.099,146.904 206.757 M208.281 209.303 C 206.669 212.188,205.849 214.239,206.460 213.862 C 207.677 213.110,212.531 204.058,211.717 204.058 C 211.440 204.058,209.894 206.418,208.281 209.303 M229.565 205.437 C 229.565 205.877,231.522 206.441,233.913 206.692 L 238.261 207.146 233.374 207.341 C 229.924 207.479,228.147 208.173,227.328 209.703 C 225.661 212.818,226.745 213.333,234.976 213.333 C 239.014 213.333,242.319 213.749,242.319 214.258 C 242.319 214.766,239.005 214.971,234.954 214.713 C 228.823 214.323,227.463 214.574,226.835 216.212 C 225.581 219.479,227.059 220.290,234.271 220.290 C 244.829 220.290,244.526 224.426,233.939 224.808 C 225.656 225.106,225.624 225.122,226.620 228.260 C 227.197 230.078,228.594 230.711,232.813 231.066 C 238.176 231.518,238.166 231.523,232.172 231.415 C 228.824 231.354,226.085 231.726,226.085 232.242 C 226.086 232.758,225.607 232.883,225.020 232.521 C 224.433 232.158,223.985 228.369,224.026 224.102 C 224.068 219.675,223.579 216.169,222.889 215.939 C 222.188 215.705,222.893 213.361,224.561 210.376 L 227.445 205.217 220.679 205.225 L 213.913 205.233 209.497 213.341 C 205.114 221.390,205.115 221.522,209.565 221.432 C 210.043 221.422,210.696 224.944,211.014 229.258 L 211.594 237.101 245.507 237.409 C 278.728 237.710,279.420 237.669,279.420 235.402 C 279.420 232.732,277.330 232.067,267.246 231.532 C 261.229 231.213,261.558 231.134,269.682 230.944 C 279.057 230.725,279.074 230.719,278.958 227.638 L 278.841 224.552 269.855 224.816 C 263.075 225.014,260.865 224.705,260.852 223.554 C 260.839 222.437,260.534 222.494,259.710 223.768 C 258.801 225.174,258.583 225.008,258.568 222.899 C 258.551 220.398,258.956 220.290,268.337 220.290 C 278.352 220.290,279.990 219.646,278.678 216.227 C 278.038 214.558,276.456 214.332,267.770 214.673 C 262.182 214.893,257.853 214.681,258.149 214.203 C 258.445 213.725,263.061 213.333,268.406 213.333 C 283.527 213.333,283.666 207.706,268.554 207.331 L 260.290 207.127 268.406 206.377 L 276.522 205.627 268.213 205.422 C 262.528 205.282,259.690 205.675,259.227 206.667 C 258.686 207.826,258.415 207.826,257.874 206.667 C 257.428 205.710,254.447 205.217,249.110 205.217 C 244.014 205.217,241.288 205.646,241.739 206.377 C 242.133 207.014,241.642 207.536,240.648 207.536 C 239.654 207.536,238.841 206.884,238.841 206.087 C 238.841 205.169,237.140 204.638,234.203 204.638 C 231.652 204.638,229.565 204.997,229.565 205.437 M54.627 210.669 L 54.493 216.701 47.246 217.113 L 40.000 217.524 48.147 217.748 L 56.293 217.971 55.911 213.043 C 55.299 205.143,54.772 204.168,54.627 210.669 M57.971 212.754 L 57.971 220.290 49.508 220.290 L 41.045 220.290 41.519 224.348 L 41.993 228.406 50.021 228.406 L 58.049 228.406 57.720 240.870 L 57.391 253.333 49.275 253.913 L 41.159 254.493 41.159 257.971 C 41.159 262.148,42.926 262.921,52.754 263.045 C 73.342 263.305,74.203 262.000,74.203 230.523 L 74.203 205.217 66.087 205.217 L 57.971 205.217 57.971 212.754 M83.478 230.508 L 83.478 255.798 87.029 259.203 C 90.506 262.537,90.842 262.609,102.971 262.609 L 115.362 262.609 115.722 258.261 L 116.082 253.913 108.766 253.895 C 98.381 253.870,98.406 253.904,98.796 240.484 L 99.130 228.986 107.536 228.645 L 115.942 228.304 115.942 224.348 L 115.942 220.391 107.536 220.051 L 99.130 219.710 98.785 212.464 L 98.440 205.217 90.959 205.217 L 83.478 205.217 83.478 230.508 M125.441 210.061 C 125.795 214.877,125.841 214.921,133.799 218.176 C 143.834 222.280,143.197 222.426,143.142 216.039 L 143.096 210.630 136.186 207.984 C 125.940 204.060,125.012 204.239,125.441 210.061 M290.125 233.913 L 290.435 262.609 321.159 262.609 C 367.291 262.609,364.058 265.091,364.058 229.676 L 364.058 205.217 326.936 205.217 L 289.815 205.217 290.125 233.913 M122.990 210.656 C 122.940 213.329,123.311 215.770,123.816 216.082 C 124.320 216.394,124.543 214.729,124.311 212.382 C 123.678 205.966,123.093 205.202,122.990 210.656 M287.787 231.884 C 287.632 246.232,287.236 259.275,286.908 260.870 L 286.311 263.768 287.525 261.001 C 288.287 259.262,288.614 248.487,288.404 232.015 L 288.070 205.797 287.787 231.884 M199.689 211.014 C 199.689 213.246,199.928 214.159,200.220 213.043 C 200.511 211.928,200.511 210.101,200.220 208.986 C 199.928 207.870,199.689 208.783,199.689 211.014 M366.375 231.884 C 366.057 244.957,365.373 256.696,364.854 257.971 C 364.335 259.246,364.737 258.866,365.748 257.125 C 367.289 254.472,367.534 250.258,367.269 231.038 L 366.952 208.116 366.375 231.884 M348.986 234.106 C 348.986 245.850,348.665 255.138,348.273 254.746 C 347.881 254.354,347.648 247.658,347.756 239.866 C 347.935 226.865,347.795 225.829,346.053 227.275 C 344.461 228.596,344.217 230.874,344.541 241.383 C 344.782 249.199,344.491 253.937,343.768 253.971 C 331.746 254.540,308.885 253.536,308.168 252.408 C 307.565 251.460,307.276 251.663,307.264 253.043 C 307.254 254.159,306.730 255.072,306.099 255.072 C 304.034 255.072,305.158 213.457,307.233 213.073 C 308.182 212.897,317.965 212.754,328.973 212.754 L 348.986 212.754 348.986 234.106 M345.507 214.530 C 343.961 215.527,343.961 215.777,345.507 216.774 C 346.628 217.498,347.384 217.498,347.633 216.774 C 348.399 214.550,347.291 213.379,345.507 214.530 M307.244 215.942 C 307.242 216.995,309.857 217.356,316.809 217.262 L 326.377 217.132 317.681 217.841 L 308.986 218.551 308.986 222.029 L 308.986 225.507 319.273 225.633 L 329.561 225.758 329.355 238.676 L 329.150 251.594 336.031 251.594 L 342.913 251.594 342.974 238.576 C 343.013 230.444,343.499 225.404,344.271 225.146 C 346.256 224.485,345.763 219.130,343.717 219.130 C 342.656 219.130,342.066 218.305,342.268 217.101 C 342.554 215.396,341.544 215.017,335.942 214.725 C 330.544 214.443,329.275 214.719,329.275 216.174 C 329.275 217.162,328.770 217.971,328.152 217.971 C 327.535 217.971,327.330 217.188,327.697 216.232 C 328.260 214.764,326.714 214.493,317.805 214.493 C 310.133 214.493,307.246 214.889,307.244 215.942 M125.918 218.935 C 125.227 220.052,133.802 223.768,137.072 223.768 C 138.129 223.768,139.316 224.290,139.710 224.928 C 140.104 225.565,141.179 226.087,142.097 226.087 C 143.016 226.087,143.768 225.565,143.768 224.928 C 143.768 224.290,143.218 223.768,142.545 223.768 C 141.872 223.768,139.133 222.787,136.458 221.587 C 129.418 218.431,126.659 217.737,125.918 218.935 M150.725 219.130 C 149.707 219.766,149.215 222.075,149.428 225.217 C 149.653 228.537,195.394 228.306,196.264 224.981 C 197.619 219.798,195.536 219.254,172.928 218.892 C 161.226 218.704,151.235 218.812,150.725 219.130 M37.417 224.928 C 37.417 227.797,37.643 228.971,37.920 227.536 C 38.196 226.101,38.196 223.754,37.920 222.319 C 37.643 220.884,37.417 222.058,37.417 224.928 M118.553 224.348 C 118.566 226.899,118.804 227.806,119.081 226.363 C 119.358 224.921,119.348 222.834,119.057 221.726 C 118.767 220.617,118.540 221.797,118.553 224.348 M198.530 223.768 C 198.530 226.000,198.768 226.913,199.060 225.797 C 199.352 224.681,199.352 222.855,199.060 221.739 C 198.768 220.623,198.530 221.536,198.530 223.768 M122.055 227.246 C 122.055 230.116,122.281 231.290,122.557 229.855 C 122.834 228.420,122.834 226.072,122.557 224.638 C 122.281 223.203,122.055 224.377,122.055 227.246 M126.377 227.802 C 126.377 231.775,126.910 233.247,128.696 234.203 C 131.746 235.836,131.646 237.209,127.536 250.039 C 123.091 263.916,122.901 263.188,130.974 263.188 C 139.485 263.188,138.418 264.860,145.403 240.580 C 145.587 239.942,146.116 238.549,146.580 237.485 C 147.622 235.092,144.286 229.713,140.957 228.418 C 139.633 227.904,135.812 226.394,132.464 225.063 L 126.377 222.643 126.377 227.802 M205.966 224.655 C 207.649 225.735,208.522 238.674,206.957 239.331 C 206.319 239.598,206.766 239.858,207.950 239.908 C 209.453 239.972,209.891 239.446,209.399 238.166 C 209.012 237.157,208.696 233.505,208.696 230.050 C 208.696 224.833,208.352 223.771,206.667 223.786 C 205.367 223.797,205.115 224.110,205.966 224.655 M307.246 237.681 C 307.246 243.633,307.564 248.185,307.953 247.796 C 308.778 246.970,308.650 228.264,307.813 227.427 C 307.501 227.115,307.246 231.729,307.246 237.681 M309.988 232.762 C 309.869 236.962,310.047 237.576,310.742 235.362 C 311.953 231.508,312.096 227.244,311.014 227.254 C 310.536 227.259,310.075 229.737,309.988 232.762 M154.783 229.182 C 168.550 230.008,196.839 230.071,196.345 229.275 C 196.048 228.797,185.271 228.502,172.395 228.620 C 159.520 228.738,151.594 228.991,154.783 229.182 M314.783 229.293 C 314.145 229.762,313.604 230.667,313.581 231.304 C 313.542 232.355,311.477 242.326,309.906 249.051 C 309.306 251.617,309.530 251.711,315.416 251.370 L 321.551 251.014 323.655 242.319 C 326.870 229.031,326.744 228.402,320.870 228.424 C 318.159 228.433,315.420 228.825,314.783 229.293 M346.362 246.087 C 346.128 249.435,345.936 246.696,345.936 240.000 C 345.936 233.304,346.128 230.565,346.362 233.913 C 346.596 237.261,346.596 242.739,346.362 246.087 M100.867 240.870 L 100.870 251.594 106.572 251.594 C 109.708 251.594,113.230 251.904,114.398 252.283 C 115.996 252.802,116.130 252.693,114.941 251.844 C 113.607 250.891,113.607 250.618,114.941 250.087 C 115.811 249.741,113.261 249.417,109.275 249.367 L 102.029 249.275 102.029 240.481 L 102.029 231.686 109.512 232.075 C 113.628 232.289,116.628 232.116,116.179 231.692 C 115.730 231.267,112.100 230.746,108.114 230.532 L 100.865 230.145 100.867 240.870 M40.578 231.594 C 40.576 232.072,43.707 232.287,47.534 232.071 L 54.493 231.678 54.493 240.477 L 54.493 249.275 48.184 249.275 C 44.715 249.275,41.538 249.822,41.125 250.490 C 40.623 251.303,42.937 251.591,48.115 251.360 L 55.856 251.014 56.044 240.869 L 56.232 230.724 48.406 230.724 C 44.101 230.724,40.579 231.116,40.578 231.594 M148.745 232.669 C 146.682 238.057,148.612 239.399,159.284 240.000 L 169.583 240.580 163.118 245.023 C 156.815 249.356,154.454 250.207,155.101 247.914 C 155.276 247.293,154.877 247.120,154.213 247.530 C 153.549 247.940,153.306 248.762,153.673 249.355 C 154.959 251.437,152.941 252.944,150.911 251.417 C 149.291 250.197,149.214 250.223,150.427 251.584 C 151.594 252.893,151.392 253.708,149.366 255.864 C 143.447 262.164,147.820 263.356,175.894 263.094 L 200.580 262.864 200.580 258.388 L 200.580 253.913 188.216 253.913 L 175.852 253.913 185.393 247.107 C 196.762 238.996,198.662 236.747,196.567 233.881 C 194.725 231.362,149.683 230.221,148.745 232.669 M199.420 235.853 C 199.420 236.761,198.057 239.239,196.390 241.360 L 193.360 245.217 196.970 241.431 C 200.107 238.141,201.757 234.203,200.000 234.203 C 199.681 234.203,199.420 234.945,199.420 235.853 M236.625 240.935 C 236.107 241.860,235.402 242.158,235.057 241.598 C 233.806 239.563,208.492 241.526,207.084 243.768 C 205.165 246.822,207.587 249.952,211.498 249.474 L 214.618 249.093 211.032 256.197 L 207.446 263.301 214.737 262.955 L 222.029 262.609 225.069 256.972 C 230.209 247.440,232.485 247.284,232.903 256.433 C 233.295 265.029,234.203 265.023,234.203 256.425 C 234.203 247.398,236.288 247.003,236.754 255.942 L 237.101 262.609 245.261 262.770 L 253.420 262.932 253.173 256.088 C 253.029 252.123,253.377 249.524,253.999 249.908 C 254.589 250.273,255.164 253.280,255.275 256.590 C 255.471 262.412,255.492 262.448,255.921 257.681 C 256.416 252.191,258.112 251.183,259.248 255.706 C 259.655 257.330,260.257 258.390,260.585 258.062 C 260.913 257.734,260.519 255.867,259.710 253.913 C 256.987 247.339,259.524 248.973,263.129 256.115 L 266.700 263.188 274.118 263.188 L 281.537 263.188 278.181 257.101 C 274.187 249.859,274.180 249.814,276.972 249.604 C 278.487 249.490,279.005 250.038,278.655 251.386 C 278.377 252.457,278.986 254.377,280.008 255.652 C 281.824 257.917,281.838 257.911,280.603 255.362 C 279.630 253.355,279.682 252.750,280.829 252.736 C 281.744 252.725,281.871 252.389,281.159 251.866 C 280.522 251.398,280.000 248.928,280.000 246.377 L 280.000 241.739 266.667 241.739 C 259.333 241.739,253.019 241.312,252.636 240.790 C 251.305 238.978,237.650 239.101,236.625 240.935 M325.622 242.029 C 325.173 250.215,325.283 252.753,326.087 252.753 C 326.565 252.753,326.957 249.623,326.957 245.797 C 326.957 238.843,325.953 236.008,325.622 242.029 M123.577 250.798 C 121.929 256.203,120.613 261.332,120.653 262.197 C 120.693 263.061,122.237 258.834,124.084 252.803 C 125.931 246.772,127.247 241.643,127.008 241.404 C 126.770 241.166,125.226 245.393,123.577 250.798 M145.422 247.650 C 144.478 250.901,144.069 254.509,144.514 255.666 C 145.033 257.020,144.881 257.500,144.089 257.010 C 142.812 256.221,140.824 261.790,141.973 262.939 C 142.322 263.289,142.609 262.641,142.609 261.501 C 142.609 259.774,142.905 259.672,144.374 260.892 C 145.842 262.109,146.023 262.051,145.445 260.544 C 145.062 259.548,145.363 257.585,146.113 256.183 C 147.035 254.460,147.064 253.889,146.203 254.421 C 144.618 255.401,144.619 255.004,146.225 248.629 L 147.522 243.478 153.323 243.478 C 158.595 243.478,158.979 243.654,157.533 245.404 C 156.077 247.166,156.163 247.192,158.551 245.704 C 162.557 243.209,161.755 242.558,154.149 242.132 L 147.138 241.739 145.422 247.650 M204.350 245.217 C 204.363 247.768,204.601 248.675,204.878 247.233 C 205.155 245.791,205.145 243.704,204.855 242.595 C 204.564 241.487,204.337 242.667,204.350 245.217 M283.191 245.217 C 283.204 247.768,283.441 248.675,283.719 247.233 C 283.996 245.791,283.985 243.704,283.695 242.595 C 283.405 241.487,283.178 242.667,283.191 245.217 M183.658 250.603 C 181.478 253.059,181.479 253.074,183.768 251.802 C 188.844 248.979,189.734 248.153,187.716 248.134 C 186.699 248.124,184.873 249.235,183.658 250.603 M37.433 257.971 C 37.442 261.159,37.667 262.326,37.933 260.564 C 38.200 258.801,38.193 256.193,37.918 254.767 C 37.642 253.341,37.424 254.783,37.433 257.971 M202.055 258.551 C 202.055 261.420,202.281 262.594,202.557 261.159 C 202.834 259.725,202.834 257.377,202.557 255.942 C 202.281 254.507,202.055 255.681,202.055 258.551 M118.553 259.130 C 118.566 261.681,118.804 262.588,119.081 261.146 C 119.358 259.704,119.348 257.617,119.057 256.508 C 118.767 255.400,118.540 256.580,118.553 259.130 M226.611 258.658 C 225.591 260.631,224.962 262.450,225.214 262.702 C 225.466 262.953,226.539 261.340,227.600 259.116 C 229.984 254.116,229.158 253.733,226.611 258.658 M70.145 262.108 C 68.232 263.333,67.261 264.338,67.987 264.342 C 68.714 264.345,70.540 263.322,72.045 262.068 C 75.493 259.196,74.663 259.213,70.145 262.108 M86.957 263.188 C 90.356 265.049,93.179 265.382,104.348 265.239 L 117.681 265.068 103.768 264.418 C 95.987 264.055,88.739 263.129,87.323 262.319 C 85.930 261.522,84.365 260.891,83.844 260.918 C 83.324 260.945,84.725 261.967,86.957 263.188 M357.780 262.899 C 357.302 263.377,341.694 264.056,323.094 264.408 L 289.275 265.047 323.712 264.987 C 349.649 264.942,358.506 264.570,359.596 263.478 C 360.431 262.642,360.537 262.029,359.845 262.029 C 359.186 262.029,358.257 262.420,357.780 262.899 M148.801 264.620 C 149.540 265.088,161.623 265.379,175.652 265.266 C 202.948 265.046,199.637 264.571,167.352 264.074 C 156.409 263.906,148.062 264.151,148.801 264.620 M46.667 265.205 C 50.333 265.435,56.333 265.435,60.000 265.205 C 63.667 264.975,60.667 264.786,53.333 264.786 C 46.000 264.786,43.000 264.975,46.667 265.205 M207.636 264.834 C 208.483 265.681,222.557 265.945,223.373 265.129 C 223.803 264.699,220.329 264.348,215.652 264.348 C 210.976 264.348,207.368 264.567,207.636 264.834 M236.801 265.310 C 235.999 265.819,238.607 266.042,242.599 265.805 C 253.117 265.179,254.453 264.634,245.797 264.500 C 241.652 264.436,237.604 264.800,236.801 265.310 M268.670 265.185 C 270.728 265.441,274.380 265.445,276.786 265.194 C 279.191 264.943,277.507 264.733,273.043 264.728 C 268.580 264.723,266.612 264.928,268.670 265.185 M127.221 266.344 C 129.279 266.600,132.931 266.604,135.336 266.353 C 137.742 266.102,136.058 265.893,131.594 265.888 C 127.130 265.883,125.162 266.088,127.221 266.344 M160.000 275.912 C 154.208 276.662,146.087 279.766,146.087 281.230 C 146.087 281.555,147.096 281.281,148.330 280.621 C 151.100 279.138,151.884 279.112,151.884 280.502 C 151.884 281.096,150.893 281.897,149.682 282.282 C 142.600 284.530,136.964 294.885,139.176 301.586 C 140.744 306.339,147.741 314.203,150.401 314.203 C 151.217 314.203,151.884 314.725,151.884 315.362 C 151.884 317.187,150.451 316.754,145.487 313.431 C 141.623 310.845,141.227 310.746,143.056 312.827 C 147.955 318.398,169.396 322.454,175.050 318.879 C 176.170 318.171,174.500 318.027,170.243 318.467 C 162.841 319.231,153.043 318.082,153.043 316.451 C 153.043 315.852,154.087 315.362,155.362 315.362 C 156.638 315.362,157.681 315.765,157.681 316.257 C 157.681 317.546,172.542 317.205,173.810 315.887 C 174.819 314.838,175.495 311.498,175.206 308.986 C 175.132 308.338,172.131 307.909,168.406 308.014 C 158.727 308.287,153.984 304.871,153.448 297.240 C 153.057 291.679,162.837 283.874,164.383 288.513 C 164.630 289.251,166.483 289.793,168.502 289.718 L 172.174 289.581 168.696 288.696 C 165.393 287.855,165.459 287.804,170.021 287.673 C 172.971 287.589,175.065 286.908,175.449 285.909 C 176.446 283.309,174.971 279.437,172.908 279.239 C 165.806 278.558,163.500 278.611,159.055 279.558 C 156.303 280.144,153.439 280.244,152.690 279.781 C 150.970 278.719,155.524 277.375,161.381 277.217 C 163.735 277.153,165.983 276.580,166.377 275.942 C 166.771 275.304,166.932 274.851,166.735 274.935 C 166.538 275.018,163.507 275.458,160.000 275.912 M215.072 276.043 C 211.397 276.697,211.982 276.807,217.896 276.576 C 221.999 276.415,227.150 276.687,229.342 277.182 C 231.627 277.697,232.893 277.647,232.310 277.063 C 230.900 275.654,220.669 275.048,215.072 276.043 M55.652 277.146 C 63.623 277.579,71.449 278.276,73.043 278.694 C 74.638 279.111,74.116 278.703,71.884 277.786 C 69.088 276.637,63.679 276.156,54.493 276.238 L 41.159 276.358 55.652 277.146 M94.813 276.792 C 97.540 277.037,101.714 277.034,104.089 276.785 C 106.463 276.536,104.232 276.335,99.130 276.339 C 94.029 276.344,92.086 276.548,94.813 276.792 M126.087 276.781 C 128.159 277.038,131.551 277.038,133.623 276.781 C 135.696 276.524,134.000 276.313,129.855 276.313 C 125.710 276.313,124.014 276.524,126.087 276.781 M170.158 276.762 C 171.601 277.039,173.688 277.029,174.796 276.739 C 175.905 276.448,174.725 276.222,172.174 276.234 C 169.623 276.247,168.716 276.485,170.158 276.762 M205.217 278.261 C 203.671 279.260,203.671 279.385,205.217 279.385 C 206.174 279.385,207.739 278.879,208.696 278.261 C 210.242 277.262,210.242 277.137,208.696 277.137 C 207.739 277.137,206.174 277.643,205.217 278.261 M38.735 297.391 C 38.734 308.232,38.908 312.823,39.123 307.593 C 39.337 302.364,39.338 293.494,39.125 287.883 C 38.912 282.272,38.737 286.551,38.735 297.391 M41.739 297.203 L 41.739 316.478 44.578 317.190 C 47.803 317.999,56.697 317.308,66.087 315.518 C 78.465 313.158,83.239 302.141,73.757 297.821 L 71.103 296.612 74.506 293.208 C 76.598 291.117,77.642 289.107,77.216 287.996 C 76.834 287.001,76.522 285.768,76.522 285.256 C 76.522 281.671,69.005 279.489,53.623 278.608 L 41.739 277.928 41.739 297.203 M90.496 280.817 C 88.506 285.648,77.681 316.146,77.681 316.921 C 77.681 319.938,89.474 317.458,90.609 314.203 C 92.133 309.831,94.384 309.608,93.538 313.913 L 92.911 317.101 94.215 313.913 C 96.074 309.370,102.571 309.265,103.699 313.760 C 104.118 315.429,104.699 316.558,104.989 316.267 C 107.529 313.727,102.823 309.000,97.959 309.204 C 95.096 309.324,92.754 308.932,92.754 308.334 C 92.754 305.101,105.216 307.237,105.885 310.585 C 106.810 315.209,109.647 317.684,113.996 317.663 C 121.308 317.628,121.904 314.963,116.973 304.348 C 116.381 303.072,113.927 296.812,111.521 290.435 L 107.146 278.841 99.370 278.498 C 92.193 278.181,91.508 278.360,90.496 280.817 M110.211 278.907 C 110.175 279.582,112.473 286.364,115.318 293.980 L 120.490 307.826 120.310 292.754 L 120.131 277.681 119.486 289.120 L 118.841 300.559 114.559 289.120 C 112.204 282.829,110.247 278.233,110.211 278.907 M123.603 279.218 C 123.124 279.994,122.605 304.394,122.841 315.072 C 122.907 318.058,132.704 319.006,135.420 316.290 C 136.886 314.824,137.478 283.665,136.108 280.095 C 135.350 278.120,124.742 277.376,123.603 279.218 M139.227 278.841 C 139.076 279.478,138.706 282.202,138.406 284.894 L 137.859 289.788 141.393 286.254 C 145.266 282.381,146.278 280.157,142.690 283.405 C 140.526 285.363,140.437 285.302,139.977 281.555 C 139.716 279.425,139.378 278.203,139.227 278.841 M213.237 279.301 C 195.107 283.013,188.930 303.118,203.026 312.536 C 204.875 313.772,206.157 315.395,205.873 316.143 C 204.659 319.350,221.003 321.167,230.145 318.841 L 233.623 317.956 230.435 317.818 C 228.681 317.743,227.246 317.194,227.246 316.599 C 227.246 316.003,228.681 315.351,230.435 315.149 C 233.613 314.784,233.624 314.749,233.958 304.638 L 234.293 294.493 225.552 294.493 C 217.002 294.493,216.812 294.556,216.812 297.391 C 216.812 299.710,217.391 300.290,219.710 300.290 C 222.240 300.290,222.609 300.797,222.609 304.276 C 222.609 308.671,221.016 309.176,213.794 307.069 C 200.571 303.212,207.087 287.266,221.752 287.593 C 233.453 287.854,233.043 287.996,233.043 283.671 C 233.043 281.412,232.441 279.760,231.594 279.695 C 230.797 279.634,227.275 279.329,223.768 279.017 C 220.261 278.706,215.522 278.834,213.237 279.301 M86.060 283.189 C 84.086 288.648,84.359 290.126,86.451 285.305 C 87.399 283.121,88.018 280.867,87.828 280.295 C 87.637 279.724,86.842 281.026,86.060 283.189 M235.296 284.638 L 234.783 290.435 227.652 290.435 C 223.729 290.435,220.755 290.051,221.043 289.583 C 221.972 288.066,213.977 290.117,211.884 291.933 C 210.566 293.076,209.920 295.154,210.041 297.861 L 210.226 302.029 210.703 297.971 C 211.407 291.981,212.353 291.557,224.116 291.960 L 234.783 292.326 236.789 288.717 C 237.892 286.732,238.317 285.404,237.734 285.765 C 237.150 286.126,236.478 284.715,236.241 282.631 C 235.887 279.522,235.717 279.883,235.296 284.638 M266.957 282.864 C 263.347 284.413,263.662 285.421,267.322 284.029 C 271.229 282.544,279.420 282.576,279.420 284.076 C 279.420 284.724,277.986 285.160,276.232 285.045 C 258.004 283.848,249.511 306.042,265.145 314.018 C 269.049 316.010,275.939 317.282,278.551 316.494 C 279.029 316.350,279.812 316.153,280.290 316.057 C 286.248 314.857,292.811 304.630,291.638 298.375 C 290.830 294.071,284.777 286.377,282.199 286.377 C 281.308 286.377,280.580 285.820,280.580 285.139 C 280.580 284.395,281.620 284.216,283.188 284.690 C 285.189 285.294,285.491 285.155,284.482 284.090 C 282.774 282.288,270.327 281.417,266.957 282.864 M241.648 283.979 C 243.773 284.769,243.754 284.893,241.225 286.664 C 238.032 288.901,236.365 296.389,236.643 307.246 C 236.879 316.446,237.759 317.681,244.076 317.681 C 250.137 317.681,250.349 317.216,250.071 304.528 L 249.855 294.660 253.333 293.662 C 256.879 292.646,258.738 285.497,255.690 284.598 C 253.000 283.805,239.591 283.214,241.648 283.979 M352.464 284.058 C 356.933 285.489,359.316 285.489,357.101 284.058 C 356.145 283.440,354.058 282.978,352.464 283.032 L 349.565 283.130 352.464 284.058 M293.499 293.322 C 293.080 307.456,294.879 313.226,300.515 315.824 C 301.712 316.376,301.725 316.664,300.572 317.200 C 299.771 317.574,299.411 318.356,299.771 318.940 C 300.593 320.269,309.611 320.303,311.692 318.984 C 312.591 318.414,310.696 318.247,307.175 318.585 C 302.807 319.005,301.339 318.798,301.928 317.845 C 302.378 317.117,304.410 316.514,306.445 316.504 C 308.480 316.494,310.914 316.000,311.853 315.406 C 312.910 314.737,313.818 314.739,314.232 315.409 C 314.600 316.005,317.484 316.630,320.639 316.797 L 326.377 317.101 326.699 300.518 L 327.021 283.935 320.902 284.286 L 314.783 284.638 314.203 296.232 C 313.656 307.166,313.475 307.847,311.016 308.196 C 307.418 308.707,306.087 304.675,306.087 293.258 L 306.087 284.058 299.930 284.058 L 293.773 284.058 293.499 293.322 M330.048 284.831 C 329.623 285.256,329.275 293.617,329.275 303.410 L 329.275 321.217 332.307 322.369 C 338.592 324.759,343.062 322.683,342.475 317.646 C 342.226 315.508,342.517 314.368,343.204 314.792 C 343.833 315.181,344.408 316.903,344.482 318.619 C 344.559 320.409,344.835 320.913,345.130 319.801 C 345.456 318.566,347.407 317.570,350.502 317.057 C 355.702 316.196,362.460 313.170,359.362 313.090 C 358.374 313.064,357.070 313.512,356.464 314.084 C 355.135 315.338,344.575 317.154,345.753 315.926 C 346.206 315.452,349.337 314.171,352.709 313.079 C 366.770 308.525,368.164 292.380,354.973 286.869 C 352.820 285.969,350.628 285.499,350.102 285.824 C 349.576 286.149,348.818 285.884,348.417 285.236 C 347.619 283.945,331.295 283.585,330.048 284.831 M78.841 288.083 C 78.841 289.914,77.928 292.487,76.812 293.802 C 74.860 296.101,74.865 296.128,76.932 294.520 C 79.857 292.247,81.583 287.496,80.043 285.956 C 79.213 285.126,78.841 285.784,78.841 288.083 M308.644 295.362 C 308.421 305.393,308.556 306.087,310.725 306.087 C 312.894 306.087,313.028 305.393,312.805 295.362 L 312.567 284.638 312.180 294.783 C 311.968 300.362,311.313 304.928,310.725 304.928 C 310.137 304.928,309.482 300.362,309.269 294.783 L 308.883 284.638 308.644 295.362 M63.726 288.065 C 65.338 290.007,64.407 292.174,61.961 292.174 C 59.917 292.174,59.711 289.901,61.739 289.740 C 62.536 289.676,61.884 289.236,60.290 288.763 C 56.742 287.709,55.547 288.232,56.404 290.465 C 56.762 291.398,57.522 291.872,58.093 291.519 C 58.663 291.166,59.130 291.430,59.130 292.105 C 59.130 292.781,58.087 293.333,56.812 293.333 C 55.008 293.333,54.493 292.560,54.493 289.855 C 54.493 285.908,60.904 284.665,63.726 288.065 M99.305 288.079 C 98.946 289.015,99.151 290.089,99.761 290.466 C 100.371 290.843,100.870 292.394,100.870 293.913 C 100.870 295.432,101.391 296.997,102.029 297.391 C 104.463 298.895,103.024 300.290,99.038 300.290 C 95.063 300.290,93.869 294.879,97.247 292.174 C 97.645 291.855,98.023 290.942,98.087 290.145 C 98.325 287.165,98.569 286.377,99.254 286.377 C 99.642 286.377,99.664 287.143,99.305 288.079 M193.168 290.530 C 192.186 293.087,192.319 304.065,193.351 305.686 C 193.820 306.423,194.203 302.901,194.203 297.860 C 194.203 287.886,194.197 287.846,193.168 290.530 M82.448 293.462 C 81.733 295.511,81.352 297.391,81.600 297.638 C 81.848 297.886,82.635 296.413,83.349 294.364 C 84.064 292.315,84.445 290.436,84.197 290.188 C 83.949 289.940,83.162 291.413,82.448 293.462 M365.153 292.967 C 366.705 296.179,366.747 304.562,365.217 305.507 C 364.580 305.901,364.058 306.814,364.058 307.536 C 364.058 308.258,364.824 307.836,365.760 306.598 C 368.013 303.620,367.997 295.511,365.733 292.685 C 363.991 290.511,363.972 290.521,365.153 292.967 M156.135 294.106 C 151.301 298.941,157.304 305.170,167.195 305.582 L 175.652 305.934 167.900 305.054 C 158.447 303.981,156.162 302.362,156.768 297.166 C 157.257 292.982,157.257 292.984,156.135 294.106 M213.626 297.391 C 213.639 299.942,213.876 300.849,214.153 299.407 C 214.431 297.965,214.420 295.878,214.130 294.769 C 213.840 293.661,213.613 294.841,213.626 297.391 M279.742 295.665 C 283.917 300.541,280.498 308.406,274.203 308.406 C 270.482 308.406,266.667 304.590,266.667 300.870 C 266.667 294.395,275.607 290.836,279.742 295.665 M350.904 295.801 C 351.762 296.513,352.464 297.975,352.464 299.051 C 352.464 301.794,349.383 305.725,348.211 304.477 C 347.680 303.913,347.899 303.218,348.696 302.933 C 349.493 302.648,350.129 301.546,350.110 300.483 C 350.078 298.740,349.959 298.749,348.893 300.580 C 348.243 301.696,347.215 302.609,346.609 302.609 C 344.997 302.609,345.260 297.087,346.898 296.541 C 347.768 296.251,347.551 295.795,346.318 295.322 C 344.648 294.681,344.348 295.343,344.348 299.678 C 344.348 302.490,343.902 305.066,343.358 305.403 C 342.813 305.739,342.344 303.107,342.316 299.553 L 342.266 293.091 345.805 293.799 C 347.752 294.188,350.046 295.089,350.904 295.801 M252.367 295.266 C 251.942 295.691,251.691 300.778,251.810 306.570 L 252.026 317.101 252.754 307.246 C 253.154 301.826,253.578 299.121,253.697 301.236 C 254.036 307.264,258.488 314.110,263.768 316.722 C 265.043 317.353,264.381 316.477,262.296 314.775 C 257.238 310.646,255.072 306.146,255.072 299.768 C 255.072 294.847,254.214 293.419,252.367 295.266 M270.198 297.327 C 269.433 298.249,269.037 300.205,269.318 301.675 C 269.779 304.087,269.845 304.042,269.987 301.217 C 270.074 299.495,271.058 297.554,272.174 296.904 C 273.290 296.254,273.615 295.707,272.896 295.687 C 272.177 295.668,270.963 296.406,270.198 297.327 M56.502 304.484 C 55.884 307.717,58.490 308.238,62.096 305.602 C 64.260 304.020,64.224 303.927,61.158 303.157 C 57.511 302.242,56.864 300.290,60.207 300.290 C 65.934 300.290,67.130 306.467,61.795 308.495 C 55.973 310.708,54.493 309.972,54.493 304.859 C 54.493 301.747,54.922 300.419,55.761 300.937 C 56.459 301.368,56.792 302.964,56.502 304.484 M214.092 305.217 C 214.388 305.696,216.164 306.087,218.039 306.087 C 219.915 306.087,221.449 305.696,221.449 305.217 C 221.449 304.739,219.673 304.348,217.502 304.348 C 215.331 304.348,213.797 304.739,214.092 305.217 M274.203 304.928 L 270.725 305.813 273.845 305.950 C 275.561 306.025,277.287 305.565,277.681 304.928 C 278.075 304.290,278.236 303.830,278.039 303.905 C 277.842 303.981,276.116 304.441,274.203 304.928 M138.070 310.725 C 138.174 315.440,140.111 319.147,140.191 314.783 C 140.226 312.870,139.749 310.522,139.130 309.565 C 138.245 308.195,138.020 308.440,138.070 310.725 M194.783 308.769 C 194.783 308.968,196.478 310.664,198.551 312.537 L 202.319 315.942 198.914 312.174 C 195.739 308.662,194.783 307.873,194.783 308.769 M282.899 316.728 C 279.887 318.391,277.245 318.851,272.650 318.511 C 268.304 318.189,267.050 318.383,268.439 319.161 C 271.486 320.866,281.086 319.485,285.402 316.722 C 290.175 313.666,288.435 313.670,282.899 316.728 M212.174 316.240 C 212.174 316.723,214.391 316.947,217.101 316.737 C 219.812 316.528,223.333 316.883,224.928 317.525 C 228.267 318.871,214.951 319.398,210.145 318.110 C 206.912 317.243,206.714 315.362,209.855 315.362 C 211.130 315.362,212.174 315.757,212.174 316.240 M51.594 318.841 L 40.000 319.551 51.594 319.660 C 57.971 319.720,64.493 319.351,66.087 318.841 L 68.986 317.912 66.087 318.021 C 64.493 318.081,57.971 318.450,51.594 318.841 M84.058 318.841 L 77.101 319.610 83.700 319.805 C 87.329 319.912,90.620 319.478,91.014 318.841 C 91.409 318.203,91.570 317.769,91.373 317.876 C 91.176 317.983,87.884 318.417,84.058 318.841 M320.580 318.841 L 313.623 319.610 320.205 319.805 C 325.396 319.959,326.899 320.429,327.317 322.029 C 327.643 323.277,327.899 322.831,327.981 320.870 C 328.055 319.116,327.986 317.769,327.826 317.876 C 327.667 317.983,324.406 318.417,320.580 318.841 M115.121 319.701 C 119.452 319.925,126.234 319.923,130.193 319.698 C 134.152 319.472,130.609 319.289,122.319 319.291 C 114.029 319.293,110.790 319.478,115.121 319.701 M239.710 319.679 C 241.783 319.936,245.174 319.936,247.246 319.679 C 249.319 319.422,247.623 319.212,243.478 319.212 C 239.333 319.212,237.638 319.422,239.710 319.679 M333.644 325.478 C 335.728 325.736,338.858 325.731,340.600 325.466 C 342.343 325.202,340.638 324.990,336.812 324.997 C 332.986 325.003,331.560 325.220,333.644 325.478 "
              stroke="none" fill="#000000" fill-rule="evenodd"></path>
    </g>
</svg>