<svg id="svg" xmlns="http://www.w3.org/2000/svg" xmlns:xlink="http://www.w3.org/1999/xlink" width="400" height="221.76165803108807" viewBox="0, 0, 400,221.76165803108807">
    <g id="svgg">
        <path id="path0"
              d="M192.435 2.702 C 119.767 6.332,66.793 64.539,78.657 127.720 C 88.998 182.797,145.646 221.813,208.808 217.360 C 280.223 212.326,331.416 154.516,319.573 92.280 C 309.310 38.345,254.333 -0.390,192.435 2.702 M203.057 3.316 C 233.243 4.255,261.010 14.474,282.751 32.647 C 333.262 74.869,333.097 145.800,282.388 187.929 C 237.008 225.631,166.295 226.781,119.275 190.581 C 118.277 189.813,117.111 188.892,116.684 188.535 C 116.256 188.177,115.408 187.468,114.799 186.958 C 114.190 186.449,113.720 186.004,113.754 185.969 C 113.789 185.935,113.757 185.907,113.683 185.907 C 113.609 185.907,113.356 185.736,113.121 185.528 C 107.241 180.318,101.359 173.871,96.949 167.804 C 96.667 167.416,96.264 166.865,96.054 166.580 C 86.253 153.287,79.575 135.321,78.085 118.238 C 72.816 57.814,126.035 5.363,194.683 3.325 C 198.637 3.207,199.529 3.206,203.057 3.316 M213.731 15.397 C 209.012 16.440,205.363 20.186,204.283 25.094 C 203.996 26.402,203.990 49.284,204.277 50.692 C 204.853 53.520,206.129 55.804,207.876 57.136 C 208.485 57.601,209.507 58.249,209.685 58.284 C 209.744 58.296,209.974 58.384,210.196 58.480 C 210.417 58.576,211.093 58.749,211.698 58.864 C 212.303 58.980,212.891 59.105,213.005 59.142 C 213.211 59.209,224.548 59.318,243.679 59.437 C 254.328 59.503,255.057 59.479,256.936 59.007 C 260.325 58.157,262.460 56.481,265.773 52.073 C 267.979 49.137,268.866 48.481,272.210 47.311 C 274.030 46.674,274.214 46.345,273.426 45.145 C 272.504 43.741,269.895 40.943,267.712 39.016 C 265.423 36.995,265.142 36.774,262.880 35.208 C 262.408 34.881,261.054 33.925,259.873 33.084 C 257.545 31.426,254.374 29.350,252.073 27.977 C 251.275 27.500,250.598 27.081,250.570 27.044 C 250.541 27.007,250.262 26.836,249.948 26.663 C 249.635 26.491,248.959 26.104,248.446 25.803 C 243.955 23.174,235.256 19.542,229.178 17.759 C 223.045 15.960,216.034 14.888,213.731 15.397 M180.570 15.449 C 169.695 16.700,157.010 21.364,145.078 28.499 C 136.877 33.402,128.701 40.017,125.338 44.471 C 123.889 46.390,123.984 46.648,126.478 47.546 C 129.608 48.673,130.250 49.174,132.677 52.383 C 137.419 58.653,139.542 59.591,148.601 59.422 C 153.545 59.330,160.954 59.322,176.528 59.392 C 184.347 59.427,184.982 59.417,185.800 59.241 C 190.536 58.220,193.312 55.129,194.050 50.052 C 194.247 48.698,194.205 30.782,193.997 27.343 C 193.717 22.714,192.472 20.324,188.990 17.732 C 188.434 17.319,187.979 16.949,187.978 16.910 C 187.978 16.871,187.873 16.788,187.745 16.725 C 187.618 16.662,187.233 16.469,186.891 16.297 C 185.143 15.417,183.160 15.151,180.570 15.449 M188.214 17.685 C 192.563 20.418,194.096 24.156,193.839 31.399 C 193.760 33.620,193.745 33.712,193.417 33.888 C 193.281 33.960,193.128 34.142,193.075 34.293 C 193.023 34.443,192.811 34.682,192.604 34.822 C 192.397 34.963,192.204 35.151,192.175 35.241 C 192.146 35.331,191.988 35.533,191.824 35.690 L 191.525 35.975 191.477 32.936 C 191.431 30.061,191.414 29.840,191.154 28.860 C 190.255 25.464,187.841 22.714,184.741 21.555 C 184.413 21.433,184.145 21.290,184.145 21.239 C 184.145 21.188,184.216 21.173,184.302 21.207 C 184.418 21.251,184.440 21.219,184.388 21.083 C 184.341 20.962,184.356 20.923,184.431 20.969 C 184.494 21.008,184.575 20.992,184.610 20.934 C 184.646 20.876,184.632 20.829,184.579 20.829 C 184.527 20.829,184.629 20.674,184.806 20.485 C 184.984 20.296,185.409 19.822,185.751 19.432 C 186.093 19.041,186.560 18.526,186.788 18.287 C 187.016 18.048,187.283 17.752,187.382 17.631 C 187.613 17.347,187.685 17.352,188.214 17.685 M184.503 22.261 C 187.742 23.377,190.193 26.519,190.673 30.169 C 190.751 30.764,190.777 34.323,190.756 41.503 L 190.725 51.969 190.438 52.816 C 189.703 54.988,188.033 56.161,184.825 56.762 C 183.649 56.981,148.671 57.098,145.112 56.894 C 139.969 56.599,139.751 56.482,136.974 52.528 C 135.099 49.859,132.921 47.476,131.468 46.505 L 130.759 46.031 132.348 44.845 C 146.151 34.544,157.292 28.513,169.530 24.718 C 177.858 22.136,182.115 21.438,184.503 22.261 M218.605 22.120 C 226.295 23.383,238.344 27.624,245.726 31.666 C 248.558 33.216,253.970 36.628,257.306 38.966 C 260.491 41.199,264.408 44.104,265.922 45.356 L 266.750 46.041 265.935 46.829 C 264.830 47.897,264.410 48.417,262.703 50.829 C 258.763 56.395,258.814 56.359,254.383 56.804 C 252.406 57.003,215.534 57.008,214.145 56.810 C 210.278 56.258,208.408 54.953,207.701 52.313 C 207.486 51.507,207.362 32.818,207.558 30.674 C 207.835 27.652,209.175 25.160,211.437 23.459 C 213.477 21.926,215.323 21.581,218.605 22.120 M250.451 27.681 C 254.208 29.656,260.636 33.891,262.769 35.796 L 263.225 36.204 262.985 36.337 C 262.854 36.410,262.782 36.471,262.825 36.473 C 262.915 36.477,261.594 37.617,261.499 37.617 C 261.465 37.617,261.283 37.780,261.095 37.979 C 260.907 38.179,260.724 38.342,260.688 38.342 C 260.541 38.342,259.708 39.052,259.773 39.121 C 259.954 39.313,259.268 38.999,258.756 38.656 C 258.443 38.446,257.724 37.963,257.159 37.583 C 256.594 37.202,256.073 36.891,256.002 36.891 C 255.930 36.891,255.857 36.852,255.838 36.805 C 255.807 36.728,254.724 35.986,254.451 35.855 C 254.391 35.827,253.796 35.453,253.130 35.026 C 250.991 33.655,249.921 32.979,248.827 32.311 C 247.415 31.448,247.557 31.532,246.347 30.848 C 245.216 30.209,245.132 30.141,245.552 30.218 C 245.706 30.246,245.794 30.224,245.759 30.168 C 245.700 30.073,246.187 29.518,246.472 29.354 C 246.704 29.221,247.578 28.470,248.027 28.020 C 248.260 27.785,248.566 27.557,248.707 27.513 C 249.166 27.370,249.444 27.126,249.067 27.198 C 248.821 27.245,248.800 27.237,248.964 27.159 C 249.078 27.105,249.187 27.058,249.207 27.054 C 249.227 27.050,249.786 27.332,250.451 27.681 M264.873 50.440 C 264.875 50.483,265.061 50.633,265.288 50.772 C 265.813 51.096,265.800 51.136,264.715 52.590 C 263.559 54.140,262.676 55.056,262.842 54.533 C 262.900 54.351,262.875 54.300,262.727 54.297 C 262.212 54.288,262.146 54.050,262.495 53.457 C 263.606 51.572,264.857 49.985,264.873 50.440 M212.991 57.539 C 212.930 57.640,212.949 57.640,213.075 57.537 C 213.201 57.436,213.408 57.430,213.998 57.514 C 214.483 57.583,218.202 57.621,224.244 57.618 C 229.461 57.616,234.486 57.645,235.412 57.683 L 237.094 57.752 236.811 58.002 C 236.656 58.139,236.356 58.412,236.146 58.608 L 235.763 58.964 225.162 58.962 C 214.022 58.960,213.036 58.924,211.913 58.490 C 211.306 58.255,211.182 58.135,211.546 58.135 C 211.915 58.135,212.632 57.553,212.353 57.480 C 212.256 57.454,212.377 57.428,212.623 57.421 C 212.954 57.412,213.049 57.443,212.991 57.539 M166.943 57.688 C 169.992 57.727,172.370 57.792,172.228 57.833 C 172.085 57.873,172.027 57.911,172.098 57.917 C 172.303 57.933,172.249 58.105,172.021 58.165 C 171.908 58.194,171.782 58.303,171.743 58.405 C 171.512 59.007,172.334 58.964,161.116 58.964 L 150.880 58.964 151.341 58.509 C 151.595 58.259,151.774 58.026,151.739 57.991 C 151.704 57.956,151.756 57.927,151.854 57.927 C 151.952 57.927,152.005 57.882,151.970 57.826 C 151.909 57.727,152.862 57.702,159.016 57.641 C 160.326 57.627,163.894 57.649,166.943 57.688 M113.005 69.432 C 103.825 71.268,98.336 89.085,99.468 113.368 C 100.687 139.494,115.094 166.839,137.254 185.089 C 148.705 194.519,164.370 201.368,174.508 201.378 C 176.767 201.380,179.824 200.951,180.451 200.544 C 180.516 200.501,180.733 200.409,180.933 200.339 C 181.260 200.224,181.265 200.217,180.984 200.265 L 180.674 200.319 180.984 200.108 C 181.155 199.993,181.236 199.897,181.163 199.897 C 180.900 199.896,180.648 198.790,180.871 198.617 C 180.940 198.564,180.913 198.553,180.803 198.588 C 180.271 198.759,180.768 198.433,181.731 197.979 C 185.437 196.232,188.405 193.267,190.211 189.508 C 190.715 188.458,190.984 188.063,190.984 188.373 C 190.984 188.418,191.183 188.467,191.425 188.481 C 192.307 188.534,192.415 188.551,192.367 188.627 C 192.341 188.670,192.363 188.705,192.416 188.705 C 192.583 188.705,193.261 185.945,193.515 184.238 C 194.054 180.604,193.978 172.669,193.374 169.689 C 192.571 165.723,190.179 163.361,184.505 160.931 C 182.055 159.882,179.294 158.943,171.865 156.632 C 159.894 152.908,154.249 149.414,147.659 141.651 C 140.281 132.959,136.931 124.683,134.198 108.394 C 132.151 96.195,129.639 85.392,127.897 81.295 C 125.706 76.142,122.702 72.512,119.079 70.640 C 116.979 69.555,114.679 69.097,113.005 69.432 M282.539 69.495 C 282.425 69.517,282.075 69.586,281.762 69.648 C 276.197 70.747,271.189 76.659,268.763 84.995 C 267.184 90.418,265.060 100.248,263.831 107.824 C 261.907 119.677,259.566 127.385,256.009 133.575 C 255.796 133.946,255.540 134.393,255.439 134.569 C 252.200 140.220,246.290 146.645,241.121 150.133 C 237.201 152.778,233.596 154.338,225.596 156.851 C 205.305 163.224,204.040 164.458,204.044 177.876 C 204.046 186.673,205.553 191.585,209.632 196.096 C 212.248 198.989,216.930 201.075,221.679 201.464 C 228.555 202.027,239.255 198.736,249.275 192.976 C 256.185 189.004,262.220 184.362,267.688 178.815 C 268.527 177.964,269.269 177.133,269.337 176.969 C 269.405 176.804,269.489 176.715,269.523 176.769 C 269.560 176.827,269.641 176.809,269.719 176.725 C 269.831 176.604,269.782 176.589,269.408 176.628 C 269.154 176.654,269.046 176.641,269.156 176.596 C 269.337 176.523,269.333 176.500,269.093 176.212 C 268.952 176.044,268.759 175.754,268.663 175.567 C 268.567 175.379,268.449 175.251,268.400 175.281 C 268.287 175.351,268.165 175.041,268.251 174.901 C 268.287 174.843,268.253 174.756,268.175 174.708 C 268.062 174.638,268.059 174.594,268.161 174.491 C 268.232 174.421,268.290 174.293,268.290 174.208 C 268.290 174.093,268.253 174.105,268.143 174.255 C 268.062 174.365,267.972 174.432,267.943 174.402 C 267.779 174.239,268.276 173.848,268.462 173.995 C 268.638 174.133,268.642 174.131,268.508 173.960 C 268.351 173.760,268.341 173.775,269.344 172.694 C 274.909 166.699,281.239 156.293,285.757 145.711 C 286.205 144.663,286.589 143.861,286.612 143.929 C 286.640 144.012,286.694 143.997,286.779 143.881 C 286.915 143.694,288.497 143.757,288.497 143.950 C 288.497 144.000,288.654 144.041,288.846 144.041 C 289.594 144.041,290.155 144.169,290.164 144.341 C 290.169 144.448,290.191 144.461,290.224 144.378 C 290.310 144.166,290.466 144.231,290.470 144.482 C 290.473 144.704,290.480 144.706,290.618 144.523 C 290.698 144.418,290.813 144.362,290.874 144.400 C 290.936 144.438,290.988 144.386,290.993 144.281 C 290.998 144.160,291.020 144.142,291.056 144.230 C 291.091 144.320,291.161 144.269,291.258 144.082 C 291.340 143.924,291.379 143.724,291.345 143.637 C 291.312 143.549,291.317 143.511,291.358 143.551 C 291.548 143.742,293.581 138.264,294.907 133.990 C 296.198 129.824,297.438 123.819,298.020 118.912 C 298.463 115.173,298.494 114.436,298.496 107.668 C 298.499 93.449,296.970 84.454,293.347 77.382 C 290.549 71.920,286.230 68.768,282.539 69.495 M154.301 73.059 C 145.414 73.876,142.284 81.820,144.359 98.290 C 145.912 110.621,151.129 125.626,156.494 133.189 C 163.489 143.052,171.946 147.247,184.851 147.253 C 190.141 147.255,192.444 145.797,193.599 141.710 L 193.833 140.881 193.886 122.280 C 193.977 90.122,193.956 83.734,193.757 82.591 C 192.823 77.227,189.728 74.118,184.402 73.196 C 183.277 73.001,156.267 72.878,154.301 73.059 M214.421 73.075 C 208.640 73.800,205.114 77.372,204.460 83.168 C 204.249 85.034,204.364 140.492,204.580 141.362 C 205.332 144.387,207.182 146.351,209.896 147.006 C 210.770 147.217,215.678 147.246,217.824 147.052 C 223.162 146.571,227.164 145.434,230.933 143.327 C 234.022 141.599,237.601 138.447,240.286 135.087 C 240.700 134.569,241.078 134.096,241.126 134.036 C 241.205 133.937,241.735 133.187,242.183 132.539 C 242.580 131.965,243.523 130.483,243.523 130.433 C 243.523 130.404,243.734 130.024,243.991 129.589 C 246.356 125.588,248.489 120.193,251.039 111.762 C 253.311 104.248,254.441 96.872,254.451 89.482 C 254.465 79.021,251.560 74.128,244.734 73.114 C 243.487 72.929,215.871 72.894,214.421 73.075 M117.370 77.304 C 121.789 79.480,125.812 90.931,129.275 111.192 C 133.554 136.223,143.606 151.186,160.725 158.005 C 162.795 158.829,164.100 159.306,169.896 161.355 C 188.533 167.942,190.385 169.055,190.877 173.975 C 191.098 176.182,190.917 184.548,190.618 185.907 C 188.902 193.729,181.826 199.196,174.249 198.555 C 157.509 197.138,133.883 180.965,122.023 162.804 C 113.513 149.775,106.991 132.329,105.187 117.772 C 104.760 114.325,104.715 113.488,104.718 109.016 C 104.733 89.303,110.809 74.074,117.370 77.304 M283.600 77.202 C 288.270 78.844,291.892 88.843,293.077 103.368 C 294.360 119.101,289.471 138.672,279.861 156.269 C 274.816 165.509,270.457 171.047,262.332 178.545 C 248.154 191.627,228.650 200.591,219.239 198.351 C 213.374 196.955,208.466 191.871,207.299 185.982 C 207.000 184.471,206.826 176.101,207.051 174.011 C 207.592 168.993,209.153 168.095,230.259 160.657 C 240.580 157.019,243.721 155.461,248.318 151.696 C 259.267 142.729,265.193 130.940,268.653 111.244 C 273.103 85.915,277.820 75.171,283.600 77.202 M186.109 80.958 C 188.778 81.783,190.276 83.855,190.770 87.406 C 190.996 89.032,190.915 139.979,190.684 141.088 C 189.955 144.591,188.349 145.357,182.539 144.971 C 169.340 144.095,161.456 138.532,154.935 125.492 C 149.558 114.740,147.179 104.568,147.144 92.176 C 147.121 84.342,148.899 81.442,154.093 80.840 C 155.713 80.652,185.475 80.762,186.109 80.958 M244.488 80.836 C 248.988 81.504,250.961 84.291,251.158 90.259 C 251.552 102.232,248.865 114.410,243.427 125.285 C 236.961 138.218,229.356 143.775,216.632 144.865 C 210.372 145.402,208.531 144.681,207.644 141.347 L 207.409 140.466 207.409 114.093 C 207.409 85.639,207.381 87.162,207.951 85.337 C 208.723 82.869,210.079 81.488,212.280 80.926 C 213.152 80.703,243.031 80.620,244.488 80.836 M81.660 92.202 C 81.659 92.330,81.705 92.435,81.762 92.435 C 81.891 92.435,81.891 92.325,81.762 92.124 C 81.680 91.999,81.661 92.014,81.660 92.202 M81.347 92.344 C 81.347 92.429,81.416 92.590,81.499 92.700 C 81.614 92.852,81.651 92.864,81.651 92.746 C 81.651 92.661,81.583 92.500,81.499 92.390 C 81.384 92.238,81.347 92.226,81.347 92.344 M81.141 93.305 C 80.949 94.178,80.947 94.200,81.057 94.132 C 81.124 94.091,81.135 94.153,81.088 94.301 C 81.038 94.458,81.051 94.511,81.128 94.464 C 81.200 94.419,81.218 94.455,81.176 94.563 C 81.125 94.696,81.093 94.703,81.027 94.597 C 80.932 94.442,80.797 94.686,80.838 94.938 C 80.851 95.015,80.834 95.148,80.799 95.233 C 80.630 95.654,80.090 100.129,79.787 103.627 C 78.592 117.402,81.645 135.444,87.140 147.077 C 87.361 147.545,87.667 148.231,87.821 148.601 C 88.741 150.812,91.687 156.350,93.544 159.358 C 110.477 186.779,141.887 206.694,177.409 212.530 C 186.564 214.034,198.569 214.680,206.839 214.114 C 225.775 212.818,240.288 208.906,256.425 200.745 C 273.698 192.011,289.518 178.937,298.208 166.218 C 298.383 165.961,298.657 165.611,298.817 165.440 C 299.640 164.560,303.940 157.757,305.989 154.093 C 309.501 147.811,314.664 135.871,314.736 133.860 C 314.742 133.703,314.785 133.575,314.831 133.575 C 314.878 133.575,314.889 133.505,314.856 133.420 C 314.823 133.334,314.848 133.264,314.911 133.264 C 314.974 133.264,315.026 133.152,315.026 133.014 C 315.026 132.876,315.118 132.550,315.229 132.288 C 315.341 132.027,315.395 131.813,315.348 131.813 C 315.301 131.813,315.211 131.965,315.146 132.150 C 315.031 132.484,315.030 132.484,315.085 132.176 C 315.116 132.005,315.220 131.805,315.316 131.732 C 315.469 131.615,315.472 131.586,315.336 131.502 C 315.225 131.434,315.164 131.457,315.118 131.584 C 315.084 131.682,315.055 131.556,315.055 131.305 C 315.054 130.853,315.055 130.851,315.178 131.150 C 315.296 131.439,315.305 131.443,315.415 131.238 C 315.494 131.091,315.497 130.978,315.423 130.875 C 315.337 130.754,315.328 130.759,315.376 130.907 C 315.408 131.006,315.389 131.088,315.334 131.088 C 315.278 131.088,315.233 130.968,315.233 130.822 C 315.233 130.676,315.184 130.454,315.124 130.330 L 315.014 130.104 315.201 130.316 C 315.383 130.523,315.388 130.488,315.366 129.147 C 315.345 127.841,315.437 127.464,315.598 128.195 C 315.636 128.370,315.692 128.488,315.722 128.458 C 315.751 128.428,315.691 128.168,315.587 127.879 C 315.378 127.298,315.212 127.372,315.212 128.048 C 315.212 128.271,315.154 128.431,315.059 128.467 C 314.946 128.511,314.920 128.626,314.963 128.900 C 314.995 129.106,314.986 129.193,314.944 129.093 C 314.888 128.959,314.789 129.130,314.574 129.735 C 314.413 130.188,314.316 130.615,314.359 130.684 C 314.408 130.764,314.392 130.782,314.317 130.735 C 314.242 130.690,314.197 130.735,314.197 130.854 C 314.197 130.960,314.158 131.091,314.110 131.145 C 314.062 131.199,313.893 131.617,313.735 132.073 C 312.950 134.342,311.083 138.824,309.945 141.173 C 309.069 142.981,307.621 143.856,304.611 144.397 C 301.697 144.920,300.927 145.706,295.779 153.420 C 280.738 175.959,270.084 185.967,250.984 195.500 C 235.585 203.186,222.703 205.322,214.606 201.531 C 205.953 197.480,202.592 190.391,202.591 176.188 C 202.590 164.267,204.816 162.034,221.969 156.751 C 222.795 156.496,224.645 155.933,226.080 155.498 C 235.214 152.734,238.643 151.075,243.410 147.116 C 250.010 141.634,254.190 135.085,257.818 124.537 C 258.906 121.373,259.170 120.516,259.166 120.155 C 259.165 120.041,258.105 122.074,256.810 124.673 C 252.155 134.016,249.182 138.009,243.047 143.165 C 234.974 149.947,225.526 153.053,209.331 154.247 C 204.674 154.590,187.997 154.707,183.990 154.424 C 174.258 153.738,166.088 152.032,161.515 149.731 C 156.814 147.366,151.101 142.663,147.366 138.083 C 145.759 136.113,145.759 136.113,146.613 137.461 C 153.283 147.998,160.027 152.450,175.337 156.425 C 187.240 159.515,190.621 161.071,193.690 164.870 C 195.598 167.233,196.014 168.896,196.128 174.611 C 196.449 190.703,193.957 197.311,185.965 201.559 C 182.046 203.642,178.565 204.087,172.228 203.314 C 155.015 201.214,133.527 191.984,118.964 180.436 C 107.567 171.398,99.342 161.779,92.850 149.896 C 87.552 140.198,83.603 128.396,81.859 117.047 C 81.267 113.195,81.539 103.509,82.441 96.269 C 82.842 93.058,82.834 92.601,82.397 93.742 C 82.165 94.347,82.108 94.670,82.280 94.404 C 82.369 94.266,82.382 94.266,82.392 94.404 C 82.399 94.490,82.441 94.443,82.487 94.301 C 82.555 94.087,82.572 94.078,82.579 94.249 C 82.584 94.363,82.542 94.526,82.487 94.611 C 82.398 94.750,82.386 94.750,82.383 94.611 C 82.381 94.473,82.369 94.473,82.280 94.611 C 82.166 94.788,82.161 94.768,82.128 93.995 C 82.113 93.621,82.056 93.414,81.960 93.382 C 81.881 93.356,81.690 93.208,81.536 93.055 L 81.257 92.776 81.141 93.305 M82.245 93.126 C 82.207 93.164,82.178 93.339,82.180 93.515 L 82.184 93.834 82.336 93.486 C 82.523 93.053,82.482 92.889,82.245 93.126 M315.420 135.119 C 315.366 135.487,315.392 135.518,315.533 135.253 C 315.588 135.151,315.596 135.006,315.550 134.932 C 315.494 134.842,315.451 134.904,315.420 135.119 M315.407 135.825 C 315.294 136.097,315.240 136.154,315.231 136.010 C 315.214 135.745,314.793 137.059,314.778 137.425 C 314.772 137.577,314.727 137.676,314.678 137.646 C 314.629 137.615,314.623 137.696,314.663 137.824 C 314.717 137.993,314.703 138.036,314.611 137.979 C 314.520 137.923,314.506 137.965,314.560 138.135 C 314.610 138.294,314.597 138.345,314.519 138.297 C 314.454 138.257,314.404 138.296,314.404 138.389 C 314.404 138.478,314.036 139.589,313.586 140.856 C 312.556 143.759,312.599 143.627,312.787 143.306 C 312.929 143.062,313.601 141.379,314.345 139.407 C 314.500 138.995,314.593 138.604,314.552 138.536 C 314.509 138.467,314.520 138.441,314.577 138.476 C 314.633 138.511,314.796 138.193,314.939 137.768 C 315.131 137.200,315.159 137.031,315.044 137.126 C 314.909 137.237,314.904 137.224,315.009 137.028 C 315.075 136.903,315.135 136.670,315.142 136.509 L 315.154 136.218 315.223 136.528 C 315.287 136.814,315.307 136.784,315.464 136.169 C 315.663 135.394,315.640 135.261,315.407 135.825 M180.704 198.818 C 180.721 198.827,180.660 198.863,180.569 198.898 C 180.473 198.935,180.430 198.918,180.467 198.859 C 180.502 198.803,180.481 198.756,180.421 198.756 C 180.360 198.756,180.311 198.704,180.311 198.640 C 180.311 198.563,180.371 198.570,180.492 198.663 C 180.592 198.739,180.687 198.809,180.704 198.818 "
              stroke="none" fill="#000000" fill-rule="evenodd"></path>
    </g>
</svg>