<?xml version="1.0" encoding="utf-8"?>
<!-- Generator: Adobe Illustrator 18.0.0, SVG Export Plug-In . SVG Version: 6.00 Build 0)  -->
<!DOCTYPE svg PUBLIC "-//W3C//DTD SVG 1.1//EN" "http://www.w3.org/Graphics/SVG/1.1/DTD/svg11.dtd">
<svg version="1.1" id="Layer_1" xmlns="http://www.w3.org/2000/svg" xmlns:xlink="http://www.w3.org/1999/xlink" x="0px" y="0px"
     viewBox="0 0 935.5 576.8" enable-background="new 0 0 935.5 576.8" xml:space="preserve">
<path fill-rule="evenodd" clip-rule="evenodd" fill="#EC1C24" d="M468.7,576.8c259.1-0.4,466.9-129.8,466.8-288.1
	C935.4,129.1,727.4,0.1,468.3,0l0.1,55.1c240.9,0.1,435.9,103.8,436,233.5c0.1,128.6-194.7,232.6-435.7,233L468.7,576.8z M467.6,0
	C209.5,0.2-0.1,129.6,0,289.4C0.2,447.8,209.9,577,468,576.8h0.7l0-55.1h-0.8C228.2,521.9,32.7,418,32.6,289.3
	c-0.1-129.9,195.2-234,434.9-234.2h0.8L468.3,0H467.6z"/>
    <polygon fill-rule="evenodd" clip-rule="evenodd" fill="#EC1C24" points="769.6,181 604.7,181.2 604.9,395.5 663.1,395.4 663,234.4
	727.1,234.4 744,253.9 744,342.1 675.5,342.2 675.5,395.4 773.1,395.3 802.2,395.3 802.1,219.2 "/>
    <polygon fill-rule="evenodd" clip-rule="evenodd" fill="#EC1C24" points="508.5,257.2 446.1,257.3 446.2,395.6 510.4,395.5
	510.3,308.5 559.2,308.5 582.6,286.8 582.5,181.2 582.5,181.2 521.9,181.2 518,181.2 518,181.2 518,248.3 "/>
    <polygon fill-rule="evenodd" clip-rule="evenodd" fill="#EC1C24" points="424.3,181.2 359.2,181.4 359.3,286.9 382.7,308.6
	433.8,308.5 433.8,257.3 424.3,248.4 "/>
    <path fill-rule="evenodd" clip-rule="evenodd" fill="#EC1C24" d="M337,214.7l-28.5-33.4l-73.5,0.1l0.1,52.4l46.7,0l0,38l-46.7,0
	l0.1,33.5l47,0l-0.1,38.1h-46.9l0,52.4l70.5-0.1l31.4-21.7l-0.1-71.7l-14.6-13.6l14.6-12.4L337,214.7z M235.1,181.4l-101.8,0.1
	l0.2,214.3l55.1,0l0-90.5l46.6-0.1l-0.1-33.5h-46.7v-38h46.7L235.1,181.4z M235.2,343.3l0,52.4l-34.3,0l0-52.4L235.2,343.3z"/>
</svg>
