<svg width="134.079" height="174.679" xmlns="http://www.w3.org/2000/svg">

    <g>
        <title>background</title>
        <rect fill="none" id="canvas_background" height="402" width="582" y="-1" x="-1"/>
    </g>
    <g>
        <title>Layer 1</title>
        <g id="svg_1" clip-rule="evenodd" fill-rule="evenodd">
            <path id="svg_2" fill="#59595b"
                  d="m67.064,104.175l0.704,0c14.2,-1.335 27.229,-6.594 37.839,-16.684c9.361,-8.902 15.669,-21.007 15.797,-34.781c0.199,-21.565 -12.776,-41.748 -40.745,-49.93l2.045,-1.706l0.306,0.09l0.803,0.237l0.841,0.257l0.864,0.277l0.892,0.297l0.915,0.319l0.93,0.342l0.97,0.366l0.98,0.39l1.004,0.416l1.021,0.442l1.03,0.47l1.058,0.498l1.056,0.527l1.085,0.558l1.079,0.588l1.082,0.621l1.097,0.653l1.096,0.688l1.108,0.722l1.107,0.759l1.092,0.795l0.396,0.295l0.395,0.3l0.408,0.304l0.392,0.31l0.396,0.314l0.396,0.318l0.385,0.324l0.391,0.328l0.396,0.334l0.396,0.338l0.391,0.345l0.385,0.349l0.383,0.355l0.395,0.36l0.38,0.366l0.384,0.371l0.384,0.377l0.377,0.382l0.386,0.389l0.37,0.394l0.38,0.4l0.369,0.406l0.371,0.412l0.367,0.417l0.368,0.425l0.355,0.43l0.358,0.437l0.358,0.443l0.354,0.45l0.358,0.456l0.343,0.462l0.344,0.469l0.521,0.732l0.521,0.745l0.5,0.758l0.496,0.771l0.484,0.786l0.469,0.798l0.46,0.812l0.445,0.826l0.434,0.842l0.421,0.856l0.404,0.871l0.395,0.886l0.371,0.902l0.356,0.917l0.345,0.933l0.327,0.949l0.311,0.966l0.291,0.982l0.279,1l0.254,1.017l0.228,1.034l0.217,1.052l0.193,1.069l0.178,1.087l0.154,1.106l0.125,1.125l0.116,1.144l0.075,1.162l0.063,1.182l0.042,1.201l0.01,1.221l-0.01,1.241l-0.014,0.637l-0.028,0.626l-0.025,0.616l-0.024,0.606l-0.039,0.597l-0.05,0.588l-0.05,0.58l-0.052,0.571l-0.063,0.565l-0.064,0.557l-0.079,0.55l-0.073,0.543l-0.089,0.539l-0.092,0.532l-0.099,0.528l-0.105,0.522l-0.1,0.52l-0.117,0.516l-0.11,0.512l-0.13,0.509l-0.125,0.507l-0.142,0.504l-0.139,0.504l-0.141,0.501l-0.155,0.501l-0.149,0.502l-0.166,0.501l-0.167,0.501l-0.166,0.503l-0.174,0.504l-0.181,0.506l-0.19,0.508l-0.51,1.306l-0.537,1.288l-0.585,1.271l-0.612,1.253l-0.636,1.236l-0.675,1.217l-0.714,1.199l-0.736,1.18l-0.763,1.161l-0.803,1.141l-0.83,1.122l-0.85,1.101l-0.879,1.081l-0.916,1.059l-0.929,1.039l-0.959,1.017l-0.979,0.995l-1.004,0.973l-1.033,0.95l-1.046,0.926l-1.066,0.904l-1.083,0.88l-1.107,0.855l-1.121,0.831l-1.145,0.808l-1.16,0.781l-1.169,0.756l-1.196,0.73l-1.199,0.704l-1.222,0.678l-1.225,0.651l-1.246,0.623l-0.941,0.457l-0.952,0.439l-0.959,0.423l-0.955,0.405l-0.953,0.389l-0.967,0.373l-0.958,0.355l-0.955,0.34l-0.954,0.323l-0.952,0.308l-0.955,0.291l-0.958,0.274l-0.941,0.259l-0.942,0.243l-0.941,0.228l-0.928,0.211l-0.931,0.196l-0.928,0.18l-0.917,0.165l-0.917,0.149l-0.904,0.135l-0.891,0.118l-0.891,0.104l-0.883,0.094l-0.881,0.075l-0.853,0.059l-0.856,0.044l-0.346,0.013l0,-5.866z"/>
            <path id="svg_3" fill="#808183"
                  d="m51.375,1.074l2.044,1.706c-27.968,8.182 -40.944,28.365 -40.745,49.93c0.127,13.774 6.436,25.879 15.797,34.781c10.61,10.09 23.638,15.349 37.839,16.684l0.704,0l0,5.865l-0.346,-0.013l-0.856,-0.044l-0.853,-0.059l-0.881,-0.075l-0.878,-0.088l-0.891,-0.104l-0.891,-0.118l-0.904,-0.135l-0.917,-0.149l-0.917,-0.165l-0.927,-0.18l-0.931,-0.196l-0.929,-0.211l-0.941,-0.228l-0.942,-0.243l-0.941,-0.259l-0.958,-0.274l-0.955,-0.291l-0.953,-0.308l-0.953,-0.323l-0.955,-0.34l-0.958,-0.355l-0.967,-0.373l-0.953,-0.389l-0.955,-0.405l-0.959,-0.423l-0.953,-0.439l-0.941,-0.457l-1.247,-0.623l-1.224,-0.651l-1.221,-0.678l-1.199,-0.704l-1.196,-0.73l-1.169,-0.756l-1.161,-0.781l-1.144,-0.808l-1.122,-0.831l-1.107,-0.855l-1.083,-0.88l-1.067,-0.904l-1.046,-0.926l-1.033,-0.95l-1.004,-0.973l-0.979,-0.995l-0.958,-1.017l-0.929,-1.039l-0.916,-1.059l-0.878,-1.081l-0.85,-1.101l-0.831,-1.122l-0.802,-1.141l-0.763,-1.161l-0.737,-1.18l-0.713,-1.199l-0.675,-1.217l-0.637,-1.236l-0.612,-1.253l-0.585,-1.271l-0.537,-1.288l-0.509,-1.306l-0.191,-0.508l-0.18,-0.506l-0.174,-0.506l-0.167,-0.503l-0.167,-0.501l-0.166,-0.501l-0.149,-0.502l-0.156,-0.501l-0.14,-0.501l-0.138,-0.504l-0.142,-0.504l-0.125,-0.509l-0.13,-0.509l-0.11,-0.512l-0.118,-0.516l-0.099,-0.52l-0.105,-0.522l-0.099,-0.528l-0.092,-0.532l-0.088,-0.539l-0.074,-0.543l-0.078,-0.55l-0.064,-0.557l-0.063,-0.565l-0.054,-0.571l-0.05,-0.58l-0.05,-0.588l-0.039,-0.597l-0.024,-0.606l-0.025,-0.616l-0.028,-0.626l-0.014,-0.637l-0.011,-1.241l0.011,-1.221l0.042,-1.201l0.063,-1.182l0.076,-1.162l0.116,-1.144l0.125,-1.125l0.154,-1.106l0.177,-1.087l0.194,-1.069l0.217,-1.052l0.228,-1.034l0.254,-1.017l0.279,-1l0.291,-0.982l0.311,-0.966l0.327,-0.949l0.345,-0.933l0.355,-0.917l0.371,-0.902l0.396,-0.886l0.404,-0.871l0.421,-0.856l0.433,-0.842l0.445,-0.825l0.46,-0.812l0.468,-0.798l0.484,-0.786l0.497,-0.771l0.5,-0.758l0.52,-0.745l0.521,-0.732l0.344,-0.469l0.342,-0.462l0.358,-0.456l0.354,-0.45l0.358,-0.443l0.358,-0.437l0.355,-0.43l0.369,-0.425l0.368,-0.417l0.371,-0.412l0.369,-0.406l0.379,-0.4l0.371,-0.394l0.385,-0.389l0.377,-0.382l0.385,-0.377l0.383,-0.371l0.38,-0.366l0.395,-0.36l0.382,-0.355l0.385,-0.349l0.392,-0.345l0.396,-0.338l0.396,-0.334l0.391,-0.328l0.384,-0.324l0.396,-0.318l0.396,-0.314l0.391,-0.31l0.408,-0.304l0.396,-0.3l0.396,-0.295l1.091,-0.795l1.108,-0.759l1.108,-0.722l1.096,-0.688l1.097,-0.654l1.082,-0.621l1.079,-0.588l1.085,-0.558l1.056,-0.527l1.058,-0.498l1.03,-0.47l1.021,-0.442l1.004,-0.416l0.981,-0.39l0.97,-0.366l0.93,-0.342l0.915,-0.319l0.891,-0.297l0.865,-0.277l0.841,-0.257l0.803,-0.237l0.304,-0.091z"/>
            <path id="svg_4" fill="#929496"
                  d="m67.064,110.123l0.043,0c7.698,-0.289 16.738,-2.409 25.401,-6.651c13.315,-6.52 24.761,-17.731 29.97,-31.763c2.024,-5.445 3.183,-10.43 3.313,-17.287c0.265,-13.367 -3.848,-23.271 -9.487,-31.025c-3.681,-5.047 -7.907,-8.954 -12.133,-12.078c-7.831,-5.795 -15.866,-8.724 -21.39,-10.309l0.03,-0.025l3.05,-0.985c0.031,-0.01 15.839,3.328 28.505,15.671c9.243,9.008 16.877,23.313 15.756,42.901c-0.955,16.705 -10.195,33.18 -25.192,44.188c-10.041,7.37 -22.632,12.325 -37.157,13.14l-0.708,0l0,-5.777l-0.001,0z"/>
            <path id="svg_5" fill="#bbbcbf"
                  d="m48.217,0l3.05,0.984l0.03,0.025c-5.523,1.585 -13.558,4.515 -21.39,10.309c-4.225,3.124 -8.452,7.031 -12.133,12.078c-5.639,7.754 -9.751,17.658 -9.486,31.025c0.13,6.857 1.289,11.842 3.313,17.287c5.209,14.032 16.653,25.246 29.97,31.763c8.663,4.245 17.703,6.362 25.401,6.651l0.043,0l0,5.777l-0.708,0c-14.525,-0.814 -27.117,-5.77 -37.157,-13.14c-14.998,-11.007 -24.238,-27.482 -25.194,-44.187c-1.12,-19.588 6.514,-33.894 15.756,-42.901c12.667,-12.343 28.474,-15.681 28.505,-15.671z"/>
            <path id="svg_6"
                  d="m69.545,89.474l0.531,-0.153l0.564,-0.162l0.599,-0.17l0.634,-0.18l0.664,-0.189l0.694,-0.197l0.721,-0.206l0.744,-0.214l0.767,-0.22l0.786,-0.228l0.804,-0.235l0.818,-0.24l0.832,-0.246l0.842,-0.251l0.851,-0.257l0.856,-0.261l0.859,-0.265l0.862,-0.269l0.86,-0.272l0.858,-0.277l0.852,-0.278l0.845,-0.281l0.835,-0.283l0.823,-0.286l0.808,-0.286l0.792,-0.288l0.775,-0.287l0.755,-0.29l0.73,-0.289l0.706,-0.289l0.681,-0.29l0.649,-0.289l0.349,-0.16l0.338,-0.162l0.327,-0.163l0.317,-0.164l0.307,-0.165l0.297,-0.166l0.284,-0.166l0.275,-0.166l0.262,-0.168l0.252,-0.167l0.241,-0.17l0.229,-0.17l0.218,-0.171l0.208,-0.175l0.195,-0.178l0.179,-0.176l0.216,-0.23l0.205,-0.229l0.196,-0.232l0.189,-0.237l0.182,-0.241l0.175,-0.247l0.167,-0.252l0.16,-0.258l0.151,-0.263l0.145,-0.268l0.137,-0.274l0.129,-0.28l0.122,-0.285l0.115,-0.292l0.106,-0.296l0.102,-0.303l0.094,-0.311l0.087,-0.315l0.081,-0.321l0.077,-0.331l0.07,-0.337l0.065,-0.345l0.061,-0.353l0.057,-0.362l0.051,-0.372l0.048,-0.38l0.043,-0.39l0.041,-0.401l0.037,-0.412l0.034,-0.424l0.031,-0.434l0.029,-0.445l1.305,-21.717l7.222,-12.273l-43.111,-4.832l-43.11,4.832l7.222,12.273l1.304,21.717l0.028,0.445l0.032,0.434l0.034,0.424l0.037,0.412l0.04,0.401l0.044,0.39l0.048,0.38l0.052,0.372l0.056,0.362l0.06,0.353l0.066,0.345l0.07,0.338l0.077,0.331l0.081,0.32l0.088,0.315l0.094,0.311l0.101,0.304l0.107,0.296l0.115,0.291l0.121,0.285l0.13,0.28l0.136,0.274l0.145,0.268l0.151,0.263l0.16,0.258l0.168,0.253l0.174,0.246l0.182,0.242l0.19,0.236l0.196,0.232l0.205,0.229l0.216,0.23l0.179,0.176l0.196,0.178l0.207,0.175l0.218,0.171l0.229,0.17l0.241,0.17l0.252,0.167l0.263,0.168l0.274,0.166l0.284,0.166l0.297,0.166l0.307,0.165l0.317,0.164l0.328,0.163l0.338,0.162l0.348,0.16l0.649,0.289l0.68,0.29l0.707,0.289l0.73,0.289l0.754,0.29l0.775,0.287l0.792,0.288l0.809,0.286l0.823,0.286l0.835,0.283l0.844,0.281l0.852,0.278l0.858,0.277l0.861,0.272l0.861,0.269l0.859,0.265l0.857,0.261l0.85,0.257l0.842,0.251l0.832,0.246l0.819,0.24l0.803,0.235l0.787,0.228l0.766,0.22l0.744,0.214l0.722,0.206l0.693,0.197l0.665,0.189l0.634,0.18l0.599,0.17l0.563,0.162l0.532,0.153l2.505,0.701l2.506,-0.701z"
                  fill="#a6a8aa"/>
            <path id="svg_7" fill="#bbbcbf"
                  d="m53.28,2.822l0.406,0.34c-27.421,8.057 -40.143,27.93 -39.946,49.164c0.125,13.563 6.309,25.482 15.487,34.248c10.402,9.935 23.176,15.112 37.098,16.428l1.429,0c13.922,-1.315 26.695,-6.493 37.098,-16.428c9.178,-8.766 15.362,-20.685 15.487,-34.248c0.196,-21.234 -12.526,-41.107 -39.947,-49.164l0.407,-0.34c27.871,8.208 40.805,28.359 40.605,49.888c-0.128,13.774 -6.436,25.879 -15.797,34.781c-10.61,10.09 -23.639,15.349 -37.839,16.684l-1.458,0c-14.201,-1.335 -27.229,-6.594 -37.839,-16.684c-9.361,-8.902 -15.669,-21.007 -15.796,-34.781c-0.199,-21.529 12.734,-41.68 40.605,-49.888z"/>
            <path id="svg_8" fill="#e6e6e7"
                  d="m15.796,89.325c7.061,1.629 9.886,3.188 14.468,7.359c0.016,0.016 -9.492,0.561 -14.468,-7.359zm-0.027,-8.132c-0.992,-0.461 -8.381,-3.155 -10.211,-13.344c1.862,1.936 3.716,2.958 5.849,5.702c1.322,1.702 2.754,4.148 4.362,7.642zm-7.945,-24.072c-0.568,-0.9 -5.13,-7.045 -1.96,-16.846c2.209,4.885 2.379,10.357 1.96,16.846zm4.283,-25.035c-0.062,-0.946 -1.559,-6.946 5.625,-14.007c-0.517,5.733 -2.69,9.033 -5.625,14.007zm12.336,-16.805c0.319,-0.813 0.802,-5.655 10.004,-9.858c-2.661,4.833 -5.801,6.362 -10.004,9.858z"/>
            <path id="svg_9" fill="#434244" d="m35.16,8.011c-0.012,0 8.118,-5.431 14.748,-4.417c-2.127,1.126 -9.729,4.217 -14.748,4.417z"/>
            <path id="svg_10" d="m9.619,41.95c1.379,-1.492 4.919,-3.705 8.385,-12.974c-7.553,5.588 -7.176,8.335 -8.385,12.974zm7.922,-17.867c1.442,-0.732 6.734,-2.924 10.807,-8.369c-6.878,1.868 -8.514,5.178 -10.807,8.369z"/>
            <path id="svg_11" fill="#e6e6e7"
                  d="m11.084,69.902c0.672,-1.962 2.618,-5.322 1.165,-16.855c-4.11,8.224 -2.464,12.307 -1.165,16.855zm9.604,17.054c0.03,-1.951 0.814,-5.549 -3.991,-15.263c-1.319,8.596 1.426,11.668 3.991,15.263zm15.901,13.581c-0.683,-1.884 -1.485,-7.175 -9.294,-13.577c1.614,8.627 5.584,10.826 9.294,13.577zm20.294,8.079c-0.676,-0.979 -4.151,-7.246 -14.071,-10.682c4.474,6.833 9.086,9.351 14.071,10.682zm-8.592,-1.976c-1.025,-0.53 -8.356,-4.482 -17.325,-2.75c5.346,3.82 11.153,3.53 17.325,2.75zm18.039,3.904c-1.178,-0.245 -10.121,-2.597 -18.392,1.739c8.14,2.394 12.308,0.615 18.392,-1.739z"/>
            <path id="svg_12"
                  d="m66.33,110.544c-1.178,-0.245 -10.117,-2.596 -18.387,1.736c4.743,-0.023 15.433,-1.167 18.375,-1.731a0.061,0.061 0 0 0 0.012,-0.005zm-18.04,-3.904c-1.027,-0.532 -8.357,-4.482 -17.324,-2.75l0.003,0.002c2.136,0.551 5.449,1.213 8.624,1.805c0.941,0.175 6.364,0.772 8.697,0.943zm-32.494,-17.315c7.06,1.629 9.885,3.188 14.465,7.357c-7.816,-2.578 -13.086,-5.859 -14.465,-7.357zm-10.23,-21.468c1.86,1.93 3.71,2.953 5.84,5.693c1.244,1.601 2.585,3.859 4.077,7.028c-4.688,-4.44 -6.98,-6.759 -9.917,-12.721zm15.122,19.096c0.031,-1.952 0.811,-5.55 -3.989,-15.254c0.072,1.612 0.432,4.436 1.4,7.964c0.606,2.2 1.494,4.536 2.589,7.29zm-9.604,-17.053c0.672,-1.962 2.616,-5.323 1.165,-16.846c-0.445,1.299 -1.128,4.481 -1.341,8.946c-0.111,2.322 0,4.878 0.176,7.9zm25.505,30.637c-0.683,-1.884 -1.485,-7.175 -9.293,-13.577c0.478,1.346 1.802,4.148 4.205,7.511c1.349,1.888 3.054,3.809 5.088,6.066c-0.001,0 -0.001,0 0,0zm-30.724,-60.259c2.137,4.727 2.364,10.003 1.997,16.22c-1.214,-5.203 -2.219,-11.145 -1.997,-16.22z"/>
            <path id="svg_13" fill="#e6e6e7"
                  d="m9.619,41.95c1.379,-1.492 4.918,-3.705 8.384,-12.971c-4.999,4.936 -6.183,8.069 -8.145,11.998c-0.074,0.316 -0.152,0.639 -0.239,0.973zm7.922,-17.867c1.441,-0.731 6.726,-2.92 10.796,-8.354c-5.886,2.646 -7.441,4.812 -10.173,7.467c-0.206,0.297 -0.411,0.592 -0.623,0.887z"/>
            <path id="svg_14"
                  d="m56.883,108.616c-0.676,-0.979 -4.151,-7.246 -14.071,-10.682l0.01,0.016c1.297,1.371 4.201,3.93 7.604,6.498c1.809,1.364 3.974,2.671 6.45,4.166l0.007,0.002zm-44.776,-76.53l0,-0.01c1.182,-4.485 2.103,-7.879 5.622,-13.993l0.004,-0.003c-0.518,5.732 -2.691,9.032 -5.626,14.006zm12.336,-16.805l0,-0.001c2.58,-3.309 4.891,-5.692 9.999,-9.847c-2.66,4.824 -5.798,6.354 -9.999,9.848z"/>
            <path id="svg_15" fill="#e6e6e7"
                  d="m35.16,8.011l0.004,-0.003c4.39,-1.964 7.444,-3.413 14.74,-4.413c-2.13,1.128 -9.727,4.216 -14.744,4.416zm82.84,81.314c-7.062,1.629 -9.887,3.188 -14.469,7.359c-0.016,0.016 9.492,0.562 14.469,-7.359zm0.027,-8.132c0.992,-0.461 8.381,-3.155 10.211,-13.344c-1.862,1.936 -3.716,2.958 -5.85,5.702c-1.322,1.702 -2.753,4.148 -4.361,7.642zm7.945,-24.072c0.567,-0.9 5.13,-7.045 1.96,-16.846c-2.209,4.885 -2.379,10.357 -1.96,16.846zm-4.284,-25.035c0.062,-0.946 1.56,-6.946 -5.625,-14.007c0.518,5.733 2.69,9.033 5.625,14.007zm-12.335,-16.805c-0.319,-0.813 -0.802,-5.655 -10.005,-9.858c2.662,4.833 5.801,6.362 10.005,9.858z"/>
            <path id="svg_16" fill="#434244" d="m98.636,8.011c0.013,0 -8.117,-5.431 -14.747,-4.417c2.125,1.126 9.728,4.217 14.747,4.417z"/>
            <path id="svg_17" d="m124.177,41.95c-1.379,-1.492 -4.919,-3.705 -8.385,-12.974c7.553,5.588 7.176,8.335 8.385,12.974zm-7.922,-17.867c-1.442,-0.732 -6.735,-2.924 -10.808,-8.369c6.879,1.868 8.514,5.178 10.808,8.369z"/>
            <path id="svg_18" fill="#e6e6e7"
                  d="m122.712,69.902c-0.672,-1.962 -2.618,-5.322 -1.165,-16.855c4.11,8.224 2.464,12.307 1.165,16.855zm-9.605,17.054c-0.029,-1.951 -0.814,-5.549 3.991,-15.263c1.319,8.596 -1.426,11.668 -3.991,15.263zm-15.9,13.581c0.682,-1.884 1.484,-7.175 9.293,-13.577c-1.613,8.627 -5.584,10.826 -9.293,13.577zm-20.294,8.079c0.676,-0.979 4.15,-7.246 14.071,-10.682c-4.475,6.833 -9.088,9.351 -14.071,10.682zm8.592,-1.976c1.025,-0.53 8.356,-4.482 17.325,-2.75c-5.346,3.82 -11.153,3.53 -17.325,2.75zm-18.039,3.904c1.178,-0.245 10.121,-2.597 18.392,1.739c-8.141,2.394 -12.308,0.615 -18.392,-1.739z"/>
            <path id="svg_19"
                  d="m67.466,110.544c1.177,-0.245 10.117,-2.596 18.387,1.736c-4.743,-0.023 -15.433,-1.167 -18.376,-1.731l-0.011,-0.005zm18.04,-3.904c1.027,-0.532 8.357,-4.482 17.324,-2.75l-0.003,0.002c-2.137,0.551 -5.449,1.213 -8.624,1.805c-0.941,0.175 -6.364,0.772 -8.697,0.943zm32.494,-17.315c-7.06,1.629 -9.885,3.188 -14.466,7.357c7.816,-2.578 13.086,-5.859 14.466,-7.357zm10.229,-21.468c-1.859,1.93 -3.71,2.953 -5.841,5.693c-1.243,1.601 -2.584,3.859 -4.076,7.028c4.689,-4.44 6.981,-6.759 9.917,-12.721zm-15.122,19.096c-0.03,-1.952 -0.811,-5.55 3.988,-15.254c-0.071,1.612 -0.431,4.436 -1.4,7.964c-0.604,2.2 -1.493,4.536 -2.588,7.29zm9.604,-17.053c-0.672,-1.962 -2.615,-5.323 -1.165,-16.846c0.445,1.299 1.128,4.481 1.342,8.946c0.111,2.322 0,4.878 -0.177,7.9zm-25.504,30.637c0.682,-1.884 1.484,-7.175 9.293,-13.577c-0.478,1.346 -1.803,4.148 -4.205,7.511c-1.349,1.888 -3.055,3.809 -5.088,6.066zm30.723,-60.259c-2.137,4.727 -2.363,10.003 -1.996,16.22c1.213,-5.203 2.218,-11.145 1.996,-16.22z"/>
            <path id="svg_20" fill="#e6e6e7"
                  d="m124.177,41.95c-1.379,-1.492 -4.918,-3.705 -8.384,-12.971c4.999,4.936 6.183,8.069 8.145,11.998c0.074,0.316 0.152,0.639 0.239,0.973zm-7.922,-17.867c-1.441,-0.731 -6.726,-2.92 -10.797,-8.354c5.886,2.646 7.441,4.812 10.173,7.467c0.206,0.297 0.412,0.592 0.624,0.887z"/>
            <path id="svg_21"
                  d="m76.913,108.616c0.676,-0.979 4.15,-7.246 14.071,-10.682l-0.011,0.016c-1.297,1.371 -4.201,3.93 -7.604,6.498c-1.809,1.364 -3.975,2.671 -6.45,4.166l-0.006,0.002zm44.775,-76.53l0.001,-0.01c-1.182,-4.485 -2.103,-7.879 -5.623,-13.993l-0.003,-0.003c0.518,5.732 2.69,9.032 5.625,14.006zm-12.335,-16.805l-0.001,-0.001c-2.58,-3.309 -4.892,-5.692 -9.998,-9.847c2.66,4.824 5.798,6.354 9.999,9.848z"/>
            <path id="svg_22" fill="#e6e6e7"
                  d="m98.636,8.011l-0.004,-0.003c-4.39,-1.964 -7.445,-3.413 -14.74,-4.413c2.129,1.128 9.727,4.216 14.744,4.416zm-31.654,22.055l-42.821,4.799l7.13,12.115l1.305,21.75l0.029,0.445l0.031,0.432l0.034,0.423l0.037,0.411l0.041,0.399l0.043,0.389l0.047,0.378l0.052,0.37l0.056,0.359l0.059,0.351l0.066,0.342l0.07,0.335l0.076,0.328l0.08,0.318l0.087,0.312l0.093,0.307l0.1,0.301l0.106,0.292l0.113,0.287l0.12,0.282l0.127,0.275l0.135,0.271l0.143,0.265l0.149,0.257l0.158,0.256l0.165,0.248l0.172,0.243l0.179,0.239l0.188,0.233l0.193,0.23l0.203,0.225l0.213,0.227l0.175,0.173l0.191,0.173l0.204,0.172l0.214,0.169l0.226,0.168l0.238,0.167l0.249,0.166l0.26,0.165l0.272,0.166l0.282,0.164l0.295,0.165l0.305,0.163l0.316,0.164l0.325,0.162l0.336,0.161l0.346,0.159l0.648,0.288l0.678,0.289l0.706,0.288l0.728,0.289l0.753,0.289l0.772,0.287l0.792,0.288l0.808,0.286l0.822,0.285l0.834,0.282l0.844,0.281l0.851,0.279l0.857,0.276l0.86,0.272l0.861,0.269l0.859,0.265l0.856,0.261l0.85,0.256l0.842,0.252l0.831,0.245l0.818,0.241l0.804,0.233l0.786,0.228l0.766,0.22l0.745,0.215l0.72,0.205l0.694,0.197l0.665,0.19l0.633,0.18l0.6,0.17l0.564,0.162l0.531,0.152l2.409,0.675l0,-59.946z"/>
            <path id="svg_23"
                  d="m69.506,89.337l0.531,-0.152l0.564,-0.162l0.599,-0.17l0.634,-0.18l0.664,-0.19l0.694,-0.197l0.721,-0.205l0.744,-0.215l0.766,-0.22l0.786,-0.228l0.804,-0.233l0.818,-0.241l0.831,-0.245l0.842,-0.252l0.85,-0.256l0.856,-0.261l0.859,-0.265l0.861,-0.269l0.86,-0.272l0.857,-0.276l0.851,-0.279l0.845,-0.281l0.834,-0.282l0.822,-0.285l0.808,-0.286l0.791,-0.288l0.773,-0.287l0.753,-0.289l0.729,-0.289l0.705,-0.288l0.678,-0.289l0.649,-0.288l0.345,-0.159l0.336,-0.162l0.326,-0.161l0.315,-0.164l0.305,-0.163l0.295,-0.165l0.282,-0.164l0.272,-0.166l0.26,-0.165l0.249,-0.166l0.238,-0.167l0.226,-0.168l0.215,-0.169l0.203,-0.172l0.191,-0.173l0.175,-0.173l0.214,-0.227l0.201,-0.225l0.195,-0.23l0.187,-0.234l0.179,-0.238l0.172,-0.243l0.165,-0.249l0.158,-0.255l0.149,-0.257l0.143,-0.265l0.135,-0.271l0.127,-0.275l0.12,-0.282l0.113,-0.288l0.105,-0.292l0.1,-0.3l0.094,-0.307l0.087,-0.312l0.08,-0.319l0.075,-0.328l0.07,-0.334l0.066,-0.342l0.059,-0.351l0.056,-0.359l0.052,-0.37l0.047,-0.378l0.044,-0.389l0.041,-0.4l0.036,-0.41l0.034,-0.423l0.031,-0.432l0.028,-0.445l1.307,-21.75l7.129,-12.115l-42.821,-4.799l0,59.946l2.41,-0.675zm-2.524,-57.845l-40.491,4.538l6.194,10.524l1.326,22.087c0.284,4.726 0.959,7.051 2.964,9.128c0.677,0.702 2.031,1.551 3.805,2.356c6.523,2.963 18.759,6.283 24.179,7.848l2.023,0.566l0,-57.047z"
                  fill="#d0d1d3"/>
            <path id="svg_24" fill="#a6a8aa" d="m69.119,87.974c5.42,-1.564 17.655,-4.884 24.181,-7.848c1.773,-0.805 3.126,-1.654 3.804,-2.356c2.005,-2.077 2.68,-4.402 2.964,-9.128l1.326,-22.087l6.193,-10.524l-40.491,-4.538l0,57.047l2.023,-0.566z"/>
            <path id="svg_25" fill="#808183"
                  d="m67.039,84.061l-2.021,-0.423c-12.27,-2.56 -10.863,-1.954 -23.285,-5.613c-4.622,-1.361 -5.125,-3.864 -5.282,-8.951l-0.49,-23.105l-4.383,-7.883l70.922,0l-4.383,7.883l-0.49,23.105c-0.156,5.087 -0.659,7.589 -5.281,8.951c-12.422,3.659 -11.015,3.053 -23.285,5.613l-2.022,0.423z"/>
            <path id="svg_26" d="m97.417,66.95l-0.045,2.117l-0.034,0.92l-0.048,0.86l-0.066,0.8l-0.086,0.704l-29.985,0l0,-2.588l1.136,0l0,-0.225l-1.136,0l0,-2.588l30.264,0zm-61.082,-15.389l-0.114,-5.401l30.705,0l0,5.401l-30.591,0z"/>
            <path id="svg_27"
                  d="m97.101,72.577l-0.087,0.502l-0.155,0.634l-0.191,0.584l-0.235,0.534l-0.284,0.491l-0.337,0.449l-0.398,0.412l-0.466,0.378l-0.54,0.348l-0.622,0.318l-0.71,0.29l-0.806,0.264l-1.122,0.33l-1.048,0.307l-0.978,0.286l-0.911,0.263l-0.851,0.244l-0.795,0.226l-0.744,0.209l-0.697,0.194l-0.657,0.18l-0.621,0.167l-0.591,0.155l-0.564,0.145l-0.545,0.137l-0.527,0.129l-0.518,0.123l-0.512,0.119l-0.512,0.116l-0.516,0.114l-0.528,0.113l-0.541,0.114l-0.561,0.117l-0.586,0.12l-0.616,0.125l-0.651,0.132l-0.691,0.139l-0.737,0.148l-0.786,0.159l-0.841,0.17l-0.901,0.184l-0.966,0.197l-1.036,0.214l-1.111,0.231l-1.856,0.388l0,-11.199l29.948,0zm0.472,-12.981l-0.151,7.127l-30.269,0l0,-7.127l30.42,0zm-61.357,-13.662l-0.001,-0.034l-4.203,-7.559l34.914,0l0,7.593l-30.71,0zm0.285,13.435l-0.161,-7.582l30.586,0l0,7.582l-30.425,0z"
                  fill="#d4a950"/>
            <path id="svg_28"
                  d="m67.153,55.795l0,-3.24l15.405,0l0,3.24l-15.405,0zm32.915,-13.86l-1.801,3.241l-15.483,0l0,-3.241l17.284,0zm-33.142,21.01l0,3.241l-15.405,0l0,-3.241l15.405,0zm-27.725,13.661l-0.071,-0.045l-0.465,-0.378l-0.398,-0.412l-0.337,-0.449l-0.284,-0.491l-0.235,-0.534l-0.192,-0.584l-0.084,-0.347l14.159,0l0,3.24l-12.093,0z"
                  fill="#3a529a"/>
            <path id="svg_29"
                  d="m67.153,52.328l0,-3.356l15.405,0l0,3.356l-15.405,0zm15.405,7.041l-15.405,0l0,-3.347l15.405,0l0,3.347zm15.583,-13.967l-0.278,0.498l-0.06,2.846l-15.019,0l0,-3.344l15.357,0zm-15.357,-7.061l19.282,0l-1.872,3.367l-17.41,0l0,-3.367zm-15.858,28.072l0,3.124l-15.405,0l0,-3.124l15.405,0zm-15.405,-6.817l15.405,0l0,3.122l-15.405,0l0,-3.122zm-14.441,13.543l-0.015,-0.06l-0.12,-0.688l-0.09,-0.744l-0.066,-0.8l-0.048,-0.86l-0.008,-0.223l14.561,0l0,3.375l-14.214,0zm14.214,7.324l-0.47,-0.121l-0.591,-0.155l-0.621,-0.167l-0.657,-0.18l-0.698,-0.194l-0.744,-0.209l-0.794,-0.226l-0.851,-0.244l-0.911,-0.263l-0.978,-0.286l-1.048,-0.307l-1.122,-0.33l-0.807,-0.264l-0.71,-0.29l-0.621,-0.318l-0.118,-0.076l11.741,0l0,3.63z"
                  fill="#bbbcbf"/>
            <path id="svg_30"
                  d="m97.799,48.972l-0.221,10.397l-14.794,0l0,-10.397l15.015,0zm-30.646,-10.631l15.405,0l0,10.405l-15.405,0l0,-10.405zm-30.429,31.196l-0.017,-0.47l-0.201,-9.471l14.788,0l0,9.941l-14.57,0zm30.202,14.239l-1.856,-0.388l-1.111,-0.231l-1.036,-0.214l-0.966,-0.197l-0.902,-0.184l-0.841,-0.17l-0.786,-0.159l-0.736,-0.148l-0.691,-0.139l-0.65,-0.132l-0.617,-0.125l-0.586,-0.12l-0.562,-0.117l-0.541,-0.114l-0.526,-0.113l-0.517,-0.114l-0.512,-0.116l-0.512,-0.119l-0.518,-0.123l-0.528,-0.129l-0.411,-0.103l0,-10.757l15.405,0l0,14.012z"
                  fill="#c03b35"/>
            <path id="svg_31"
                  d="m69.46,89.173l0.53,-0.152l0.564,-0.162l0.599,-0.17l0.634,-0.18l0.665,-0.189l0.694,-0.197l0.72,-0.206l0.744,-0.214l0.766,-0.221l0.786,-0.226l0.803,-0.235l0.818,-0.24l0.831,-0.245l0.842,-0.252l0.849,-0.256l0.855,-0.261l0.859,-0.265l0.86,-0.268l0.859,-0.273l0.857,-0.275l0.85,-0.278l0.843,-0.281l0.833,-0.282l0.821,-0.285l0.807,-0.285l0.79,-0.287l0.772,-0.287l0.751,-0.288l0.727,-0.288l0.703,-0.288l0.676,-0.288l0.646,-0.287l0.344,-0.158l0.334,-0.161l0.322,-0.16l0.314,-0.162l0.302,-0.162l0.293,-0.164l0.279,-0.162l0.269,-0.164l0.257,-0.164l0.245,-0.163l0.236,-0.165l0.221,-0.165l0.211,-0.166l0.199,-0.168l0.186,-0.169l0.17,-0.168l0.21,-0.223l0.199,-0.222l0.192,-0.226l0.183,-0.23l0.176,-0.234l0.17,-0.239l0.162,-0.245l0.155,-0.25l0.147,-0.253l0.139,-0.26l0.132,-0.266l0.126,-0.271l0.118,-0.277l0.112,-0.284l0.103,-0.288l0.099,-0.295l0.092,-0.304l0.086,-0.308l0.08,-0.315l0.074,-0.324l0.069,-0.331l0.065,-0.339l0.059,-0.348l0.056,-0.357l0.051,-0.368l0.048,-0.376l0.043,-0.386l0.04,-0.398l0.036,-0.408l0.034,-0.421l0.031,-0.432l0.029,-0.444l1.309,-21.79l7.014,-11.918l-1.864,0.931l-6.266,10.647l-1.325,22.059l-0.029,0.438l-0.029,0.423l-0.034,0.41l-0.035,0.397l-0.039,0.386l-0.041,0.373l-0.046,0.361l-0.048,0.35l-0.054,0.339l-0.056,0.33l-0.061,0.319l-0.064,0.31l-0.07,0.3l-0.073,0.291l-0.079,0.283l-0.083,0.276l-0.089,0.266l-0.095,0.261l-0.099,0.255l-0.105,0.245l-0.111,0.241l-0.117,0.235l-0.123,0.229l-0.13,0.224l-0.137,0.22l-0.143,0.216l-0.149,0.211l-0.156,0.208l-0.164,0.204l-0.171,0.202l-0.179,0.2l-0.186,0.198l-0.138,0.136l-0.154,0.14l-0.168,0.143l-0.183,0.143l-0.198,0.147l-0.21,0.148l-0.225,0.149l-0.237,0.152l-0.25,0.151l-0.261,0.153l-0.276,0.154l-0.285,0.153l-0.298,0.153l-0.308,0.154l-0.318,0.152l-0.329,0.152l-0.631,0.281l-0.66,0.281l-0.691,0.282l-0.715,0.283l-0.74,0.284l-0.762,0.284l-0.781,0.284l-0.799,0.282l-0.814,0.282l-0.826,0.28l-0.838,0.279l-0.845,0.276l-0.851,0.275l-0.855,0.27l-0.856,0.267l-0.855,0.264l-0.852,0.26l-0.846,0.255l-0.839,0.251l-0.828,0.245l-0.817,0.239l-0.8,0.234l-0.784,0.227l-0.765,0.22l-0.743,0.213l-0.719,0.205l-0.693,0.197l-0.664,0.189l-0.634,0.181l-0.601,0.171l-0.565,0.161l-0.528,0.152l-2.111,0.591l-2.11,-0.591l-0.529,-0.152l-0.564,-0.161l-0.601,-0.171l-0.634,-0.181l-0.664,-0.189l-0.694,-0.197l-0.719,-0.205l-0.743,-0.213l-0.764,-0.22l-0.785,-0.227l-0.8,-0.234l-0.817,-0.239l-0.828,-0.245l-0.839,-0.251l-0.845,-0.255l-0.853,-0.26l-0.854,-0.264l-0.856,-0.267l-0.855,-0.27l-0.852,-0.275l-0.845,-0.276l-0.837,-0.279l-0.826,-0.28l-0.815,-0.282l-0.798,-0.282l-0.781,-0.284l-0.763,-0.284l-0.739,-0.284l-0.716,-0.283l-0.69,-0.282l-0.66,-0.281l-0.63,-0.281l-0.329,-0.151l-0.319,-0.153l-0.308,-0.154l-0.298,-0.153l-0.285,-0.153l-0.276,-0.154l-0.261,-0.153l-0.25,-0.151l-0.237,-0.152l-0.225,-0.149l-0.21,-0.148l-0.198,-0.147l-0.182,-0.143l-0.168,-0.143l-0.155,-0.14l-0.138,-0.136l-0.186,-0.198l-0.179,-0.2l-0.171,-0.202l-0.164,-0.204l-0.156,-0.208l-0.15,-0.211l-0.142,-0.215l-0.137,-0.221l-0.13,-0.224l-0.123,-0.229l-0.117,-0.235l-0.112,-0.241l-0.105,-0.246l-0.099,-0.253l-0.094,-0.261l-0.09,-0.267l-0.083,-0.276l-0.079,-0.283l-0.073,-0.29l-0.069,-0.301l-0.065,-0.31l-0.061,-0.319l-0.056,-0.33l-0.054,-0.339l-0.048,-0.349l-0.046,-0.363l-0.041,-0.372l-0.039,-0.386l-0.036,-0.397l-0.033,-0.41l-0.03,-0.423l-0.029,-0.438l-1.324,-22.059l-6.264,-10.646l-1.865,-0.932l7.014,11.918l1.308,21.79l0.029,0.444l0.03,0.432l0.034,0.421l0.037,0.409l0.041,0.397l0.042,0.386l0.048,0.376l0.051,0.368l0.056,0.357l0.059,0.348l0.065,0.339l0.069,0.332l0.075,0.324l0.079,0.314l0.086,0.308l0.092,0.304l0.099,0.296l0.104,0.288l0.111,0.283l0.118,0.277l0.126,0.271l0.132,0.266l0.14,0.26l0.147,0.253l0.155,0.251l0.162,0.245l0.17,0.238l0.176,0.234l0.184,0.23l0.191,0.226l0.199,0.222l0.21,0.223l0.169,0.168l0.187,0.169l0.199,0.168l0.21,0.166l0.223,0.165l0.234,0.165l0.246,0.163l0.257,0.164l0.269,0.164l0.279,0.162l0.293,0.164l0.302,0.162l0.314,0.162l0.322,0.16l0.334,0.161l0.345,0.158l0.645,0.287l0.675,0.288l0.704,0.288l0.727,0.288l0.751,0.288l0.771,0.287l0.79,0.287l0.807,0.285l0.821,0.285l0.833,0.282l0.843,0.281l0.85,0.278l0.857,0.275l0.859,0.273l0.861,0.268l0.858,0.265l0.855,0.261l0.85,0.256l0.841,0.252l0.831,0.245l0.818,0.24l0.804,0.235l0.785,0.226l0.766,0.221l0.744,0.214l0.721,0.206l0.693,0.197l0.665,0.189l0.634,0.18l0.599,0.17l0.564,0.162l0.531,0.152l2.42,0.678l2.421,-0.678z"
                  fill="#6d6e70"/>
        </g>
    </g>
</svg>