<svg width="789.247" height="1096.322" xmlns="http://www.w3.org/2000/svg" xmlns:xlink="http://www.w3.org/1999/xlink">
    <g>
        <title>background</title>
        <rect fill="none" id="canvas_background" height="402" width="582" y="-1" x="-1"/>
    </g>
    <g>
        <title>Layer 1</title>
        <g id="svg_1" transform="matrix(1.32585,0,0,-1.30221,-194.163,651.935) ">
            <defs>
                <path d="m-96.986,-127.216l789.247,0l0,1096.322l-789.247,0l0,-1096.322z" id="a"/>
                <linearGradient y2="-0.324442" x2="-0.247637" y1="0.984055" x1="0.94024" id="c">
                    <stop stop-color="#c7d6ee" offset="0"/>
                    <stop stop-color="#91afc8" offset="0.185"/>
                    <stop stop-color="#002334" offset="1"/>
                </linearGradient>
                <linearGradient y2="-9529.993383" x2="-2822.467934" y1="-9536.27749" x1="-2823.141884" id="f">
                    <stop stop-color="#e1e8f5" offset="0"/>
                    <stop stop-color="#92a5c1" offset="0.899"/>
                    <stop stop-color="#476886" offset="0.955"/>
                    <stop stop-color="#e1e8f5" offset="1"/>
                </linearGradient>
                <linearGradient y2="5.182397" x2="0.942632" y1="-2.075789" x1="0.257384" id="g">
                    <stop stop-color="#e1e8f5" offset="0"/>
                    <stop stop-color="#476886" offset="0.039"/>
                    <stop stop-color="#92a5c1" offset="0.09"/>
                    <stop stop-color="#e1e8f5" offset="1"/>
                </linearGradient>
                <linearGradient y2="0.828635" x2="2.288442" y1="0.298501" x1="-0.57437" id="h">
                    <stop stop-color="#e1e8f5" offset="0"/>
                    <stop stop-color="#c7d6ee" offset="0.157"/>
                    <stop stop-color="#e1e8f5" offset="1"/>
                </linearGradient>
                <linearGradient y2="0.841966" x2="-0.941351" y1="0.276162" x1="1.333105" id="i">
                    <stop stop-color="#e1e8f5" offset="0"/>
                    <stop stop-color="#c7d6ee" offset="0.157"/>
                    <stop stop-color="#e1e8f5" offset="1"/>
                </linearGradient>
                <linearGradient y2="4.496438" x2="0.912853" y1="-1.96819" x1="0.249747" id="j">
                    <stop stop-color="#476886" offset="0"/>
                    <stop stop-color="#92a5c1" offset="0.129"/>
                    <stop stop-color="#92a5c1" offset="0.129"/>
                    <stop stop-color="#e1e8f5" offset="1"/>
                </linearGradient>
                <linearGradient y2="0.866319" x2="0.211253" y1="0.294374" x1="0.722539" id="k">
                    <stop stop-color="#002334" offset="0"/>
                    <stop stop-color="#fff" offset="0.107"/>
                    <stop stop-color="#fff" offset="0.107"/>
                    <stop stop-color="#91afc8" offset="0.185"/>
                    <stop stop-color="#002334" offset="0.242"/>
                    <stop stop-color="#5e738f" offset="0.534"/>
                    <stop stop-color="#002334" offset="0.758"/>
                    <stop stop-color="#002334" offset="1"/>
                </linearGradient>
                <linearGradient y2="0.315556" x2="-0.140163" y1="0.656926" x1="1.046943" id="l">
                    <stop stop-color="#91afc8" offset="0"/>
                    <stop stop-color="#002334" offset="1"/>
                </linearGradient>
                <linearGradient y2="2.304463" x2="0.478593" y1="-0.541023" x1="0.510547" id="m">
                    <stop stop-color="#a5b9cc" offset="0"/>
                    <stop stop-color="#002334" offset="1"/>
                </linearGradient>
                <linearGradient y2="0.500148" x2="1.162637" y1="0.500148" x1="0.192193" id="n">
                    <stop stop-color="#5e738f" offset="0"/>
                    <stop stop-color="#91afc8" offset="0.489"/>
                    <stop stop-color="#91afc8" offset="0.489"/>
                    <stop stop-color="#91afc8" offset="1"/>
                </linearGradient>
                <linearGradient y2="0.500067" x2="-0.145421" y1="0.500067" x1="0.824905" id="o">
                    <stop stop-color="#5e738f" offset="0"/>
                    <stop stop-color="#91afc8" offset="0.32"/>
                    <stop stop-color="#91afc8" offset="0.32"/>
                    <stop stop-color="#91afc8" offset="1"/>
                </linearGradient>
                <linearGradient y2="3.056337" x2="0.681814" y1="-1.172571" x1="0.375112" id="p">
                    <stop stop-color="#a5b9cc" offset="0"/>
                    <stop stop-color="#002334" offset="1"/>
                </linearGradient>
                <linearGradient y2="-2.579303" x2="0.712047" y1="1.975724" x1="0.405048" id="q">
                    <stop stop-color="#002334" offset="0"/>
                    <stop stop-color="#a5b9cc" offset="0.775"/>
                    <stop stop-color="#a5b9cc" offset="1"/>
                </linearGradient>
                <linearGradient y2="-0.510992" x2="0.947873" y1="0.914649" x1="0.386266" id="r">
                    <stop stop-color="#ffefcf" offset="0"/>
                    <stop stop-color="#ffe4a6" offset="0.461"/>
                    <stop stop-color="#bc956e" offset="1"/>
                </linearGradient>
                <linearGradient y2="2.205675" x2="0.659663" y1="-1.400558" x1="0.32954" id="s">
                    <stop stop-color="#5e738f" offset="0"/>
                    <stop stop-color="#91afc8" offset="0.607"/>
                    <stop stop-color="#91afc8" offset="0.607"/>
                    <stop stop-color="#c7dff4" offset="1"/>
                </linearGradient>
                <linearGradient y2="-5.441207" x2="0.678595" y1="4.539653" x1="0.37803" id="t">
                    <stop stop-color="#e1e8f5" offset="0"/>
                    <stop stop-color="#7f97b4" offset="0.815"/>
                    <stop stop-color="#7f97b4" offset="0.815"/>
                    <stop stop-color="#476886" offset="0.904"/>
                    <stop stop-color="#002334" offset="1"/>
                </linearGradient>
                <linearGradient y2="1.221" x2="1.291349" y1="0.039113" x1="0.006075" id="u">
                    <stop stop-color="#8ca0b5" offset="0"/>
                    <stop stop-color="#e1e8f5" offset="0.14"/>
                    <stop stop-color="#e1e8f5" offset="0.14"/>
                    <stop stop-color="#7f97b4" offset="0.815"/>
                    <stop stop-color="#476886" offset="0.904"/>
                    <stop stop-color="#002334" offset="1"/>
                </linearGradient>
                <linearGradient y2="1.385363" x2="0.995624" y1="0.23116" x1="0.412231" id="v">
                    <stop stop-color="#002334" offset="0"/>
                    <stop stop-color="#a5b9cc" offset="0.815"/>
                    <stop stop-color="#a5b9cc" offset="0.815"/>
                    <stop stop-color="#002334" offset="0.888"/>
                    <stop stop-color="#002334" offset="1"/>
                </linearGradient>
                <linearGradient y2="-4.031071" x2="0.845891" y1="3.567797" x1="0.274403" id="w">
                    <stop stop-color="#d4bc7b" offset="0"/>
                    <stop stop-color="#7f5f39" offset="0.332"/>
                    <stop stop-color="#d4bc7b" offset="1"/>
                </linearGradient>
                <linearGradient y2="-2.616687" x2="0.161114" y1="2.715313" x1="0.720729" id="x">
                    <stop stop-color="#d4bc7b" offset="0"/>
                    <stop stop-color="#7f5f39" offset="0.332"/>
                    <stop stop-color="#d4bc7b" offset="1"/>
                </linearGradient>
                <linearGradient y2="-4.213143" x2="0.10662" y1="3.497749" x1="0.75544" id="y">
                    <stop stop-color="#d4bc7b" offset="0"/>
                    <stop stop-color="#7f5f39" offset="0.332"/>
                    <stop stop-color="#d4bc7b" offset="1"/>
                </linearGradient>
                <linearGradient y2="0.500104" x2="1.153939" y1="0.500104" x1="0.183598" id="z">
                    <stop stop-color="#d3bd8b" offset="0"/>
                    <stop stop-color="#7f5f39" offset="1"/>
                </linearGradient>
                <linearGradient y2="0.499854" x2="-0.141002" y1="0.499854" x1="0.829644" id="A">
                    <stop stop-color="#d3bd8b" offset="0"/>
                    <stop stop-color="#7f5f39" offset="1"/>
                </linearGradient>
                <linearGradient y2="-2.191461" x2="0.714022" y1="1.666611" x1="0.409759" id="B">
                    <stop stop-color="#7f5f39" offset="0"/>
                    <stop stop-color="#d3bd8b" offset="0.646"/>
                    <stop stop-color="#ffe4a6" offset="0.888"/>
                    <stop stop-color="#ffe4a6" offset="1"/>
                </linearGradient>
                <linearGradient y2="-2.55365" x2="0.261742" y1="1.663635" x1="0.586309" id="C">
                    <stop stop-color="#7f5f39" offset="0"/>
                    <stop stop-color="#d3bd8b" offset="0.455"/>
                    <stop stop-color="#ffe4a6" offset="0.888"/>
                    <stop stop-color="#ffe4a6" offset="1"/>
                </linearGradient>
                <linearGradient y2="3.770801" x2="0.945924" y1="-1.073528" x1="0.273362" id="D">
                    <stop stop-color="#d4bc7b" offset="0"/>
                    <stop stop-color="#7f5f39" offset="0.039"/>
                    <stop stop-color="#d1ac75" offset="0.107"/>
                    <stop stop-color="#d4bc7b" offset="1"/>
                </linearGradient>
                <linearGradient y2="3.571227" x2="0.048937" y1="-0.973014" x1="0.729204" id="E">
                    <stop stop-color="#d4bc7b" offset="0"/>
                    <stop stop-color="#7f5f39" offset="0.039"/>
                    <stop stop-color="#d1ac75" offset="0.107"/>
                    <stop stop-color="#d4bc7b" offset="1"/>
                </linearGradient>
                <linearGradient y2="0.795436" x2="1.634636" y1="0.325729" x1="-0.189543" id="F">
                    <stop stop-color="#ffe292" offset="0"/>
                    <stop stop-color="#d1ac75" offset="0.157"/>
                    <stop stop-color="#ffe292" offset="1"/>
                </linearGradient>
                <linearGradient y2="0.807876" x2="-0.402285" y1="0.325109" x1="1.057575" id="G">
                    <stop stop-color="#ffe292" offset="0"/>
                    <stop stop-color="#d1ac75" offset="0.157"/>
                    <stop stop-color="#ffe292" offset="1"/>
                </linearGradient>
                <linearGradient y2="3.398681" x2="0.849325" y1="-1.55323" x1="0.272537" id="H">
                    <stop stop-color="#7f5f39" offset="0"/>
                    <stop stop-color="#bd9b6a" offset="1"/>
                </linearGradient>
                <linearGradient y2="0.287614" x2="0.875004" y1="0.643787" x1="0.278756" id="I">
                    <stop stop-color="#7f5f39" offset="0"/>
                    <stop stop-color="#d4bc7b" offset="1"/>
                </linearGradient>
                <linearGradient y2="1.293781" x2="1.206661" y1="0.02536" x1="-0.012244" id="J">
                    <stop stop-color="#a78a5e" offset="0"/>
                    <stop stop-color="#7f5f39" offset="0.764"/>
                    <stop stop-color="#674c2b" offset="0.916"/>
                    <stop stop-color="#674c2b" offset="1"/>
                </linearGradient>
                <linearGradient y2="1.439116" x2="-0.112539" y1="0.055432" x1="0.673036" id="K">
                    <stop stop-color="#ffefcf" offset="0"/>
                    <stop stop-color="#ffe4a6" offset="0.461"/>
                    <stop stop-color="#bc956e" offset="1"/>
                </linearGradient>
                <linearGradient y2="1.072847" x2="1.464079" y1="0.11594" x1="-0.134324" id="L">
                    <stop stop-color="#7f5f39" offset="0"/>
                    <stop stop-color="#e9cf98" offset="1"/>
                </linearGradient>
                <linearGradient y2="1.036602" x2="1.529253" y1="0.138377" x1="-0.198671" id="M">
                    <stop stop-color="#7f5f39" offset="0"/>
                    <stop stop-color="#e4cb90" offset="1"/>
                </linearGradient>
            </defs>
            <clipPath id="b">
                <use id="svg_2" xlink:href="#a"/>
            </clipPath>
            <g id="svg_3" clip-path="url(#b)">
                <path id="svg_4" fill="#c7d6ee"
                      d="m176.76,470.69c1.346,3.083 2.503,5.587 10.98,5.587l48.93,0c2.697,0 5.392,1.349 5.392,5.199l0,13.67c0,1.55 1.543,3.672 5.587,3.672l101.33,0c2.887,0 5.203,-1.543 5.203,-5.203l0,-10.79c0,-2.888 1.346,-5.97 5.585,-5.97l81.292,0c2.888,0 6.741,-0.768 5.01,-4.432c-1.738,-3.656 -28.126,-57.194 -29.917,-60.772c-0.687,-1.371 -1.22,-3.198 -6.564,-3.198l-49.972,0c-2.369,0 -6.26,0 -6.26,-4.581l0,-12.742c0,-1.833 -1.372,-4.582 -5.723,-4.582l-100.257,0c-3.13,0 -5.418,1.609 -5.418,4.735l0,11.217c0,2.442 -1.299,6.025 -4.96,6.025l-84.158,0c-2.673,0 -5.19,2.062 -3.587,6.026c1.603,3.972 27.506,56.139 27.506,56.139"/>
            </g>
        </g>
        <g id="svg_5" transform="matrix(1.32585,0,0,-1.30221,-194.163,651.935) ">
            <path id="svg_6" fill="url(#c)" d="m155.686,420.508l2.339,-0.008l22.994,45.751l-2.34,0.007l-22.993,-45.75z"/>
        </g>
        <g id="svg_7" transform="matrix(1.32585,0,0,-1.30221,-194.163,651.935) ">
            <defs>
                <path d="m-96.986,-127.216l789.247,0l0,1096.322l-789.247,0l0,-1096.322z" id="d"/>
            </defs>
            <clipPath id="e">
                <use id="svg_8" xlink:href="#d"/>
            </clipPath>
            <g id="svg_9" clip-path="url(#e)">
                <path id="svg_10" fill="#e9cf98"
                      d="m237.197,414.047l-78.71,0c-2.746,0 -3.708,1.255 -2.64,3.39c5.96,11.853 25.56,50.836 26.067,51.871c0.596,1.217 2.04,2.705 4.704,2.705l52.818,0c5.48,0 6.413,2.395 6.413,6.721l0,12.884c0,1.733 1.15,2.885 3.171,2.885l96.738,0c2.6,0 3.75,-0.859 3.75,-2.592l0,-9.518c0,-3.75 -0.71,-9.805 7.65,-9.805l79.937,0c3.59,0 4.522,-2.42 2.622,-6.253c-7.074,-14.27 -24.48,-48.105 -25.022,-49.253c-0.685,-1.459 -2.814,-2.743 -6.215,-2.743l-52.47,0c-4.33,0 -8.653,-2.884 -8.653,-7.213l0,-10.995c0,-2.002 -1.202,-3.42 -3.342,-3.42l-93.867,0c-2.904,0 -4.012,1.644 -4.012,3.837l0,10.004c0,3.458 -2.307,7.495 -8.939,7.495"/>
                <path id="svg_11" fill="#fff"
                      d="m342.163,416.627l11.025,-11.49s0.787,2.52 3.777,3.144l-12.347,11.517s-1.983,-1.122 -2.455,-3.17m-104.71,-8.186s4.41,-0.16 4.41,-5.985l10.234,15.118l-2.834,2.047l-11.81,-11.18zm108.779,57.246l11.625,11.331s-1.576,0.193 -3.156,2.756l-11.527,-11.725l3.058,-2.362zm-5.027,23.152l10.74,9.159s1.183,-0.687 1.675,-1.773l-11.232,-10.344l-1.183,2.958zm-99.066,5.843c0,1.897 1.762,4.135 4.647,4.135l8.148,-10.073s-2.44,0 -2.822,-0.9c-0.388,-0.9 -0.772,-2.826 -0.772,-2.826l-9.201,9.664zm-3.517,-18.143s3.482,0.552 3.482,4.274l8.077,-9.503l-5.148,-3.721l-6.411,8.95z"/>
            </g>
        </g>
        <g id="svg_12" transform="matrix(1.32585,0,0,-1.30221,-194.163,651.935) ">
            <path id="svg_13" fill="url(#f)" d="m298.345,498.818l-0.371,-4.333l46.543,0c1.528,0 2.386,-0.384 2.962,-1.529l5.154,4.582s-1.296,1.28 -3.654,1.28l-50.634,0z"/>
        </g>
        <g id="svg_14" transform="matrix(1.32585,0,0,-1.30221,-194.163,651.935) ">
            <path id="svg_15" fill="url(#g)" d="m246.785,498.818c-1.241,0 -2.674,-0.614 -3.434,-1.565l3.34,-3.627s0.667,0.859 3.34,0.859l47.943,0l0.371,4.333l-51.56,0z"/>
        </g>
        <g id="svg_16" transform="matrix(1.32585,0,0,-1.30221,-194.163,651.935) ">
            <path id="svg_17" fill="url(#h)" d="m242.139,494.682l0,-13.206c0,-2.073 -0.415,-2.581 -0.415,-2.581l3.685,-3.916s0.527,1.352 0.527,2.183l0,13.085c0,0.826 0.074,2.03 0.074,2.03l-3.46,4.285s-0.411,-0.749 -0.411,-1.88"/>
        </g>
        <g id="svg_18" transform="matrix(1.32585,0,0,-1.30221,-194.163,651.935) ">
            <path id="svg_19" fill="url(#i)" d="m349.583,492.679s-0.1,-1.536 -0.1,-2.362c0,-0.826 0.1,-11.981 0.1,-12.809c0,-0.826 1.203,-2.358 1.203,-2.358l4.409,3.902s-1.046,0.351 -1.046,2.424l0,13.206c0,1.131 -0.925,1.88 -0.925,1.88l-3.641,-3.883z"/>
        </g>
        <g id="svg_20" transform="matrix(1.32585,0,0,-1.30221,-194.163,651.935) ">
            <path id="svg_21" fill="url(#j)" d="m236.948,476.262c-1.382,0 -48.863,-0.055 -51.393,-0.055c-3.671,0 -5.83,-1.619 -5.83,-1.619l3.02,-4.063s1.208,1.489 3.874,1.489l53.577,0c1.866,0 3.268,0.844 3.268,0.844l-3.501,4.205s-1.719,-0.801 -3.015,-0.801"/>
        </g>
        <g id="svg_22" transform="matrix(1.32585,0,0,-1.30221,-194.163,651.935) ">
            <path id="svg_23" fill="url(#k)" d="m154.267,417.082l-5.475,-3.84s-0.434,-1.587 0.384,-2.841c0.82,-1.25 2.072,-1.444 2.072,-1.444l7.126,5.09s-4.033,0.19 -2.355,3.177c1.678,2.988 1.587,4.113 1.587,4.113c0,0.001 -1.958,-0.321 -3.339,-4.255"/>
        </g>
        <g id="svg_24" transform="matrix(1.32585,0,0,-1.30221,-194.163,651.935) ">
            <path id="svg_25" fill="url(#l)" d="m169.301,454.679c-4.366,-8.986 -19.03,-37.853 -19.543,-38.884c-0.514,-1.027 -1.029,-2.823 -1.029,-2.823l5.651,4.11l26.479,52.752s-7.191,-6.164 -11.558,-15.155"/>
        </g>
        <g id="svg_26" transform="matrix(1.32585,0,0,-1.30221,-194.163,651.935) ">
            <path id="svg_27" fill="url(#m)" d="m158.487,413.923l-7.263,-5.225s82.73,-0.204 84.82,-0.204c2.087,0 2.964,-0.399 2.964,-0.399l3.726,4.234s-3.559,1.594 -5.536,1.594l-78.711,0z"/>
        </g>
        <g id="svg_28" transform="matrix(1.32585,0,0,-1.30221,-194.163,651.935) ">
            <path id="svg_29" fill="url(#n)" d="m241.13,405.779s0.762,-1.531 0.762,-2.752l0,-10.939c0,-1.565 0.61,-2.922 0.61,-2.922l3.635,4.282l0,13.104c0,2.091 -1.153,3.85 -1.153,3.85l-3.854,-4.623z"/>
        </g>
        <g id="svg_30" transform="matrix(1.32585,0,0,-1.30221,-194.163,651.935) ">
            <path id="svg_31" fill="url(#o)" d="m347.346,407.905l0,-13.105l5.705,-4.99s0.141,1.33 0.141,2.892l0,10.944c0,1.22 0.354,1.988 0.354,1.988l-4.988,4.987s-1.212,-0.621 -1.212,-2.716"/>
        </g>
        <g id="svg_32" transform="matrix(1.32585,0,0,-1.30221,-194.163,651.935) ">
            <path id="svg_33" fill="url(#p)" d="m343.079,392.614l-44.848,0l0,-6.086l49.627,0c1.687,0 3.654,1.122 4.028,1.407l-5.624,5.333s-0.371,-0.654 -3.183,-0.654"/>
        </g>
        <g id="svg_34" transform="matrix(1.32585,0,0,-1.30221,-194.163,651.935) ">
            <path id="svg_35" fill="url(#q)" d="m244.212,387.287s1.155,-0.819 4.383,-0.819c3.225,0 49.636,0.059 49.636,0.059l0,6.086l-47.902,0c-0.867,0 -1.447,0.161 -1.447,0.161l-4.67,-5.487z"/>
        </g>
        <g id="svg_36" transform="matrix(1.32585,0,0,-1.30221,-194.163,651.935) ">
            <path id="svg_37" fill="url(#r)"
                  d="m257.095,488.869c-2.598,0 -5.192,-1.444 -5.192,-4.329l0,-14.132c0,-2.881 -1.732,-4.036 -3.75,-4.036l-57.43,0c-2.333,0 -4.138,-0.973 -5.175,-2.936c-0.849,-1.613 -15.191,-30.358 -19.826,-39.648c-1.005,-2.015 -0.127,-3.24 2.452,-3.24l80.27,0c3.459,0 4.037,-3.174 4.037,-6.344l0,-10.982c0,-2.023 2.017,-4.33 4.325,-4.33l40.381,0l0,89.977l-40.092,0z"/>
        </g>
        <g id="svg_38" transform="matrix(1.32585,0,0,-1.30221,-194.163,651.935) ">
            <path id="svg_39" fill="url(#s)" d="m351.127,412.717l4.624,-4.753s1.154,0.639 6.55,0.639l49.314,0c1.025,0 2.438,0.515 2.438,0.515l-26.068,5.264s-30.18,-0.021 -31.592,0a4.216,4.216 0 0 1 -0.159,0.003c-3.06,0 -5.107,-1.668 -5.107,-1.668"/>
        </g>
        <g id="svg_40" transform="matrix(1.32585,0,0,-1.30221,-194.163,651.935) ">
            <path id="svg_41" fill="url(#t)" d="m352.864,473.429s2.254,-0.753 4.094,-0.753l77.647,0c2.363,0 3.742,-0.176 3.742,-0.176l6.275,3.74s-2.014,0.575 -4.028,0.575l-80.639,0c-2.015,0 -2.855,0.471 -2.855,0.471l-4.236,-3.857z"/>
        </g>
        <g id="svg_42" transform="matrix(1.32585,0,0,-1.30221,-194.163,651.935) ">
            <path id="svg_43" fill="url(#u)"
                  d="m440.635,470.478s0.355,-1.97 -0.316,-3.309c-0.669,-1.338 -24.138,-47.495 -25.198,-49.615c-1.062,-2.119 -3.457,-2.9 -3.457,-2.9l2.675,-5.348s0.947,0.72 1.507,1.447c0.557,0.724 29.434,59.484 30.327,61.545c0.89,2.063 0.107,2.809 0.107,2.809l-5.645,-4.629z"/>
        </g>
        <g id="svg_44" transform="matrix(1.32585,0,0,-1.30221,-194.163,651.935) ">
            <path id="svg_45" fill="url(#v)" d="m409.175,414.257c-3.082,0 -20.42,-0.132 -20.42,-0.132l24.658,-5.007s1.542,0.637 2.313,1.927c0.772,1.284 -0.003,1.668 -0.9,0.898c-0.897,-0.775 -2.438,0.509 -1.67,1.409c0.773,0.904 1.541,3.729 1.541,3.729c-0.001,0.001 -2.438,-2.824 -5.522,-2.824"/>
        </g>
        <g id="svg_46" transform="matrix(1.32585,0,0,-1.30221,-194.163,651.935) ">
            <path id="svg_47" fill="url(#w)"
                  d="m179.792,418.23c-16.148,-1.078 -21.305,-4.131 -21.305,-4.131l77.112,0c8.769,0 7.768,-1.199 7.719,-1.253l6.278,6.639s-15.252,0 -24.942,0.178c-1.232,0.022 -2.614,0.033 -4.123,0.033c-10.357,0 -26.643,-0.528 -40.739,-1.466m63.524,-5.386l0.002,0.002l-0.002,-0.002z"/>
        </g>
        <g id="svg_48" transform="matrix(1.32585,0,0,-1.30221,-194.163,651.935) ">
            <path id="svg_49" fill="url(#x)" d="m361.673,419.663c-6.86,-0.178 -17.662,-0.178 -17.662,-0.178l7.199,-6.779s0.741,1.587 7.093,1.587c6.356,0 52.158,0.157 52.158,0.157s0.773,2.504 -12.714,3.466c-10.624,0.759 -26.656,1.765 -34.406,1.765a70.17,70.17 0 0 1 -1.668,-0.018"/>
        </g>
        <g id="svg_50" transform="matrix(1.32585,0,0,-1.30221,-194.163,651.935) ">
            <path id="svg_51" fill="url(#y)" d="m345.357,465.663s10.805,0 17.667,-0.179c6.862,-0.179 48.455,1.707 59.895,2.785c11.439,1.076 15.088,4.128 15.088,4.128s-72.724,-0.388 -79.078,-0.388c-6.35,0 -5.464,1.259 -5.464,1.259l-8.108,-7.605z"/>
        </g>
        <g id="svg_52" transform="matrix(1.32585,0,0,-1.30221,-194.163,651.935) ">
            <path id="svg_53" fill="url(#z)" d="m245.367,410.208s0.771,-2.502 0.771,-4.429l0,-8.668c0,-2.311 0.772,-3.469 0.772,-3.469l6.549,6.552s-0.978,2.31 -0.978,4.044l0,9.773c0,2.26 -0.564,4.098 -0.564,4.098l-6.55,-7.901z"/>
        </g>
        <g id="svg_54" transform="matrix(1.32585,0,0,-1.30221,-194.163,651.935) ">
            <path id="svg_55" fill="url(#A)" d="m341.468,414.066c0,-2.26 -0.152,-8.308 -0.152,-10.044c0,-1.729 -0.398,-3.828 -0.398,-3.828l6.548,-6.552s0.773,1.159 0.773,3.469l0,8.668c0,1.927 0.77,4.429 0.77,4.429l-7.013,8.083a18.25,18.25 0 0 1 -0.528,-4.225"/>
        </g>
        <g id="svg_56" transform="matrix(1.32585,0,0,-1.30221,-194.163,651.935) ">
            <path id="svg_57" fill="url(#B)" d="m249.029,392.874l47.773,-0.384l0.193,0.004l0,6.398l-41.61,0.15l-6.356,-6.168z"/>
        </g>
        <g id="svg_58" transform="matrix(1.32585,0,0,-1.30221,-194.163,651.935) ">
            <path id="svg_59" fill="url(#C)" d="m297.187,398.892l-0.192,0l0,-6.398l49.122,0.57l-7.897,5.978l-41.033,-0.15z"/>
        </g>
        <g id="svg_60" transform="matrix(1.32585,0,0,-1.30221,-194.163,651.935) ">
            <path id="svg_61" fill="url(#D)" d="m249.674,494.521c-1.349,0 -2.597,-0.727 -2.597,-0.727l6.332,-6.23s0.624,1.353 5.086,1.353l38.692,0l0,5.604l-47.513,0z"/>
        </g>
        <g id="svg_62" transform="matrix(1.32585,0,0,-1.30221,-194.163,651.935) ">
            <path id="svg_63" fill="url(#E)" d="m297.187,494.521l0,-5.604l38.692,0c4.462,0 5.386,-1.942 5.386,-1.942l6.33,6.227s-1.544,1.319 -2.893,1.319l-47.515,0z"/>
        </g>
        <g id="svg_64" transform="matrix(1.32585,0,0,-1.30221,-194.163,651.935) ">
            <path id="svg_65" fill="url(#F)" d="m245.87,489.078l0,-11.313c0,-1.342 -0.589,-2.932 -0.589,-2.932l6.201,-7.038s0.419,0.585 0.419,3.516c0,2.933 0.25,14.41 0.25,14.41l-6.199,6.954s-0.082,-1.839 -0.082,-3.597"/>
        </g>
        <g id="svg_66" transform="matrix(1.32585,0,0,-1.30221,-194.163,651.935) ">
            <path id="svg_67" fill="url(#G)" d="m341.524,485.586l0,-14.066c0,-2.932 1.371,-3.725 1.371,-3.725l7.578,7.634s-0.988,1.597 -0.988,2.935c0,1.342 -0.064,9.521 -0.064,11.28c0,1.759 0.077,3.386 0.077,3.386l-7.974,-7.444z"/>
        </g>
        <g id="svg_68" transform="matrix(1.32585,0,0,-1.30221,-194.163,651.935) ">
            <path id="svg_69" fill="url(#H)" d="m240.744,471.857l-53.166,0c-1.541,0 -4.047,-0.578 -4.817,-1.35l4.817,-5.009s1.347,0.962 4.623,0.962l55.285,0c1.543,0 3.082,0.581 3.082,0.581l-6.162,6.355s-1.543,-1.539 -3.662,-1.539"/>
        </g>
        <g id="svg_70" transform="matrix(1.32585,0,0,-1.30221,-194.163,651.935) ">
            <path id="svg_71" fill="url(#I)" d="m406.337,420.335s2.977,1.12 3.908,-2.416c0,0 0.744,-1.119 2.79,1.861c2.046,2.976 21.4,42.785 21.208,43.349c-0.187,0.556 -4.094,1.302 -4.094,1.302l-23.812,-44.096z"/>
        </g>
        <g id="svg_72" transform="matrix(1.32585,0,0,-1.30221,-194.163,651.935) ">
            <path id="svg_73" fill="url(#J)"
                  d="m430.71,464.054c0.933,-0.556 1.862,-1.302 0.56,-4.091c-1.301,-2.786 -16.186,-31.813 -19.346,-37.392c-3.163,-5.58 -0.376,-7.813 -0.376,-7.813s2.422,1.119 3.149,2.325c0.734,1.21 23.459,46.23 25.024,49.253c1.564,3.024 0.479,4.234 0.479,4.234l-9.49,-6.516z"/>
        </g>
        <g id="svg_74" transform="matrix(1.32585,0,0,-1.30221,-194.163,651.935) ">
            <path id="svg_75" fill="url(#K)"
                  d="m297.187,488.869l0,-89.977l39.786,0c2.305,0 4.325,0.865 4.325,3.466l0,13.419c0,2.595 1.728,4.609 3.749,4.609l60.019,0c2.106,0 3.998,1.233 5.095,3.261c4.904,9.068 18.411,35.365 19.433,37.485c1.248,2.588 0.476,4.087 -2.416,4.087l-79.537,0c-3.46,0 -6.059,2.593 -6.059,5.766l0,14.709c0,2.019 -1.153,3.174 -3.747,3.174l-40.648,0l0,0.001z"/>
        </g>
        <g id="svg_76" transform="matrix(1.32585,0,0,-1.30221,-194.163,651.935) ">
            <path id="svg_77" fill="url(#L)" d="m157.837,416.603l7.7,4.669s-0.882,0.384 0.504,3.159c1.388,2.775 14.389,29.283 14.389,29.283l-2.901,0.628l-19.692,-37.739z"/>
        </g>
        <g id="svg_78" transform="matrix(1.32585,0,0,-1.30221,-194.163,651.935) ">
            <path id="svg_79" fill="url(#M)" d="m157.14,420.035c-1.927,-3.468 -1.539,-4.814 -1.539,-4.814l4.622,3.082s20.611,39.875 22.73,44.5c2.12,4.622 -1.039,6.505 -1.039,6.505s-22.847,-45.806 -24.774,-49.273"/>
        </g>
        <path id="svg_80" fill="#fff"
              d="m18.316,112.904c-0.405,0.267 -4.14,0.72 -4.87,0c-0.731,-0.712 -1.952,-1.27 -0.977,-2.07c0.978,-0.801 12.99,-7.814 12.99,-7.814s-1.459,0.796 10.884,0.796l98.733,0c2.599,0 5.033,1.752 5.36,2.869c0.325,1.119 -0.326,1.595 -1.137,1.439c-0.809,-0.162 -2.923,-0.8 -3.41,-1.6c-0.487,-0.795 0.65,-1.433 -6.497,-1.433c-7.145,0 -61.708,0.8 -74.047,1.914c-12.343,1.119 -28.587,0.32 -37.029,5.9m364.684,-75.923c0.404,-0.262 4.144,-0.714 4.873,0c0.73,0.718 1.95,1.276 0.975,2.075c-0.975,0.796 -12.991,7.814 -12.991,7.814s1.457,-0.796 -10.883,-0.796l-98.736,0c-2.598,0 -5.033,-1.751 -5.356,-2.87c-0.326,-1.12 0.322,-1.6 1.13,-1.438c0.819,0.162 2.927,0.8 3.416,1.594c0.485,0.801 -0.653,1.434 6.495,1.434s61.704,-0.794 74.052,-1.91c12.338,-1.118 28.584,-0.318 37.024,-5.903m-332.805,9.227c0,-1.129 0.638,-3.26 0.129,-3.884c-0.512,-0.63 1.02,-1.382 2.043,-0.758c1.022,0.629 3.191,1.129 3.446,1.633c0.256,0.5 -0.127,1.752 -1.531,2.256c-1.406,0.5 -2.683,1.63 -4.853,6.267c-2.172,4.646 -14.56,28.224 -14.56,28.224s1.79,-3.761 1.023,-3.89c-0.766,-0.124 -2.552,3.013 -2.552,3.013l16.855,-32.86l0,-0.001zm85.387,-2.219c-1.057,0.105 -1.352,-1.032 -0.45,-1.18c0.906,-0.149 2.106,-0.22 3.158,-4.286c1.056,-4.066 0.304,-16.402 0.152,-18.617c-0.152,-2.217 -1.203,-4.875 0.304,-6.056c1.502,-1.185 2.556,1.33 6.468,1.33c3.91,0 12.788,-0.296 12.788,-0.296s-12.487,0.881 -14.596,1.18c-2.105,0.297 -3.911,1.92 -3.612,4.876c0.304,2.956 -0.448,18.178 -1.048,19.802c-0.604,1.624 -1.659,3.1 -3.164,3.248m84.245,-29.015c-1.657,0.075 31.723,0.385 33.826,0.385c2.106,0 4.513,0.628 4.966,2.694c0.451,2.072 0.131,8.853 0.131,8.853s1.037,-8.704 2.543,-10.328c1.504,-1.63 1.053,-3.99 -0.902,-3.552c-1.957,0.448 -17.447,0.924 -40.564,1.948m44.574,90.587c-1.05,-0.153 -2.25,-0.294 -2.554,0.59c-0.301,0.88 1.35,1.471 -0.301,2.352c-1.647,0.886 -2.876,1.43 -2.876,0.691c0,-0.738 0.851,-4.524 4.004,-4.524c3.153,0 80.954,-0.146 82.162,-0.146c1.196,0 2.699,0.146 3.297,1.329c0.6,1.18 1.35,4.126 1.803,5.013c0.447,0.884 -0.3,0.884 -1.655,-0.887c-1.35,-1.77 -4.798,-2.504 -7.497,-2.357c-2.704,0.147 -76.383,-2.061 -76.383,-2.061m85.832,2.504s-0.748,-1.619 -1.2,-2.657c-0.45,-1.028 -1.8,-1.466 -1.8,-1.466s1.499,-1.775 3.598,-5.603c2.104,-3.828 12.008,-22.11 13.057,-24.616c0,0 -2.251,6.786 2.101,1.18c0,0 -14.105,26.231 -15.007,28.002c-0.898,1.771 -0.75,5.16 -0.75,5.16m-208.708,20.63s0.179,2.12 -1.074,3c-1.254,0.881 -1.794,2.466 -0.717,3.173c1.076,0.704 1.793,0.352 2.51,-0.707c0.718,-1.055 3.232,-1.938 4.845,-1.584c0.002,-0.001 -5.564,0.698 -5.564,-3.882m77.337,3.776s30.282,1.567 32.076,1.649l3.049,0.137s-3.213,-0.5 -2.263,-1.514l-32.863,-0.272l0.001,0zm35.89,-0.247s-0.895,1.409 0.538,2.11c1.439,0.704 2.876,1.408 3.772,0.352c0.895,-1.056 -0.717,-3.875 -0.54,-5.813c0,-0.001 0.718,2.998 -3.77,3.35"/>
    </g>
</svg>