<?xml version="1.0" standalone="no"?>
<!DOCTYPE svg PUBLIC "-//W3C//DTD SVG 20010904//EN"
        "http://www.w3.org/TR/2001/REC-SVG-20010904/DTD/svg10.dtd">
<svg version="1.0" xmlns="http://www.w3.org/2000/svg"
     width="1371.000000pt" height="1016.000000pt" viewBox="0 0 1371.000000 1016.000000"
     preserveAspectRatio="xMidYMid meet">
    <metadata>
        Created by potrace 1.15, written by Peter Selinger 2001-2017
    </metadata>
    <g transform="translate(0.000000,1016.000000) scale(0.100000,-0.100000)"
       fill="#000000" stroke="none">
        <path d="M6510 10149 c-418 -43 -871 -183 -1238 -381 -151 -82 -378 -233 -517
-344 -137 -110 -375 -347 -481 -479 -356 -445 -585 -933 -688 -1463 -81 -418
-81 -876 0 -1294 195 -1004 861 -1876 1779 -2332 368 -183 725 -287 1135 -332
215 -23 634 -15 835 16 593 91 1135 325 1595 690 130 103 421 392 522 520 417
526 660 1135 719 1800 17 193 7 575 -21 755 -54 359 -144 658 -291 963 -246
514 -614 952 -1074 1281 -459 327 -1004 535 -1562 596 -155 16 -565 19 -713 4z
m670 -445 c852 -98 1608 -564 2085 -1284 88 -133 195 -326 195 -352 0 -28
-195 -407 -294 -571 -52 -87 -134 -212 -183 -279 -82 -113 -285 -338 -323
-358 -15 -8 -19 7 -34 138 -64 526 -230 1005 -479 1377 -188 283 -465 548
-757 723 -400 242 -879 381 -1415 412 -92 5 -170 11 -172 14 -8 8 297 103 417
129 101 23 273 50 380 60 108 11 458 5 580 -9z m-1270 -296 c217 -76 467 -210
655 -351 106 -79 245 -203 245 -218 0 -5 -15 -9 -32 -9 -50 0 -334 -46 -463
-75 -574 -129 -1014 -352 -1364 -690 -197 -191 -334 -380 -461 -640 -143 -293
-223 -576 -272 -960 -15 -124 -16 -617 -1 -735 6 -47 10 -86 8 -88 -5 -5 -75
169 -111 278 -99 296 -146 591 -146 915 0 279 25 475 98 753 202 776 756 1455
1492 1828 l123 62 72 -20 c40 -11 110 -34 157 -50z m1138 -822 c252 -314 463
-732 576 -1142 67 -245 92 -463 83 -738 -9 -279 -48 -495 -138 -761 -119 -353
-326 -706 -585 -997 l-99 -111 -79 84 c-359 382 -667 1003 -755 1519 -47 277
-46 581 4 873 86 509 339 1016 711 1424 l76 83 66 -71 c37 -40 100 -113 140
-163z m2533 -806 c207 -595 212 -1249 15 -1843 -147 -443 -365 -798 -694
-1131 -221 -224 -470 -406 -743 -546 l-146 -74 -119 38 c-233 75 -447 179
-649 317 -99 67 -268 203 -314 252 l-23 26 33 5 c19 3 72 11 119 17 235 29
512 93 730 167 1067 362 1668 1188 1729 2378 9 162 1 483 -14 569 -8 46 29
-37 76 -175z m-4480 -1122 c115 -916 495 -1602 1124 -2027 430 -291 922 -445
1555 -487 l105 -7 -65 -24 c-101 -38 -302 -91 -445 -118 -356 -65 -738 -61
-1100 11 -727 145 -1398 593 -1815 1214 -81 121 -200 329 -200 352 0 23 139
308 226 463 86 154 215 352 312 479 87 113 258 289 275 283 6 -2 18 -61 28
-139z"/>
        <path d="M0 2160 l0 -330 1088 -2 1087 -3 45 -24 c57 -30 116 -85 141 -133 18
-35 19 -63 19 -484 0 -435 -1 -449 -21 -491 -12 -24 -36 -55 -53 -68 l-33 -25
-691 0 -692 0 0 485 0 485 -445 0 -445 0 0 -785 0 -785 1338 0 c1195 0 1344 2
1393 16 139 41 253 142 324 288 l45 92 0 774 -1 775 -22 66 c-12 36 -38 92
-57 124 -68 114 -228 253 -377 329 l-52 26 -1296 0 -1295 0 0 -330z"/>
        <path d="M4118 2466 c-164 -67 -303 -218 -412 -447 -30 -63 -58 -126 -62 -141
l-6 -28 1361 0 1361 0 0 320 0 320 -1092 0 -1093 0 -57 -24z"/>
        <path d="M7671 2475 c-197 -43 -330 -112 -451 -234 -107 -107 -167 -217 -195
-358 l-7 -33 1411 0 1411 0 0 320 0 320 -1052 -1 c-859 0 -1065 -3 -1117 -14z"/>
        <path d="M10700 1205 l0 -1205 385 0 385 0 0 1205 0 1205 -385 0 -385 0 0
-1205z"/>
        <path d="M12220 1850 c-327 -298 -596 -545 -598 -550 -2 -6 153 -10 425 -10
l428 0 615 541 c338 297 617 544 618 550 2 5 -171 9 -445 9 l-449 0 -594 -540z"/>
        <path d="M3640 810 l0 -810 435 0 435 0 0 465 0 465 925 0 925 0 0 345 0 345
-1360 0 -1360 0 0 -810z"/>
        <path d="M7020 1577 c0 -49 27 -144 58 -201 82 -153 306 -310 575 -405 l89
-31 676 0 c638 0 679 -2 718 -19 50 -23 83 -73 90 -138 12 -94 -28 -172 -110
-216 l-41 -22 -992 -3 -993 -2 0 -270 0 -270 1068 0 c909 0 1081 2 1161 15
281 46 470 169 569 370 42 85 60 152 74 276 28 257 -40 469 -206 635 -118 117
-264 203 -465 272 l-106 37 -1082 3 -1083 2 0 -33z"/>
        <path d="M11610 1095 c0 -2 261 -250 581 -550 l580 -545 472 0 472 0 -50 49
c-28 27 -294 274 -593 550 l-543 501 -459 0 c-253 0 -460 -2 -460 -5z"/>
    </g>
</svg>
