<?xml version="1.0" standalone="no"?>
<!DOCTYPE svg PUBLIC "-//W3C//DTD SVG 20010904//EN"
        "http://www.w3.org/TR/2001/REC-SVG-20010904/DTD/svg10.dtd">
<svg version="1.0" xmlns="http://www.w3.org/2000/svg"
     width="1920.000000pt" height="1200.000000pt" viewBox="0 0 1920.000000 1200.000000"
     preserveAspectRatio="xMidYMid meet">
    <metadata>
        Created by potrace 1.15, written by Peter Selinger 2001-2017
    </metadata>
    <g transform="translate(0.000000,1200.000000) scale(0.100000,-0.100000)"
       fill="#000000" stroke="none">
        <path d="M9265 11223 c-329 -26 -699 -125 -1024 -272 -868 -393 -1523 -1168
-1760 -2082 -78 -298 -105 -515 -105 -824 1 -240 17 -414 60 -625 279 -1382
1419 -2409 2819 -2540 141 -13 459 -13 600 0 1264 118 2339 984 2729 2197 221
688 202 1422 -56 2108 -329 877 -1072 1588 -1967 1885 -199 65 -508 129 -726
150 -100 9 -471 11 -570 3z m470 -374 c1133 -75 2094 -810 2470 -1889 150
-431 189 -929 109 -1395 -131 -756 -570 -1432 -1209 -1857 -356 -238 -746
-385 -1190 -450 -121 -18 -599 -18 -720 0 -275 40 -484 97 -720 194 -624 258
-1131 733 -1440 1347 -254 506 -347 1126 -255 1697 76 470 264 902 558 1280
89 115 268 302 386 403 459 393 1044 632 1639 670 182 12 199 12 372 0z"/>
        <path d="M8476 10602 c-38 -7 -35 -8 80 -46 339 -110 628 -268 894 -489 82
-68 279 -270 353 -362 383 -474 587 -1054 587 -1665 0 -687 -251 -1307 -745
-1838 l-77 -83 38 5 c22 3 77 8 124 11 293 20 644 116 935 254 535 255 951
664 1205 1186 118 242 192 482 236 765 26 166 26 564 0 748 -10 72 -21 132
-25 132 -3 0 -23 -49 -43 -109 -93 -273 -259 -572 -451 -811 -76 -95 -274
-297 -281 -289 -2 2 -9 65 -15 139 -41 469 -168 879 -384 1240 -379 632 -1051
1068 -1842 1196 -106 17 -517 28 -589 16z"/>
        <path d="M9390 9953 c-802 -78 -1504 -476 -1946 -1103 -226 -321 -369 -685
-430 -1095 -21 -142 -29 -455 -15 -600 14 -149 33 -275 40 -275 3 0 23 51 44
113 76 223 226 503 386 717 79 106 328 370 349 370 5 0 12 -48 15 -106 10
-160 45 -381 87 -548 168 -674 555 -1205 1135 -1557 458 -278 1033 -421 1533
-382 45 3 82 10 82 14 0 5 -8 9 -17 9 -34 0 -279 88 -398 143 -292 134 -522
293 -751 522 -243 241 -425 507 -558 815 -323 749 -292 1572 85 2280 102 190
261 415 400 565 41 44 83 90 93 103 l19 22 -59 -2 c-32 0 -75 -3 -94 -5z"/>
        <path d="M12740 3915 c0 -3 120 -155 267 -338 147 -182 311 -387 366 -454 54
-68 102 -123 106 -123 7 0 87 99 207 255 16 22 135 175 264 340 128 165 237
306 243 313 7 9 -138 12 -722 12 -402 0 -731 -2 -731 -5z"/>
        <path d="M3980 3440 l0 -320 1208 -2 1207 -3 57 -27 c80 -37 149 -105 184
-181 l29 -62 0 -520 0 -520 -26 -56 c-50 -107 -131 -172 -254 -204 -51 -13
-169 -15 -822 -15 l-763 0 0 580 0 580 -410 0 -410 0 0 -905 0 -905 1385 0
c1508 0 1442 -2 1609 56 261 91 461 313 526 584 19 81 20 116 20 811 0 820 2
797 -80 963 -107 219 -288 365 -538 434 l-97 27 -1412 3 -1413 2 0 -320z"/>
        <path d="M11642 3743 c8 -10 46 -56 84 -103 74 -92 256 -316 419 -515 55 -67
174 -213 265 -325 91 -111 242 -296 335 -410 94 -114 247 -302 340 -417 94
-115 188 -223 210 -240 119 -91 259 -81 377 25 37 34 195 224 508 611 69 85
137 168 152 185 l27 31 1 -852 0 -853 395 0 395 0 0 1440 0 1440 -336 0 c-275
0 -339 -3 -348 -14 -16 -20 -419 -519 -583 -721 -76 -94 -194 -240 -262 -325
-68 -85 -127 -159 -131 -163 -4 -5 -104 110 -221 254 -202 248 -480 587 -597
729 -30 36 -85 104 -124 153 l-71 87 -425 0 c-404 0 -424 -1 -410 -17z"/>
        <path d="M8661 3734 c-180 -48 -344 -183 -431 -355 -36 -71 -62 -169 -58 -222
l3 -42 1525 0 1525 0 3 318 2 317 -1257 -1 c-1066 0 -1266 -3 -1312 -15z"/>
        <path d="M8162 1788 l3 -903 418 -2 417 -1 0 584 0 584 1110 0 1110 0 0 320 0
320 -1530 0 -1530 0 2 -902z"/>
    </g>
</svg>
