<?xml version="1.0" standalone="no"?>
<!DOCTYPE svg PUBLIC "-//W3C//DTD SVG 20010904//EN"
        "http://www.w3.org/TR/2001/REC-SVG-20010904/DTD/svg10.dtd">
<svg version="1.0" xmlns="http://www.w3.org/2000/svg"
     width="900.000000pt" height="620.000000pt" viewBox="0 0 900.000000 620.000000"
     preserveAspectRatio="xMidYMid meet">
    <metadata>
        Created by potrace 1.15, written by Peter Selinger 2001-2017
    </metadata>
    <g transform="translate(0.000000,620.000000) scale(0.100000,-0.100000)"
       fill="#000000" stroke="none">
        <path d="M4375 6190 c-11 -5 -64 -9 -118 -9 -63 -1 -110 -6 -134 -16 -19 -8
-64 -15 -99 -15 -34 0 -66 -4 -69 -10 -3 -5 -28 -10 -55 -10 -27 0 -52 -4 -55
-10 -3 -5 -24 -10 -46 -10 -21 0 -39 -4 -39 -10 0 -5 -10 -10 -22 -10 -26 0
-134 -32 -144 -43 -4 -4 -18 -7 -30 -7 -13 0 -26 -4 -29 -10 -3 -5 -17 -10
-30 -10 -13 0 -27 -4 -30 -10 -3 -5 -13 -10 -21 -10 -37 0 -337 -142 -491
-233 -105 -61 -304 -201 -402 -283 -91 -75 -280 -258 -347 -335 -68 -79 -117
-139 -128 -158 -6 -10 -32 -49 -57 -88 -200 -301 -395 -745 -482 -1098 -66
-267 -80 -402 -74 -735 6 -291 13 -399 28 -415 5 -5 9 -28 9 -52 0 -24 7 -60
15 -80 8 -19 15 -48 15 -64 0 -15 4 -31 10 -34 5 -3 10 -18 10 -32 0 -27 16
-84 31 -115 5 -10 9 -25 9 -33 0 -38 146 -394 205 -500 86 -155 114 -202 175
-295 113 -169 116 -174 149 -205 17 -16 31 -35 31 -40 0 -14 225 -244 325
-331 449 -397 1040 -672 1595 -743 178 -22 230 -26 420 -26 417 0 768 70 1157
231 271 112 588 304 823 498 105 87 360 335 360 351 0 6 12 22 26 36 41 38
174 236 252 374 370 657 504 1340 396 2015 -68 428 -240 866 -483 1234 -25 38
-51 77 -57 88 -6 10 -22 31 -35 46 -13 15 -32 40 -42 55 -10 15 -31 40 -47 56
-17 15 -30 33 -30 39 0 14 -296 312 -310 312 -6 0 -32 20 -58 45 -26 25 -60
53 -74 63 -15 9 -54 38 -87 65 -34 26 -65 47 -69 47 -5 0 -19 11 -32 25 -13
14 -32 25 -42 25 -10 0 -18 4 -18 9 0 5 -15 16 -32 25 -35 18 -49 26 -113 67
-22 14 -56 31 -75 39 -19 7 -42 18 -50 24 -29 21 -60 36 -75 36 -8 0 -15 5
-15 10 0 6 -11 10 -25 10 -14 0 -43 11 -65 25 -22 14 -47 25 -55 25 -15 0 -25
4 -72 28 -13 7 -32 12 -42 12 -11 0 -23 5 -26 10 -3 6 -17 10 -31 10 -13 0
-32 4 -42 9 -52 26 -96 41 -122 41 -17 0 -30 5 -30 10 0 6 -18 10 -39 10 -22
0 -43 5 -46 10 -3 6 -33 10 -65 10 -32 0 -62 5 -65 10 -3 6 -26 10 -51 10 -25
0 -55 5 -67 12 -36 20 -516 44 -552 28z m408 -55 c192 -22 349 -49 467 -82 30
-8 69 -18 85 -22 38 -10 214 -69 240 -80 35 -15 88 -38 145 -62 90 -37 317
-159 366 -196 17 -13 36 -23 42 -23 6 0 12 -3 14 -7 2 -5 29 -25 61 -46 31
-20 65 -44 75 -51 9 -8 55 -45 102 -82 257 -204 555 -552 700 -817 23 -43 49
-85 57 -93 9 -8 13 -17 10 -20 -3 -3 13 -39 34 -81 21 -42 39 -82 39 -89 0 -8
5 -14 12 -14 6 0 9 -3 5 -6 -3 -4 0 -18 7 -33 7 -14 16 -44 20 -66 6 -37 5
-39 -9 -21 -14 19 -15 19 -16 -10 -1 -28 -1 -28 -9 6 -5 21 -5 36 1 38 12 5
12 32 -1 32 -5 0 -12 -16 -16 -36 -6 -33 13 -115 46 -199 12 -29 56 -183 68
-235 21 -89 23 -102 53 -290 5 -36 12 -184 15 -330 6 -261 0 -352 -35 -582
-10 -60 -66 -295 -81 -338 -5 -14 -25 -72 -46 -130 -175 -498 -522 -977 -949
-1311 -388 -303 -848 -504 -1330 -579 -103 -16 -446 -40 -502 -35 -26 3 -109
10 -183 15 -120 10 -211 22 -360 50 -118 22 -332 86 -455 136 -33 14 -69 28
-80 33 -72 29 -310 152 -392 203 -462 289 -846 714 -1076 1191 -26 54 -47 100
-47 102 0 3 -13 33 -29 67 -47 104 -120 340 -149 483 -43 205 -62 366 -62 515
0 170 -6 180 -44 72 -17 -49 -39 -100 -48 -113 -17 -24 -17 -22 -19 51 -9 307
17 549 90 845 59 237 183 542 304 745 46 77 139 223 147 230 3 3 23 30 45 60
37 52 94 123 160 199 69 80 227 233 320 310 55 46 111 93 125 104 34 29 256
177 265 177 4 0 19 9 34 19 39 28 267 143 326 165 28 11 68 27 90 37 140 64
458 147 685 180 160 23 532 31 683 14z m-2641 -4803 c5 -2 8 -8 8 -12 0 -12
61 -79 210 -233 124 -128 329 -302 445 -378 33 -21 65 -42 70 -47 29 -22 220
-132 231 -132 7 0 14 -3 16 -7 2 -5 23 -18 48 -29 25 -12 60 -29 79 -38 19 -9
40 -16 47 -16 7 0 14 -4 16 -9 2 -4 28 -17 58 -29 30 -12 48 -21 38 -21 -37
-2 -295 109 -366 157 -15 10 -40 24 -57 32 -70 34 -313 199 -363 247 -7 7 -34
29 -59 50 -88 72 -189 169 -294 285 -75 82 -86 95 -114 133 -17 22 -38 49 -47
59 -10 11 -18 26 -18 34 0 9 9 2 22 -14 13 -16 26 -30 30 -32z"/>
        <path d="M4260 5964 c-205 -23 -342 -47 -485 -84 -106 -28 -317 -99 -330 -111
-5 -5 -15 -9 -22 -9 -19 0 -259 -118 -353 -174 -218 -130 -393 -267 -575 -450
-287 -289 -488 -601 -640 -991 -19 -49 -35 -96 -35 -103 0 -7 -4 -20 -9 -30
-30 -59 -78 -266 -106 -459 -44 -290 -31 -695 30 -963 15 -69 26 -117 42 -193
3 -15 9 -30 14 -33 5 -3 9 -13 9 -22 0 -14 32 -110 60 -177 4 -11 14 -36 21
-55 7 -19 19 -43 27 -52 8 -10 12 -18 7 -18 -4 0 -2 -6 4 -14 7 -8 16 -27 21
-43 8 -27 8 -27 9 -3 0 14 -8 44 -19 67 -16 37 -17 45 -5 57 13 12 12 15 0 20
-8 3 -15 11 -15 18 0 9 3 8 10 -2 9 -13 10 -13 10 0 1 8 7 2 14 -15 22 -51
105 -218 124 -250 9 -16 33 -57 51 -90 47 -83 204 -307 266 -379 75 -89 271
-285 350 -352 379 -317 837 -528 1320 -608 307 -51 671 -46 970 13 168 33 185
38 325 84 391 128 714 318 1015 594 83 77 230 236 288 313 23 30 44 57 48 60
27 24 189 281 189 300 0 5 3 10 8 12 12 5 81 146 134 273 287 693 275 1505
-32 2170 -61 134 -76 163 -108 220 -236 415 -589 778 -991 1023 -91 55 -335
183 -376 197 l-20 7 20 8 c27 11 43 12 26 1 -20 -13 22 -24 59 -16 35 8 50 25
21 25 -11 0 -23 5 -26 10 -3 6 -13 10 -21 10 -8 0 -37 11 -66 25 -28 14 -58
25 -65 25 -7 0 -13 5 -13 10 0 6 -11 10 -25 10 -14 0 -33 4 -43 9 -23 12 -185
61 -202 61 -7 0 -27 4 -44 9 -35 11 -98 23 -236 47 -90 15 -539 28 -630 18z
m600 -150 c116 -15 136 -19 290 -56 373 -89 742 -271 1060 -524 120 -95 361
-341 453 -461 286 -376 460 -788 534 -1263 25 -162 25 -578 0 -738 -81 -517
-280 -961 -604 -1348 -371 -442 -860 -750 -1423 -895 -217 -56 -334 -71 -600
-76 -404 -8 -648 33 -1045 177 -178 65 -451 217 -630 350 -140 105 -157 119
-294 254 -448 437 -726 1006 -790 1616 -20 195 -22 333 -6 510 31 356 120 673
275 979 282 561 782 1031 1355 1275 50 21 99 42 110 47 36 16 209 70 300 94
156 40 365 73 505 79 129 6 390 -5 510 -20z"/>
        <path d="M2863 4589 c-47 -23 -84 -62 -154 -160 -25 -35 -121 -167 -212 -293
-189 -259 -206 -296 -178 -394 13 -43 430 -611 479 -652 46 -38 131 -64 180
-55 41 7 105 45 141 84 14 14 63 78 110 141 46 63 128 174 181 245 186 252
595 816 607 838 17 30 16 115 -2 168 -11 30 -28 53 -54 72 l-39 27 -509 0
c-491 -1 -509 -2 -550 -21z m1063 -33 c17 -24 4 -36 -38 -36 -36 0 -44 -16
-16 -31 28 -15 39 -30 33 -47 -12 -33 -286 -361 -446 -533 -86 -92 -279 -354
-279 -378 0 -5 -3 -11 -7 -13 -5 -1 -44 -56 -87 -121 -80 -119 -124 -167 -153
-167 -17 0 -80 44 -100 70 -10 13 -12 13 -18 -2 -4 -10 -15 -18 -25 -18 -11 0
-22 -4 -25 -10 -12 -20 -47 -9 -76 23 -75 81 -174 226 -189 279 -7 22 -3 31
26 57 19 18 34 35 34 40 0 19 39 -3 80 -44 23 -24 93 -110 154 -192 131 -174
145 -182 195 -111 17 24 35 48 41 55 5 7 10 14 10 17 0 2 61 92 135 200 74
107 135 200 135 206 0 7 -115 10 -359 10 -198 0 -366 3 -375 6 -21 8 -20 16 4
66 28 59 25 63 -18 28 -35 -28 -45 -31 -105 -29 -41 1 -72 -3 -82 -11 -12 -10
-15 -10 -15 0 0 11 211 314 230 330 3 3 28 37 54 75 168 240 207 280 284 296
21 4 250 6 510 6 456 -2 474 -3 488 -21z m-267 -638 c-13 -18 -26 -35 -29 -38
-3 -3 -23 -30 -45 -60 -22 -30 -43 -56 -47 -58 -5 -2 -8 -10 -8 -18 0 -8 -3
-14 -7 -14 -5 0 -19 -17 -33 -37 -14 -20 -31 -42 -38 -49 -7 -7 -12 -16 -12
-19 1 -6 -109 -166 -120 -175 -3 -3 -28 -36 -55 -75 -27 -38 -53 -71 -57 -73
-5 -2 -8 -8 -8 -13 0 -6 -5 -15 -10 -22 -6 -7 -34 -43 -62 -80 -48 -66 -97
-107 -127 -107 -7 0 -1 10 15 22 42 32 44 35 110 123 32 44 65 86 71 95 7 8
42 55 78 104 35 48 76 102 89 120 14 17 43 56 65 86 22 30 44 60 48 65 5 6 31
42 58 80 27 39 54 75 60 81 5 6 26 34 45 62 19 29 36 47 38 42 2 -5 -7 -24
-19 -42z"/>
        <path d="M4442 4588 c-60 -29 -106 -76 -190 -193 -39 -55 -78 -109 -86 -120
-38 -52 -333 -459 -385 -530 -32 -44 -149 -206 -261 -360 -112 -154 -238 -328
-281 -386 -137 -187 -159 -226 -159 -280 0 -101 47 -179 341 -567 151 -199
286 -256 415 -176 48 29 58 42 384 494 80 111 196 270 367 507 68 92 144 197
170 233 26 36 105 146 177 245 71 99 177 245 235 325 102 141 187 259 303 418
61 84 126 211 129 252 3 56 -3 72 -46 115 l-44 45 -513 0 c-500 -1 -514 -2
-556 -22z m1041 -17 c31 -12 43 -40 19 -47 -9 -3 -28 -10 -41 -15 l-24 -10 21
-15 c12 -8 22 -23 22 -33 0 -27 -213 -290 -394 -485 -172 -187 -78 -52 -1026
-1470 -221 -330 -282 -415 -311 -430 -46 -25 -80 -16 -132 35 -46 44 -45 44
-74 24 -20 -14 -24 -12 -66 32 -99 106 -217 282 -217 324 0 24 22 45 43 41 13
-3 7 16 -23 71 -38 69 -38 101 1 161 16 27 28 50 26 52 -2 2 -20 -3 -40 -11
-20 -8 -48 -15 -62 -15 -15 0 -35 -5 -46 -10 -36 -20 -21 20 40 104 65 90 123
170 290 402 63 88 138 191 166 229 29 39 120 165 204 280 83 116 184 255 224
310 41 55 116 159 167 230 134 186 177 227 254 245 46 11 950 12 979 1z"/>
        <path d="M4140 3866 c0 -8 -4 -16 -8 -18 -4 -1 -43 -59 -87 -128 -92 -147
-141 -218 -249 -360 -133 -174 -320 -423 -339 -450 -9 -14 -33 -47 -52 -74
-37 -54 -40 -71 -5 -36 12 12 28 19 37 16 8 -3 30 -6 49 -6 19 0 34 -5 34 -11
0 -8 -18 -10 -55 -7 -30 3 -55 1 -55 -3 0 -13 23 -14 150 -9 69 3 106 7 83 8
-77 4 -46 22 37 22 47 0 80 4 80 10 0 6 33 10 80 10 47 0 80 -4 80 -10 0 -5
18 -10 40 -10 22 0 40 5 40 10 0 7 32 9 87 6 55 -3 92 -1 100 6 11 8 12 7 7
-6 -3 -9 -10 -16 -15 -16 -5 0 -9 -7 -9 -16 0 -9 6 -14 13 -12 12 4 297 410
504 718 64 96 120 177 123 180 9 8 80 118 80 124 0 3 -163 6 -362 6 -200 0
-369 4 -376 8 -9 7 -10 15 -3 35 7 17 7 27 1 27 -6 0 -10 -6 -10 -14z"/>
        <path d="M6053 4586 c-31 -26 -70 -76 -269 -346 -71 -96 -186 -251 -254 -343
-69 -93 -141 -191 -160 -217 -19 -27 -69 -95 -111 -152 -140 -191 -869 -1194
-942 -1296 -26 -36 -54 -75 -62 -87 -95 -127 -307 -422 -328 -456 -23 -36 -32
-122 -18 -175 6 -22 26 -60 44 -85 18 -24 106 -141 195 -259 88 -118 178 -237
199 -265 48 -63 100 -90 173 -89 60 1 132 31 163 68 22 26 946 1293 1139 1561
39 55 131 181 203 280 140 191 296 405 487 669 251 345 248 339 248 424 0 65
-21 102 -195 337 -86 116 -187 254 -225 307 -93 128 -119 148 -198 148 -49 0
-66 -4 -89 -24z m161 -33 c51 -39 276 -375 276 -412 -1 -35 -22 -61 -51 -61
-18 0 -20 -3 -11 -12 7 -7 12 -20 12 -29 0 -9 23 -62 50 -118 28 -56 50 -107
50 -113 0 -13 -41 -82 -52 -86 -4 -2 -8 -8 -8 -13 0 -5 -15 -31 -33 -57 -19
-26 -147 -216 -285 -422 -357 -533 -391 -584 -400 -595 -5 -6 -11 -15 -13 -20
-8 -20 -164 -250 -171 -253 -5 -2 -8 -8 -8 -13 0 -5 -6 -17 -14 -26 -8 -10
-111 -162 -228 -338 -118 -176 -324 -483 -457 -682 -134 -200 -256 -372 -271
-383 -43 -31 -102 -27 -158 12 -26 17 -51 38 -56 46 -6 10 -10 11 -15 3 -8
-13 -39 15 -95 82 -17 22 -41 51 -54 65 -33 39 -150 224 -152 242 -4 28 0 41
10 35 17 -11 11 5 -31 82 -36 65 -41 81 -36 119 l5 44 -34 -6 c-19 -3 -34 -4
-34 -1 0 16 30 59 150 222 20 28 86 118 145 200 59 83 125 173 145 200 21 28
140 192 265 365 287 396 412 569 468 645 24 33 111 152 192 265 81 113 165
228 185 255 34 46 86 118 269 370 35 50 88 122 116 160 28 39 75 102 104 141
69 97 102 117 170 107 19 -2 44 -12 55 -20z m486 -818 c0 -7 -51 -88 -59 -95
-4 -3 -33 -43 -66 -90 -32 -47 -61 -87 -65 -90 -4 -3 -32 -41 -63 -85 -115
-163 -180 -250 -188 -253 -5 -2 -9 -9 -9 -16 0 -7 -8 -21 -18 -32 -9 -10 -39
-50 -67 -89 -27 -38 -52 -72 -55 -75 -3 -3 -28 -36 -56 -75 -56 -80 -136 -188
-165 -225 -11 -14 -30 -42 -41 -62 -12 -21 -25 -38 -30 -38 -4 0 -8 -5 -8 -11
0 -6 -7 -17 -16 -26 -8 -9 -37 -48 -63 -87 -27 -39 -60 -84 -75 -99 -14 -15
-26 -32 -26 -38 0 -5 -4 -9 -10 -9 -5 0 -10 -6 -10 -13 0 -7 -10 -23 -22 -37
-13 -14 -34 -42 -48 -62 -14 -21 -28 -38 -32 -38 -5 0 -8 -7 -8 -15 0 -8 -4
-15 -8 -15 -4 0 -16 -15 -27 -32 -21 -36 -55 -76 -55 -65 0 8 97 146 117 165
7 7 13 17 13 22 0 5 11 20 25 34 14 14 25 28 25 31 0 9 93 139 102 143 5 2 8
10 8 17 0 7 4 15 8 17 5 2 41 50 82 108 41 58 77 107 82 108 4 2 8 10 8 17 0
7 4 15 8 17 4 2 30 35 57 73 27 39 52 72 55 75 3 3 18 24 33 48 15 23 34 50
42 60 38 46 115 154 115 162 0 4 4 10 9 12 4 2 34 41 66 88 32 47 68 96 80
110 12 14 43 57 70 95 27 39 53 72 57 73 4 2 8 10 8 18 0 8 3 14 8 14 4 0 20
20 35 45 16 25 33 45 39 45 5 0 7 4 4 8 -3 5 5 19 18 33 13 14 25 29 27 35 8
19 74 103 82 104 4 0 7 -2 7 -5z"/>
        <path d="M5750 3870 c0 -6 -5 -16 -11 -23 -5 -7 -62 -91 -126 -187 -95 -146
-203 -299 -260 -370 -31 -40 -175 -229 -233 -307 -36 -48 -68 -89 -72 -91 -5
-2 -8 -10 -8 -18 0 -8 -4 -14 -8 -14 -5 0 -14 -10 -20 -22 -7 -13 -19 -34 -29
-48 l-17 -25 21 19 c12 10 29 16 38 13 10 -4 15 -1 15 11 0 16 28 17 359 20
340 3 359 2 364 -15 3 -14 5 -12 11 10 5 15 15 27 25 27 14 0 14 -2 1 -10 -13
-8 -13 -11 3 -27 16 -16 17 -16 17 5 0 12 4 21 9 19 5 -1 33 32 62 73 29 41
56 77 61 78 4 2 8 10 8 18 0 8 3 14 8 14 4 0 16 16 26 35 10 19 26 42 35 53 9
10 21 25 26 34 12 20 100 149 186 273 34 50 106 154 160 232 55 79 99 147 99
153 0 7 -126 10 -362 10 -200 0 -369 4 -376 8 -9 7 -10 15 -3 35 7 17 7 27 1
27 -6 0 -10 -5 -10 -10z"/>
    </g>
</svg>
