<?xml version="1.0" standalone="no"?>
<!DOCTYPE svg PUBLIC "-//W3C//DTD SVG 20010904//EN"
        "http://www.w3.org/TR/2001/REC-SVG-20010904/DTD/svg10.dtd">
<svg version="1.0" xmlns="http://www.w3.org/2000/svg"
     width="820.000000pt" height="595.000000pt" viewBox="0 0 820.000000 595.000000"
     preserveAspectRatio="xMidYMid meet">
    <metadata>
        Created by potrace 1.15, written by Peter Selinger 2001-2017
    </metadata>
    <g transform="translate(0.000000,595.000000) scale(0.100000,-0.100000)"
       fill="#000000" stroke="none">
        <path d="M3615 5530 c-1219 -91 -2183 -473 -2802 -1113 -185 -192 -317 -378
-419 -592 -227 -475 -255 -1006 -77 -1485 238 -644 816 -1175 1655 -1520 978
-403 2357 -500 3478 -244 565 129 1060 339 1463 620 487 339 825 778 966 1253
54 181 75 334 75 541 -1 321 -61 577 -203 859 -413 826 -1412 1425 -2701 1620
-321 49 -509 62 -920 66 -217 2 -449 0 -515 -5z m745 -220 c685 -36 1298 -184
1800 -434 336 -168 566 -332 791 -562 492 -506 675 -1158 504 -1793 -205 -760
-930 -1385 -1945 -1677 -262 -75 -573 -133 -900 -166 -168 -17 -801 -17 -985
0 -1030 96 -1857 431 -2395 971 -412 413 -608 887 -587 1416 26 629 381 1201
999 1614 688 459 1665 685 2718 631z"/>
        <path d="M3730 5244 c-742 -54 -1398 -250 -1930 -580 -256 -158 -539 -414
-696 -629 -219 -300 -334 -647 -334 -1010 0 -514 211 -995 601 -1370 258 -249
540 -407 1024 -575 472 -163 879 -209 1195 -133 230 55 366 200 422 448 l22
100 3 1363 c3 1258 2 1362 -13 1362 -9 0 -98 -42 -198 -94 -99 -51 -380 -194
-622 -316 l-441 -223 -7 -116 c-3 -64 -13 -291 -21 -506 -23 -588 -35 -680
-112 -833 -81 -162 -220 -286 -383 -343 -57 -20 -85 -23 -220 -24 -154 0 -155
0 -246 36 -131 51 -233 112 -321 193 -374 344 -502 990 -308 1545 200 571 740
1048 1474 1302 257 89 577 160 891 198 322 39 811 47 1065 17 812 -95 1543
-395 1973 -810 268 -259 451 -578 523 -914 41 -195 37 -502 -11 -708 -82 -351
-288 -638 -557 -773 -116 -58 -224 -83 -358 -85 -141 -1 -199 11 -312 65 -181
86 -311 263 -368 499 -14 58 -37 500 -58 1128 -3 68 -8 127 -13 132 -5 5 -193
101 -419 214 -225 113 -500 253 -610 311 -110 57 -210 105 -222 105 l-23 0 0
-1269 c0 -778 4 -1318 10 -1397 34 -423 203 -595 626 -635 468 -44 1181 154
1680 467 220 138 409 308 573 519 248 315 353 601 368 1000 10 279 -23 523
-96 708 -70 176 -159 332 -279 487 -90 116 -306 329 -427 421 -492 372 -1168
615 -1965 705 -139 15 -741 28 -880 18z"/>
    </g>
</svg>
