<svg width="36.179" height="21.871" xmlns="http://www.w3.org/2000/svg">

    <g>
        <title>background</title>
        <rect fill="none" id="canvas_background" height="402" width="582" y="-1" x="-1"/>
    </g>
    <g>
        <title>Layer 1</title>
        <path id="svg_1" fill="#397db7"
              d="m27.932,2.152c1.822,0.997 3.884,2.75 3.669,5.087c-0.25,2.166 -2.269,3.678 -4.073,4.589c-5.268,2.518 -12.666,2.595 -18.105,0.395c-1.838,-0.765 -3.901,-2.08 -4.674,-4.056c-0.592,-1.624 0.129,-3.316 1.341,-4.442c2.535,-2.303 5.766,-3.093 9.091,-3.549c3.609,-0.438 7.407,-0.051 10.638,1.057c0.722,0.267 1.434,0.559 2.113,0.919z"/>
        <path id="svg_6" fill="#fff"
              d="m20.912,8.494c0.207,1.065 -0.352,1.95 -0.816,2.81c-0.516,0.799 -1.366,1.486 -2.389,1.384a24.285,24.285 0 0 1 -6.616,-1.014a0.413,0.413 0 0 1 -0.241,-0.172c-0.043,-0.12 0.018,-0.232 0.104,-0.309c1.899,-1.538 4.159,-2.251 6.393,-2.999c0.833,-0.241 1.719,-0.499 2.655,-0.378c0.386,0.051 0.773,0.317 0.91,0.678zm7.828,-4.554c1.065,0.876 2.028,2.071 1.701,3.514c-0.533,2.131 -2.853,3.266 -4.7,3.987c-1.005,0.335 -2.019,0.679 -3.119,0.782c-0.069,-0.008 -0.181,0.009 -0.198,-0.094l0.026,-0.12c1.563,-1.762 2.749,-3.738 3.789,-5.74c0.481,-0.902 0.928,-1.83 1.34,-2.741a0.457,0.457 0 0 1 0.189,-0.129c0.388,0.034 0.663,0.334 0.972,0.541zm-14.994,-2.269l-0.035,0.129c-2.26,2.569 -3.746,5.551 -5.155,8.515c-0.275,0.258 -0.542,-0.086 -0.791,-0.197c-1.254,-0.825 -2.388,-2.157 -2.061,-3.738c0.524,-2.062 2.646,-3.163 4.417,-3.91a16.557,16.557 0 0 1 3.291,-0.894c0.119,0.001 0.274,-0.016 0.334,0.095zm11.213,0.413c0.129,0.068 0.284,0.094 0.361,0.223c0.069,0.146 -0.069,0.241 -0.146,0.335c-1.779,1.392 -3.815,2.165 -5.895,2.844c-1.057,0.257 -2.123,0.722 -3.3,0.464a1.096,1.096 0 0 1 -0.679,-0.516c-0.292,-0.808 0.103,-1.65 0.447,-2.354c0.456,-0.885 1.263,-1.925 2.38,-1.942c2.407,-0.016 4.676,0.344 6.832,0.946z"/>
    </g>
</svg>