<svg width="298" height="142.051" xmlns="http://www.w3.org/2000/svg">

    <g>
        <title>background</title>
        <rect fill="none" id="canvas_background" height="402" width="582" y="-1" x="-1"/>
    </g>
    <g>
        <title>Layer 1</title>
        <path id="svg_1" fill="#231f20"
              d="m180.541,53.957c-2.843,-3.683 -30.538,-41.012 -30.538,-41.012s-27.801,37.645 -30.458,41.095c-10.268,-0.876 -28.11,-7.725 -28.11,-19.611c0,-15.114 25.905,-29.112 58.568,-29.112c34.302,0 58.573,13.998 58.573,29.112c0,11.886 -17.753,18.653 -28.035,19.528m-30.538,-52.957c-42.187,0 -71.55,16.478 -71.55,37.82c0,9.956 6.42,21.22 20.045,27.994c12.647,6.281 30.512,8.47 33.092,8.787l18.413,-54.259l18.602,54.26c2.572,-0.317 20.274,-2.507 32.923,-8.788c13.617,-6.773 20.04,-18.038 20.04,-27.994c0,-21.342 -29.372,-37.82 -71.565,-37.82"/>
    </g>
</svg>