<svg width="192.756" height="192.756" xmlns="http://www.w3.org/2000/svg">

    <g>
        <title>background</title>
        <rect fill="none" id="canvas_background" height="402" width="582" y="-1" x="-1"/>
    </g>
    <g>
        <title>Layer 1</title>
        <g id="svg_1" clip-rule="evenodd" fill-rule="evenodd">
            <path id="svg_4" fill="#000000"
                  d="m140.174,22.308c3.582,-3.456 5.572,-1.886 5.572,1.638l0,115.183a4.402,4.402 0 0 1 -4.404,4.404l-35.775,0a4.404,4.404 0 0 1 -4.404,-4.404l0,-72.657c-0.041,-4.283 0.875,-5.745 3.629,-8.498c2.753,-2.754 35.382,-35.666 35.382,-35.666zm-87.591,0.074c-3.581,-3.456 -5.465,-1.92 -5.465,1.604l-0.108,115.217a4.404,4.404 0 0 0 4.405,4.404l35.775,0a4.404,4.404 0 0 0 4.405,-4.404l0,-72.657c0.041,-4.283 -0.876,-5.745 -3.629,-8.498s-35.383,-35.666 -35.383,-35.666zm-5.616,151.784l0,-21.65l7.097,0l0,21.65l-7.097,0zm22.294,-15.535c-0.121,-0.752 -0.511,-1.203 -1.023,-1.473c-0.511,-0.271 -1.143,-0.391 -1.834,-0.391c-1.564,0 -2.256,0.451 -2.256,1.232c0,3.248 12.449,1.232 12.449,9.111c0,5.021 -4.18,7.457 -10.133,7.457c-5.713,0 -9.442,-3.338 -9.592,-7.248l6.796,0c0.15,0.783 0.571,1.354 1.172,1.715c0.571,0.361 1.323,0.541 2.015,0.541c1.774,0 2.947,-0.57 2.947,-1.594c0,-3.277 -12.449,-1.021 -12.449,-9.291c0,-4.6 3.969,-6.916 9.381,-6.916c6.014,0 8.75,3.066 9.262,6.855l-6.735,0l0,0.002zm9.375,-6.115l7.097,0l0,12.961c0,2.135 0.421,3.969 3.338,3.969c2.555,0 3.308,-1.623 3.308,-3.969l0,-12.961l7.096,0l0,12.238c0,6.945 -3.218,9.982 -10.404,9.982c-6.706,0 -10.435,-2.555 -10.435,-10.012l0,-12.208zm23.555,21.65l0,-5.143l10.373,-11.455l-9.953,0l0,-5.052l18.674,0l0,5.021l-10.523,11.576l10.943,0l0,5.053l-19.514,0zm22.715,-21.869l7.096,0l0,12.959c0,2.135 0.422,3.969 3.34,3.969c2.555,0 3.307,-1.623 3.307,-3.969l0,-12.959l7.096,0l0,12.236c0,6.947 -3.217,9.984 -10.402,9.984c-6.707,0 -10.436,-2.557 -10.436,-10.014l0,-12.206l-0.001,0z"/>
        </g>
    </g>
</svg>