<svg width="803.727" height="410.297" xmlns="http://www.w3.org/2000/svg">

    <g>
        <title>background</title>
        <rect fill="none" id="canvas_background" height="402" width="582" y="-1" x="-1"/>
    </g>
    <g>
        <title>Layer 1</title>
        <path id="svg_13" fill="#241f20" d="m155.373,39.854c6.901,0.208 12.828,-2.367 12.848,-2.736c0.019,-0.369 -7.641,-1.098 -7.641,-1.098c-7.015,0.293 -9.875,2.896 -9.913,3.2c-0.047,0.292 1.828,0.538 4.706,0.634"/>
        <path id="svg_14" fill="#241f20"
              d="m108.462,51.735s0.417,-1.468 0.597,-1.789c0.18,-0.332 1.184,-3.721 6.03,-4.09c0,0 2.442,-0.218 5.255,0.653c0,0 -1.619,4.175 -8.245,4.866c-0.001,0 -2.606,0.389 -3.637,0.36m648.829,188.222c-1.646,4.068 -8.7,9.25 -16.984,12.021c-8.747,2.924 -27.012,3 -36.354,-0.104c0,0 -1.969,-2.141 -8.541,-4.071c-15.28,-4.495 -20.221,-7.629 -27.976,-14.853c-5.48,-5.102 -11.514,-11.502 -17.362,-17.534c-2.604,-2.688 -8.938,-9.032 -20.071,-10.963c-11.615,-2.007 -40.123,-4.185 -50.621,-7.896c-7.063,-2.508 -15.434,-7.27 -25.94,-22.986c-5.037,-7.545 -8.853,-9.742 -16.124,-14.381c0,0 5.549,4.383 8.466,9.704c4.212,7.726 6.229,13.284 8.529,17.391c2.317,4.138 4.999,7.822 9.183,11.182c5.188,4.166 8.54,5.084 14.4,6.267c5.604,1.137 24.738,1.98 41.155,2.623c16.141,0.625 23.043,5.624 28.089,9.857c4.639,3.918 12.033,15.111 17.222,19.691c6.938,6.098 7.119,6.183 15.176,11.238c4.07,2.555 7.659,4.229 10.964,5.416c7.394,4.344 4.336,11.928 4.336,11.928c-2.12,6.042 -9.75,8.207 -18.659,6.947c-13.464,-1.19 -25.052,-12.42 -34.841,-20.477c-5.387,-4.441 -7.291,-6.657 -17.677,-13.872c-15.801,-10.961 -52.931,-10.053 -52.931,-10.053l-27.21,-0.171c-52.999,0.777 -72.39,-41.864 -77.681,-50.812c-1.827,-3.114 -3.521,-5.623 -5.132,-7.678c-2.471,-3.333 -15.771,-20.695 -30.021,-26.896c0,0 13.68,11.834 12.308,18.31c-2.935,-0.038 -6.268,0.151 -10.245,0.265c-53.395,1.563 -64.491,-1.392 -72.926,-3.077c-8.446,-1.695 -22.599,-5.898 -36.354,-12.232c0,0 1.534,-13.159 -3.929,-24.094c0,0 44.072,15.564 79.137,11.153c0,0 -56.595,-2.765 -91.898,-30.9c0,0 8.711,29.737 1.827,42.224c0,0 -9.277,22.674 -56.852,7.545c0,0 -21.88,-8.511 -38.893,-8.511c0,0 -12.809,0.53 -14.341,7.205c0,0 -0.835,3.19 2.508,4.705c0,0 3.711,1.061 1.959,3.815c-2.887,4.554 -6.894,8.076 -10.869,10.063c-13.273,-0.653 -12.289,-11.55 -12.289,-11.55c0.237,-3.863 1.487,-6.561 2.67,-9.221c8.34,-18.66 37.651,-21.368 37.651,-21.368c31.186,-3.114 63.877,4.374 63.877,4.374c-23.385,-5.577 -31.337,-9.667 -38.022,-15.243c-9.004,-7.517 -17.419,-32.775 -17.419,-32.775c-3.588,12.383 0.853,24.899 3.854,31.327c-4.432,-7.072 -10.746,-13.045 -16.379,-17.562c-14.4,-11.542 -35.305,-15.271 -35.305,-15.271c-6.041,-1.033 -8.436,-7.29 -8.436,-7.29c-7.745,-14.258 -16.511,-14.93 -16.511,-14.93c4.316,5.917 3.862,14.012 3.862,14.012c0,14.921 -19.189,19.873 -19.189,19.873c-14.354,14.267 -16.843,13.963 -19.646,14.172c-2.803,0.199 -4.875,-2.708 -4.875,-2.708c-0.91,-1.364 0.605,-2.585 0.605,-2.585c2.423,-1.515 4.715,-3.493 4.715,-3.493c13.993,-11.238 15.962,-16.984 14.826,-24.824c-2.282,-15.66 -14.911,-14.504 -14.911,-14.504c-5.937,0 -8.871,4.525 -8.871,4.525c-2.291,2.727 -7.3,11.256 -7.3,11.256c-4.412,7.291 -8.359,6.22 -8.359,6.22c-4.866,0.313 -8.388,-4.005 -8.388,-4.005c-0.19,-0.169 -0.332,-0.369 -0.492,-0.539c-3.606,-3.873 -0.502,-8.549 -0.502,-8.549c5.938,-10.49 16.18,-11.521 17.572,-11.607c1.4,-0.085 6.125,-0.436 6.125,-0.436c11.567,-0.842 19.123,-11.9 19.123,-11.9c-4.875,-2.357 -13.584,-1.107 -13.584,-1.107c-8.483,0.568 -10.718,9.571 -10.736,9.571c-7.347,1.08 -6.978,-4.563 -5.406,-6.049c1.24,-1.458 5.613,-8.54 33.741,-12.762c0,0 14.921,-2.954 41.42,-0.047c0.975,0.104 1.921,0.957 0.672,2.433c-3.333,3.911 -13.756,12.582 -30.476,8.388c0,0 -0.302,6.684 17.932,10.026c0,0 16.445,3.502 43.294,25.069c0,0 -13.017,-24.075 -35.521,-31.413c0,0 -1.667,-1.06 -0.152,-2.584c0,0 10.65,-9.544 29.443,-8.54c0,0 62.144,3.191 97.079,39.649c0,0 -1.211,-6.078 -6.532,-14.892c0,0 -1.07,-1.051 -0.455,-1.817c0,0 0.455,-1.525 6.533,-0.304c0,0 22.182,3.646 73.674,22.485c0,0 38.599,13.529 59.646,22.258c31.64,13.112 110.908,45.264 160.974,72.975c8.938,4.942 46.173,23.337 46.173,23.337c27.834,17.277 53.444,29.784 53.444,29.784c25.221,11.655 43.559,6.315 43.559,6.315c5.859,-2.207 17.052,-8.283 21.415,-3.968c2.223,2.209 2.355,5.085 1.05,7.805zm6.276,-9.781c-3.297,-7.677 -13.909,-5.794 -13.909,-5.794c-4.854,0.294 -10.979,5.376 -19.492,7.127c-18.31,3.778 -32.312,-2.45 -32.312,-2.45c-26.98,-12.08 -45.244,-25.24 -57.126,-32.038c-11.88,-6.797 -55.856,-29.898 -99.842,-52.004c0,0 -50.386,-25.827 -124.933,-56.644c0,0 -143.829,-65.259 -247.278,-65.259c0,0 -53.585,-0.673 -71.733,19.948c0,0 -3.2,2.651 -1.639,5.917c0,0 0.218,0.9 -0.454,1.477c0,0 -7.981,5.245 -14.477,12.771c0,0 -3.482,3.56 -0.682,8.871c0,0 3.465,6.04 5.653,8.635c2.206,2.584 6.617,7.11 13.357,6.438c2.982,-0.303 3.067,-1.05 3.067,-1.05c3.096,3.124 8.502,3.313 8.502,3.313c-0.54,-1.921 -2.604,-5.728 -2.784,-7.943c-0.199,-2.48 0.766,-4.781 0.766,-4.781c1.127,-2.727 3.239,-6.107 5.389,-7.792c1.912,-1.496 6.654,-3.048 10.195,-0.568c2.842,1.989 5.86,8.36 2.453,16.748c0,0 -3.834,6.627 -7.375,7.365l-0.983,0.047c-2.027,-0.038 -6.542,-2.527 -6.542,-2.527s-0.189,0.54 0.312,2.822c0.293,1.296 0.71,2.736 1.061,3.843l-0.938,0.757s-2.85,2.292 -1.59,5.596c0,0 2.774,10.433 10.518,10.433c6.846,0.228 12.544,-6.267 12.544,-6.267c14.685,-15.839 35.38,-17.969 35.38,-17.969c22.938,-1.563 55.717,21.926 64.644,28.705c-33.969,-0.369 -47.678,12.667 -47.678,12.667c-19.133,14.893 -11.684,32.862 -11.684,32.862c1.393,3.909 5.312,6.759 7.812,7.857c3.605,1.571 6.57,1.637 9.363,1.325c2.017,-0.218 4.23,-0.966 5.357,-1.742c2.604,-1.535 7.252,-4.573 9.496,-7.802c1.497,-1.619 3.001,-5.585 2.007,-9.363c0,0 -0.604,-3.039 2.131,-3.655c0,0 9.002,-2.281 27.181,5.748c0,0 19.749,11.512 45.367,13.794c0,0 29.132,2.954 36.167,-12.819c0,0 16.737,6.845 41.23,9.648c0,0 23.866,2.47 62.58,-0.445c7.619,-0.578 16.566,0.057 16.566,0.057c12.393,1.486 20.27,7.934 23.375,12.98c12.688,20.6 27.825,61.017 89.809,59.418l28.052,-0.77c17.052,0 30.938,0.143 44.572,7.432c5.954,3.191 21.682,18.801 31.365,24.074c28.677,19.325 45.244,10.341 45.244,10.341c9.761,-5.689 8.994,-15.812 6.617,-21.48c-2.935,-0.931 35.531,5.64 51.931,-15.896c3.88,-4.801 4.56,-9.202 3.388,-11.958z"/>
    </g>
</svg>