<svg width="110.02" height="55.84441891" xmlns="http://www.w3.org/2000/svg">

    <g>
        <title>background</title>
        <rect fill="none" id="canvas_background" height="402" width="582" y="-1" x="-1"/>
    </g>
    <g>
        <title>Layer 1</title>
        <path id="svg_1" fill="#f00"
              d="m59.039,4c-15.539,0.003 -29.53,5.303 -31.129,12.406c-1.063,4.725 3.864,9.572 11.394,12.408c8.808,-8.002 18.77,-16.468 31.766,-22.283c-11.847,7.623 -20.586,15.999 -27.705,23.658c2.394,0.626 5.01,1.199 7.781,1.517c4.001,-6.177 8.455,-13.863 21.611,-25.05c-9.557,11.493 -14.015,18.318 -17.875,25.532c14.225,1.273 30.777,-0.51 34.72,-13c1.703,-7.578 -10.596,-14.328 -27.439,-15.096a68.448,68.448 0 0 0 -3.124,-0.092zm-0.563,1.156c6.306,-0.073 11.25,0.625 11.25,0.625c-12.226,4.376 -20.84,8.855 -32.187,15.281c0.11,0.11 -8.954,-1.317 -2.438,-8.812c4.918,-5.658 15.268,-7 23.375,-7.094zm15.969,2.094s8.275,1.048 10.313,8.375c2.242,8.068 -19.01,11.303 -20.438,10.093c3.932,-9.504 5.093,-9.585 10.125,-18.468z"/>
    </g>
</svg>