<svg xmlns="http://www.w3.org/2000/svg" xmlns:xlink="http://www.w3.org/1999/xlink" height="295" width="247.67522582517267" style="">
    <rect id="backgroundrect" width="100%" height="100%" x="0" y="0" fill="none" stroke="none" class="selected" style=""/>
    <linearGradient id="a" x1="1.0837442874908447" x2="-4.310187339782715" y1="0.08206585049629211" y2="3.4228222370147705">
        <stop offset="0" stop-color="#d3d3d3"/>
        <stop offset=".368" stop-color="#4f4c4c"/>
        <stop offset=".813" stop-color="#b0afaf"/>
        <stop offset="1" stop-color="#231f20"/>
    </linearGradient>
    <linearGradient id="b" x1="0.4018719494342804" x2="1.3821196556091309" y1="0.8887495994567871" y2="-3.5137205123901367">
        <stop offset="0" stop-color="#b2b1b1"/>
        <stop offset=".2" stop-color="#b2b1b1"/>
        <stop offset=".99" stop-color="#656263"/>
        <stop offset="1" stop-color="#656263"/>
    </linearGradient>
    <linearGradient id="c" x1="1.0180692672729492" x2="-2.3953661918640137" y1="0.49899807572364807" y2="0.19094352424144745">
        <stop offset="0" stop-color="#4f4c4c"/>
        <stop offset=".359" stop-color="#fff"/>
        <stop offset=".824" stop-color="#4f4c4c"/>
        <stop offset="1" stop-color="#393536"/>
    </linearGradient>
    <linearGradient id="d" x1="0.48850056529045105" x2="0.9438834190368652" y1="0.7438865900039673" y2="-1.5678566694259644">
        <stop offset="0" stop-color="#d3d3d3"/>
        <stop offset=".368" stop-color="#b2b1b1"/>
        <stop offset=".99" stop-color="#231f20"/>
        <stop offset="1" stop-color="#231f20"/>
    </linearGradient>
    <linearGradient id="e" x1="0.8329602479934692" x2="-3.549675703048706" y1="1.191646695137024" y2="-4.163645267486572">
        <stop offset="0" stop-color="#918f90"/>
        <stop offset=".121" stop-color="#9c9a9b"/>
        <stop offset=".17" stop-color="#7b7979"/>
        <stop offset=".308" stop-color="#918f90"/>
        <stop offset=".472" stop-color="#f4f4f4"/>
        <stop offset=".841" stop-color="#7f7d7e"/>
        <stop offset=".962" stop-color="#4f4c4c"/>
        <stop offset="1" stop-color="#4f4c4c"/>
    </linearGradient>
    <radialGradient id="f" cx="559.2639770507812" cy="222.2469940185547" gradientTransform="matrix(1.3758 0 0 1.4521 -153.562 -270.012)" gradientUnits="userSpaceOnUse" r="31.58099937438965">
        <stop offset="0" stop-color="#fff"/>
        <stop offset=".467" stop-color="#fff"/>
        <stop offset=".747" stop-color="#9c9a9b"/>
        <stop offset=".846" stop-color="#7b7979"/>
        <stop offset="1" stop-color="#4f4c4c"/>
    </radialGradient>
    <radialGradient id="g" cx="561.0640258789062" cy="226.36199951171875" gradientTransform="matrix(1.3758 0 0 1.3993 -153.562 -266.195)" gradientUnits="userSpaceOnUse" r="11.152999877929688">
        <stop offset="0" stop-color="#fff"/>
        <stop offset=".228" stop-color="#fff"/>
        <stop offset="1" stop-color="#231f20"/>
    </radialGradient>
    <radialGradient id="h" cx="559.2899780273438" cy="216.53399658203125" gradientTransform="matrix(1.3758 0 0 1.4521 -153.562 -270.012)" gradientUnits="userSpaceOnUse" r="13.142999649047852">
        <stop offset="0" stop-color="#fff"/>
        <stop offset=".571" stop-color="#f7f7f7"/>
        <stop offset=".863" stop-color="#231f20"/>
        <stop offset="1" stop-color="#231f20"/>
    </radialGradient>
    <radialGradient id="i" cx="564.8889770507812" cy="222.6959991455078" gradientTransform="matrix(1.3758 0 0 1.4521 -153.562 -270.012)" gradientUnits="userSpaceOnUse" r="43.53900146484375">
        <stop offset="0" stop-color="#fff"/>
        <stop offset=".253" stop-color="#fff"/>
        <stop offset=".346" stop-color="#a7a6a6"/>
        <stop offset=".412" stop-color="#7b7979"/>
        <stop offset=".472" stop-color="#4f4c4c"/>
        <stop offset="1" stop-color="#4f4c4c"/>
    </radialGradient>
    <linearGradient id="j" x1="0.8645720481872559" x2="-2.2091081142425537" y1="0.2651645541191101" y2="4.384547710418701">
        <stop offset="0" stop-color="#f4f4f4"/>
        <stop offset=".258" stop-color="#bdbcbc"/>
        <stop offset=".648" stop-color="#f4f4f4"/>
        <stop offset=".896" stop-color="#fff"/>
        <stop offset="1" stop-color="#fff"/>
    </linearGradient>
    <linearGradient id="k" x1="0.23647341132164001" x2="3.4336583614349365" y1="0.05821622535586357" y2="3.7285759449005127">
        <stop offset="0" stop-color="#fff"/>
        <stop offset=".069" stop-color="#e3e2e2"/>
        <stop offset=".157" stop-color="#fff"/>
        <stop offset=".33" stop-color="#d3d3d3"/>
        <stop offset=".502" stop-color="#fff"/>
        <stop offset=".98" stop-color="#bbbaba"/>
        <stop offset="1" stop-color="#bbbaba"/>
    </linearGradient>
    <linearGradient id="l" x1="0.03365081548690796" x2="3.551847219467163" y1="0.006706317886710167" y2="3.755997896194458">
        <stop offset="0" stop-color="#dedede"/>
        <stop offset=".507" stop-color="#4f4c4c"/>
        <stop offset="1" stop-color="#dedede"/>
    </linearGradient>
    <linearGradient id="m" x1="0.9416186213493347" x2="-2.353546380996704" y1="0.044022634625434875" y2="4.053225040435791">
        <stop offset="0" stop-color="#c8c7c8"/>
        <stop offset=".1" stop-color="#fff"/>
        <stop offset=".349" stop-color="#f0f0f0"/>
        <stop offset=".538" stop-color="#fff"/>
        <stop offset=".714" stop-color="#393536"/>
        <stop offset=".841" stop-color="#fff"/>
        <stop offset=".91" stop-color="#514e4f"/>
        <stop offset="1" stop-color="#868484"/>
    </linearGradient>
    <linearGradient id="n" x1="0.21745771169662476" x2="1.7826125621795654" y1="0.4296976625919342" y2="1.128077745437622">
        <stop offset="0" stop-color="#fff"/>
        <stop offset=".521" stop-color="#cfcece"/>
        <stop offset=".835" stop-color="#4f4c4c"/>
        <stop offset="1" stop-color="#393536"/>
    </linearGradient>
    <linearGradient id="o" x1="0.47978469729423523" x2="0.869407057762146" y1="0.5226783156394958" y2="-0.071588434278965">
        <stop offset="0" stop-color="#fff"/>
        <stop offset=".209" stop-color="#fff"/>
        <stop offset=".5" stop-color="#dedede"/>
        <stop offset=".945" stop-color="#9c9a9b"/>
        <stop offset="1" stop-color="#959494"/>
    </linearGradient>
    <linearGradient id="p">
        <stop offset="0" stop-color="#231f20"/>
        <stop offset=".179" stop-color="#f4f4f4"/>
        <stop offset=".579" stop-color="#444041"/>
        <stop offset="1" stop-color="#231f20"/>
    </linearGradient>
    <linearGradient id="q" x1="0.03233452886343002" x2="3.6990463733673096" xlink:href="#p" y1="0.048317644745111465" y2="3.6551852226257324"/>
    <linearGradient id="r" x1="0.24194686114788055" x2="3.858079195022583" xlink:href="#p" y1="0.6764187812805176" y2="-0.9763496518135071"/>
    <linearGradient id="s" x1="-0.004127130843698978" x2="3.923508644104004" y1="0.50849449634552" y2="0.50849449634552">
        <stop offset="0" stop-color="#656263"/>
        <stop offset=".286" stop-color="#d3d3d3"/>
        <stop offset=".533" stop-color="#656263"/>
        <stop offset=".758" stop-color="#393536"/>
        <stop offset="1" stop-color="#231f20"/>
    </linearGradient>
    <linearGradient id="t">
        <stop offset="0" stop-color="#231f20"/>
        <stop offset=".179" stop-color="#9e9d9d"/>
        <stop offset=".579" stop-color="#444041"/>
        <stop offset="1" stop-color="#231f20"/>
    </linearGradient>
    <linearGradient id="u" x1="-0.0031454924028366804" x2="3.922895908355713" xlink:href="#t" y1="0.49059635400772095" y2="0.49059635400772095"/>
    <linearGradient id="v" x1="-0.0017044685082510114" x2="3.943443536758423" xlink:href="#t" y1="0.508533775806427" y2="0.508533775806427"/>
    <linearGradient id="w" x1="-0.003505063708871603" x2="3.9259514808654785" xlink:href="#t" y1="0.5068498849868774" y2="0.5068498849868774"/>
    <linearGradient id="x" x1="-0.0008424967527389526" x2="3.929318428039551" y1="0.4715777039527893" y2="0.4715777039527893">
        <stop offset="0" stop-color="#7b7979"/>
        <stop offset=".179" stop-color="#d3d3d3"/>
        <stop offset="1" stop-color="#231f20"/>
    </linearGradient>
    <linearGradient id="y" x1="0.009951574727892876" x2="3.815859317779541" y1="0.4887744188308716" y2="0.4887744188308716">
        <stop offset="0" stop-color="#444041"/>
        <stop offset=".179" stop-color="#d3d3d3"/>
        <stop offset="1" stop-color="#231f20"/>
    </linearGradient>
    <linearGradient id="z" x1="0.006579307839274406" x2="3.90048885345459" y1="0.46980780363082886" y2="0.46980780363082886">
        <stop offset="0" stop-color="#7b7979"/>
        <stop offset=".179" stop-color="#bdbcbc"/>
        <stop offset="1" stop-color="#444041"/>
    </linearGradient>
    <linearGradient id="A" x1="0.4460901618003845" x2="1.038765788078308" y1="0.204560324549675" y2="2.5900931358337402">
        <stop offset="0" stop-color="#fff"/>
        <stop offset=".115" stop-color="#eee"/>
        <stop offset=".907" stop-color="#5a5758"/>
        <stop offset="1" stop-color="#5a5758"/>
    </linearGradient>
    <linearGradient id="B" x1="0.0041221571154892445" x2="3.9355499744415283" y1="0.5021291375160217" y2="0.5021291375160217">
        <stop offset="0" stop-color="#fff"/>
        <stop offset=".98" stop-color="#231f20"/>
        <stop offset="1" stop-color="#231f20"/>
    </linearGradient>
    <linearGradient id="C" x1="0.3934744894504547" x2="1.7444943189620972" y1="0.8802850246429443" y2="-2.8897109031677246">
        <stop offset="0" stop-color="#e9e9e9"/>
        <stop offset=".066" stop-color="#5a5758"/>
        <stop offset=".352" stop-color="#918f90"/>
        <stop offset=".604" stop-color="#b7b5b6"/>
        <stop offset=".959" stop-color="#706d6e"/>
        <stop offset="1" stop-color="#b2b1b1"/>
    </linearGradient>
    <g class="currentLayer" style="">
        <title>Layer 1</title>
        <path d="m217.6403482055664,234.3717421836853 c-3.545,-11.224 -18.119,-39.91 -29.542,-56.124 c-2.363,-3.326 -1.5750000000000002,-5.405 -0.3930000000000001,-6.236 c1.181,-1.248 5.514,-4.99 10.634,-11.225 s6.303,-13.304 2.758,-23.282 s-15.362,-33.675 -17.725,-41.574 c-2.757,-9.146 -3.151,-12.888 -1.576,-17.877 c1.97,-5.82 5.12,-6.236 7.09,-5.82 c1.182,0 1.97,1.247 1.97,2.079 c0,2.494 0,5.82 2.363,12.472 c3.939,10.393 13.392,17.46 16.543,18.708 c1.97,0.8320000000000002 2.363,-0.8310000000000002 2.363,-1.6630000000000005 s-3.545,-13.72 -5.908,-23.697 c-2.363,-10.393 -3.545,-12.472 -5.908,-14.55 c-3.545,-3.327 -8.666,-5.406 -13.392,-5.406 c-10.241,0.4160000000000001 -14.574,10.81 -14.968,11.641 s-0.788,1.247 -1.5750000000000002,0.8320000000000002 c-2.758,-2.079 -11.423,-9.562 -12.21,-14.135 c-0.3950000000000002,-2.91 -0.789,-3.326 -3.5460000000000003,-4.158 c-10.24,-4.157 -18.906,-7.899 -28.36,-9.562 c-3.938,-0.8310000000000002 -3.938,-1.247 -8.665000000000001,0 c-7.878,1.6630000000000005 -12.604,3.326 -18.119,6.652 c-3.15,1.6630000000000005 -3.545,2.91 -4.332,3.742 c-0.3940000000000002,0.8310000000000002 -1.182,1.6630000000000005 -1.97,1.6630000000000005 c-1.97,0.8310000000000002 -9.06,3.325 -11.422,4.9879999999999995 c-1.576,0.8320000000000002 -2.364,2.08 -1.576,3.742 c1.182,3.326 5.514,9.978 7.09,11.64 c1.182,0.8320000000000002 3.939,1.6640000000000001 4.333,1.6640000000000001 c0.787,0 1.181,0.4160000000000001 1.181,0 c0.3940000000000002,-0.4160000000000001 0.3940000000000002,-1.247 1.576,-2.495 c1.97,-1.247 5.514,-2.494 7.484,-2.494 c1.5750000000000002,0 2.363,0 3.15,0.4160000000000001 s2.364,2.494 3.152,4.573 s0.3940000000000002,2.494 -0.788,3.326 c-1.182,0.4150000000000001 -3.939,1.247 -7.878,1.6630000000000005 c-3.545,0.4150000000000001 -4.726,-0.8320000000000002 -4.726,-0.8320000000000002 c0,-0.4160000000000001 -0.788,-0.4160000000000001 -1.182,0 c-0.788,0.8320000000000002 -1.5750000000000002,1.247 -2.757,2.079 c-0.788,0.4160000000000001 -1.182,1.247 -0.3940000000000002,2.494 c2.363,4.158 5.12,8.73 7.878,9.562 c2.363,0.8320000000000002 3.545,0 5.908,-2.078 c2.363,-1.6630000000000005 3.545,-1.6630000000000005 4.333,-1.248 s1.97,1.6630000000000005 1.5750000000000002,2.91 c-0.787,2.08 -4.726,7.068 -5.514,7.9 s-1.576,1.6630000000000005 -2.757,0.8310000000000002 c-1.97,-0.8310000000000002 -30.33,-16.63 -34.268,-18.292 c-4.333,-1.6630000000000005 -7.09,-2.08 -11.029,-2.495 c-3.151,0 -7.878,0 -10.635,0.8320000000000002 c-1.97,0.4150000000000001 -3.151,1.247 -5.12,3.326 c-2.758,2.494 -5.515,5.82 -5.515,8.314 c0,2.079 1.97,5.82 1.97,6.236 c0.3940000000000002,0.4160000000000001 0.787,0.8320000000000002 1.5750000000000002,0.8320000000000002 c1.182,0 3.939,-1.6630000000000005 7.484,-1.247 c3.151,0.4150000000000001 3.545,2.91 3.545,4.989 c0,0.4150000000000001 0.3940000000000002,1.247 1.182,1.247 c1.181,0 3.15,0 5.514,1.247 c2.757,1.247 8.272,5.82 9.06,6.652 s0.787,1.6630000000000005 -0.788,1.6630000000000005 c-6.696,0.8310000000000002 -17.331,2.91 -22.058,4.573 c-3.545,1.247 -7.484,2.91 -8.665000000000001,5.405 c-1.576,2.91 -3.545,7.483 -4.333,11.225 c-0.3940000000000002,3.325 2.757,7.483 3.545,8.314 s1.181,0.8320000000000002 1.97,0.4160000000000001 c1.5750000000000002,-0.8310000000000002 5.514,-3.742 9.452,-3.742 c2.364,0 3.152,2.08 3.94,2.91 c0.3930000000000001,0.8320000000000002 1.18,0.4160000000000001 3.15,-0.4150000000000001 c3.545,-1.247 24.421,-0.8320000000000002 31.905,-0.4160000000000001 c3.151,0 7.878,0.8320000000000002 11.423,2.495 c3.545,2.078 9.453,8.314 9.453,8.314 s-8.272,14.551 -12.604,23.282 c-3.94,7.899 -7.09,13.72 -8.666,17.46 c-1.182,3.327 -2.363,7.484 -2.363,11.226 c0.3940000000000002,4.989 0.3940000000000002,7.899 0.3940000000000002,9.978 s-1.97,2.078 -4.333,2.91 c-3.545,0.8310000000000002 -10.635,1.6630000000000005 -16.543,3.326 c-5.12,1.247 -7.09,2.494 -8.272,7.067 c-0.788,3.326 -1.97,11.641 -1.97,15.383000000000001 c0,1.6630000000000005 0,2.494 1.576,2.078 c1.182,-0.4150000000000001 3.94,-0.8310000000000002 7.878,-0.8310000000000002 c4.727,-0.4160000000000001 10.241,-0.4160000000000001 14.18,-0.4160000000000001 c7.484,0 29.541,1.247 31.117,1.6630000000000005 c1.97,0 2.363,0 1.97,-1.247 c0,-1.6630000000000005 -0.3950000000000002,-7.483 -0.3950000000000002,-11.225 c0,-3.326 -0.787,-7.068 2.364,-10.394 s25.602,-29.933 26.784,-31.18 s1.97,-2.495 3.545,-0.8320000000000002 s20.088,15.799 24.027,18.709 s7.09,3.741 11.422,3.741 c3.151,0 3.94,5.82 1.182,6.236 s-6.696,1.248 -9.453,2.08 c-4.333,1.246 -5.908,2.494 -7.09,5.82 c-1.182,2.494 -2.363,15.382 -2.363,16.63 c0,0.8300000000000002 0,2.078 1.181,1.6620000000000004 c5.515,-1.247 13.786,-1.6630000000000005 23.24,-1.247 c10.634,0.4160000000000001 20.875,1.247 22.057,1.247 c1.576,0 1.576,0 2.363,-1.247 c1.182,-2.079 5.12,-7.068 8.666,-9.978 c3.939,-2.494 3.939,-3.326 3.15,-5.405 m-40.175,-78.159 c-2.758,0.8320000000000002 -4.333,0 -5.515,-1.247 s-11.816,-14.966 -15.361,-18.708 c-1.576,-2.079 -3.151,-6.652 1.97,-8.73 c4.332,-1.6640000000000001 11.816,-4.158 13.785,-5.405 s3.151,-2.495 3.545,-4.573 v-5.82 c0,-0.8300000000000002 1.182,-1.6640000000000001 1.576,-0.4170000000000001 c0.3930000000000001,0.8320000000000002 2.363,4.574 4.726,9.147 c3.545,6.652 7.878,15.382 9.453,19.124 c1.182,3.326 0.788,6.236 -1.181,8.73 c-3.151,3.326 -11.029,7.068 -12.998,7.9 "
              fill="#231f20" id="svg_1" class=""/>
        <path d="m188.10118820556636,61.84030218368531 c-8.271585,0 -16.54317,9.97776 -14.96763,24.9444 c1.1816550000000001,9.14628 2.3633100000000002,13.30368 4.7266200000000005,19.53978 c1.1816550000000001,2.9101800000000004 15.361514999999999,31.1805 16.149285,34.09068 c0.7877700000000003,4.1574 0,7.06758 -3.1510800000000003,9.97776 c-3.544965,3.32592 -9.059355,7.06758 -12.998204999999999,8.3148 c-0.7877700000000003,0.41574 -1.5755400000000002,0.41574 -2.3633100000000002,0.41574 s-3.1510800000000003,-0.41574 -7.08993,-5.82036 l18.11871,25.77588 c-2.3633100000000002,-3.32592 -3.544965,-5.82036 -3.1510800000000003,-7.8990599999999995 s3.93885,-4.57314 7.483815,-7.48332 c3.93885,-3.32592 7.8777,-7.06758 9.847125,-12.4722 c0.39388500000000026,-1.66296 0.7877700000000003,-2.9101800000000004 0.7877700000000003,-4.57314 c0,-4.98888 -2.3633100000000002,-10.80924 -5.1205050000000005,-17.04534 c-3.544965,-8.3148 -13.785975,-25.77588 -16.937055,-38.248079999999995 c-0.7877700000000003,-2.9101800000000004 -1.1816550000000001,-5.82036 -1.1816550000000001,-8.3148 c0,-7.06758 2.7571950000000003,-11.64072 6.302160000000001,-12.88794 c1.5755400000000002,-0.83148 3.1510800000000003,-0.83148 4.3327350000000004,-0.83148 c1.9694250000000002,0 3.1510800000000003,0.41574 3.93885,0.83148 s1.1816550000000001,1.66296 1.1816550000000001,2.9101800000000004 v2.0787 c0,2.9101800000000004 0.39388500000000026,9.14628 3.544965,15.382380000000001 c3.93885,7.8990599999999995 11.02878,12.4722 13.39209,13.30368 c0.39388500000000026,0 -6.302160000000001,-25.360139999999998 -7.483815,-29.93328 c-0.7877700000000003,-6.2361 -4.7266200000000005,-11.64072 -15.361514999999999,-12.05646 c0.39388500000000026,0 0.39388500000000026,0 0,0 z"
              fill="url(#a)" id="svg_2" class=""/>
        <path d="m74.66230820556666,118.3809421836853 c1.5755400000000002,1.66296 -1.1816550000000001,1.66296 -9.45324,2.4944400000000004 c-8.665470000000001,0.83148 -17.330940000000002,2.4944400000000004 -21.663675,4.57314 c-3.1510800000000003,1.2472200000000002 -5.1205050000000005,2.0787 -6.6960450000000025,5.40462 s-2.7571950000000003,6.2361 -3.1510800000000003,8.73054 c0,1.2472200000000002 0,1.66296 0.39388500000000026,2.9101800000000004 c0.39388500000000026,0.41574 1.1816550000000001,-16.21386 21.663675,-17.46108 c18.11871,-0.83148 22.84533,-2.9101800000000004 19.300365000000003,-6.65184 z"
              fill="url(#b)" id="svg_3" class=""/>
        <path d="m189.28284320556668,69.7393621836853 c-1.1816550000000001,0 -2.3633100000000002,0.41574 -3.93885,0.83148 c-2.7571950000000003,1.2472200000000002 -5.51439,4.98888 -5.51439,11.64072 v1.66296 s0.39388500000000026,-4.57314 1.1816550000000001,-6.65184 c1.9694250000000002,-5.82036 5.1205050000000005,-6.65184 7.483815,-6.65184 c1.5755400000000002,0 2.3633100000000002,0.41574 2.7571950000000003,1.2472200000000002 c0.39388500000000026,0.41574 0.7877700000000003,1.2472200000000002 0.7877700000000003,2.0787 c0,2.4944400000000004 0,5.40462 2.3633100000000002,12.05646 c0,0.41574 0.39388500000000026,0.83148 0.39388500000000026,1.2472200000000002 c-1.9694250000000002,-5.40462 -2.3633100000000002,-9.97776 -2.3633100000000002,-12.4722 v-1.66296 c0.39388500000000026,-2.4944400000000004 -1.5755400000000002,-3.32592 -3.1510800000000003,-3.32592 z"
              fill="url(#c)" id="svg_4" class=""/>
        <path d="m75.45007820556611,119.21242218368533 c0.7877700000000003,1.66296 -1.9694250000000002,1.2472200000000002 -10.241010000000001,2.0787 c-8.665470000000001,0.83148 -17.330940000000002,2.4944400000000004 -21.663675,4.1574 c-3.1510800000000003,1.2472200000000002 -5.1205050000000005,2.0787 -6.6960450000000025,5.40462 s-2.7571950000000003,6.2361 -3.1510800000000003,8.73054 c0,1.2472200000000002 0,1.66296 0.7877700000000003,2.9101800000000004 c0.7877700000000003,1.66296 1.5755400000000002,1.66296 2.7571950000000003,0.83148 s5.51439,-3.32592 8.665470000000001,-3.32592 c2.7571950000000003,0 3.93885,1.66296 4.3327350000000004,3.32592 c0.39388500000000026,0.83148 1.5755400000000002,0.41574 1.5755400000000002,0.41574 c1.1816550000000001,-0.41574 2.3633100000000002,-0.83148 6.6960450000000025,-0.83148 c5.1205050000000005,-0.41574 24.814754999999998,0 32.29857,0 c6.6960450000000025,0 32.29857,21.61848 32.692455,21.61848 l1.1816550000000001,-2.9101800000000004 c-8.665470000000001,-7.48332 -41.357925,-34.92216 -49.235625,-42.821220000000004 z"
              fill="url(#d)" id="svg_5" class=""/>
        <path d="m49.45366820556683,87.61618218368531 c-1.5755400000000002,0.41574 -2.7571950000000003,0.41574 -4.3327350000000004,2.0787 s-4.7266200000000005,3.74166 -5.51439,6.2361 c-0.39388500000000026,0.83148 -0.7877700000000003,1.66296 -0.39388500000000026,2.0787 c0,1.2472200000000002 0.7877700000000003,2.0787 0.7877700000000003,2.4944400000000004 c0.39388500000000026,0.41574 0.7877700000000003,0.41574 1.5755400000000002,0.41574 c1.5755400000000002,-0.41574 4.7266200000000005,-0.83148 6.6960450000000025,-0.83148 c1.1816550000000001,0 3.1510800000000003,0.41574 3.93885,1.2472200000000002 c1.1816550000000001,1.2472200000000002 1.1816550000000001,2.4944400000000004 1.1816550000000001,3.32592 c0,0.41574 0,0.83148 0.7877700000000003,0.83148 c1.1816550000000001,0 2.3633100000000002,0 3.93885,0.41574 c3.93885,0.83148 9.059355,4.1574 13.785975,9.14628 c9.059355,9.14628 20.875905,22.44996 31.904684999999997,31.596239999999998 c5.51439,4.57314 14.573745,10.3935 17.724825,13.71942 c0.39388500000000026,0.41574 -0.7877700000000003,0.83148 -1.5755400000000002,0.41574 c-0.39388500000000026,-0.41574 -5.51439,-4.57314 -6.6960450000000025,-4.98888 c-0.7877700000000003,-0.41574 -1.9694250000000002,0 -3.1510800000000003,1.66296 c-8.665470000000001,12.4722 -18.512595,33.67494 -22.84533,43.6527 c-0.7877700000000003,2.4944400000000004 -1.5755400000000002,5.40462 -1.5755400000000002,7.8990599999999995 c0,2.9101800000000004 0.39388500000000026,8.3148 0.39388500000000026,10.80924 s-0.39388500000000026,3.32592 -3.544965,4.1574 c-5.1205050000000005,0.83148 -16.54317,2.9101800000000004 -19.300365000000003,3.74166 c-2.3633100000000002,0.41574 -3.93885,1.66296 -4.7266200000000005,4.1574 c-1.1816550000000001,3.74166 -2.3633100000000002,9.97776 -2.3633100000000002,11.22498 c0,0.83148 0.39388500000000026,1.66296 1.1816550000000001,1.2472200000000002 c4.3327350000000004,-1.2472200000000002 10.634895,-2.0787 19.69425,-1.66296 c9.059355,0 24.814754999999998,1.66296 26.78418,2.0787 c0.7877700000000003,0 1.5755400000000002,0 1.5755400000000002,-0.83148 s-0.39388500000000026,-5.40462 -0.39388500000000026,-11.22498 s4.7266200000000005,-9.97776 11.422665,-17.46108 s22.84533,-24.11292 23.239215,-24.528660000000002 s0.7877700000000003,-0.83148 0,-1.66296 c-1.1816550000000001,-1.2472200000000002 -6.302160000000001,-6.65184 -6.6960450000000025,-7.48332 c-0.39388500000000026,-0.41574 -0.7877700000000003,-1.2472200000000002 -0.7877700000000003,-1.66296 c0.39388500000000026,-0.41574 0.7877700000000003,0 1.5755400000000002,0.83148 c3.1510800000000003,2.4944400000000004 37.02519,31.596239999999998 39.3885,32.42772 c2.3633100000000002,1.2472200000000002 3.93885,1.2472200000000002 5.908275,1.66296 c1.5755400000000002,0.41574 3.1510800000000003,2.9101800000000004 3.1510800000000003,4.57314 c0.39388500000000026,2.0787 0,4.57314 -2.3633100000000002,4.98888 c-2.3633100000000002,0.83148 -8.665470000000001,1.66296 -10.634895,2.4944400000000004 c-2.3633100000000002,0.83148 -3.544965,1.66296 -4.7266200000000005,4.1574 c-0.7877700000000003,2.4944400000000004 -1.9694250000000002,9.97776 -2.3633100000000002,10.3935 c0,1.66296 0.39388500000000026,1.66296 1.5755400000000002,1.2472200000000002 c1.5755400000000002,-0.41574 3.1510800000000003,-0.83148 9.45324,-1.2472200000000002 c11.02878,-0.41574 27.57195,1.2472200000000002 29.541375,1.2472200000000002 c0.7877700000000003,0 1.1816550000000001,-0.83148 1.5755400000000002,-1.2472200000000002 c2.3633100000000002,-4.1574 1.5755400000000002,-5.40462 4.7266200000000005,-7.8990599999999995 c1.5755400000000002,-1.2472200000000002 2.3633100000000002,-1.66296 1.1816550000000001,-4.1574 c-10.241010000000001,-24.528660000000002 -19.69425,-40.742520000000006 -35.44965,-61.945260000000005 c-9.847125,-13.71942 -21.663675,-28.68606 -25.602525,-33.2592 l-46.872315,-28.270319999999998 c-2.7571950000000003,-1.2472200000000002 -24.42087,-13.30368 -28.35972,-14.96664 c-3.93885,-2.0787 -6.6960450000000025,-3.74166 -10.634895,-4.57314 c-2.7571950000000003,-0.83148 -5.51439,-0.83148 -7.8777,-0.83148 c-1.5755400000000002,1.66296 -3.93885,1.66296 -5.908275,2.0787 "
              fill="url(#e)" id="svg_6" class=""/>
        <path d="m101.84037320556627,64.33474218368531 c-6.6960450000000025,2.0787 -15.361514999999999,5.82036 -15.7554,5.82036 v0.41574 l0.7877700000000003,1.66296 s0.39388500000000026,1.2472200000000002 1.5755400000000002,2.0787 s2.7571950000000003,1.2472200000000002 2.7571950000000003,1.2472200000000002 c0.39388500000000026,0 0.39388500000000026,0 0.7877700000000003,-0.41574 s1.1816550000000001,-2.9101800000000004 5.908275,-4.1574 c2.3633100000000002,-0.83148 4.3327350000000004,-0.83148 5.1205050000000005,-0.83148 c1.1816550000000001,0 3.1510800000000003,0.83148 4.3327350000000004,1.66296 c1.5755400000000002,1.66296 3.1510800000000003,4.57314 3.544965,6.2361 c0.39388500000000026,1.2472200000000002 0,2.9101800000000004 -1.1816550000000001,3.74166 s-5.1205050000000005,1.66296 -7.483815,2.0787 s-4.7266200000000005,0 -6.302160000000001,-0.83148 h-0.7877700000000003 c-0.39388500000000026,0.41574 -0.7877700000000003,0.83148 -1.9694250000000002,1.66296 c-0.39388500000000026,0 -0.39388500000000026,0.41574 0,0.83148 s3.1510800000000003,5.82036 5.1205050000000005,7.06758 s2.7571950000000003,0.83148 4.7266200000000005,-0.41574 s3.544965,-2.9101800000000004 5.908275,-2.9101800000000004 s4.3327350000000004,2.0787 4.3327350000000004,4.57314 c0.39388500000000026,2.9101800000000004 -1.1816550000000001,4.57314 -2.3633100000000002,6.65184 c-1.1816550000000001,1.66296 -3.1510800000000003,4.1574 -4.3327350000000004,5.82036 c-1.5755400000000002,1.66296 -3.93885,1.2472200000000002 -3.93885,1.2472200000000002 l19.69425,10.3935 c2.7571950000000003,1.66296 7.483815,0 10.241010000000001,-5.82036 c0.7877700000000003,-1.2472200000000002 5.1205050000000005,-11.64072 6.302160000000001,-14.5509 s2.7571950000000003,-6.2361 0,-12.05646 s-10.634895,-16.21386 -13.785975,-20.371260000000003 c-1.5755400000000002,-2.0787 -3.544965,-3.32592 -7.8777,-3.74166 h-1.5755400000000002 c-3.1510800000000003,0.41574 -7.8777,1.2472200000000002 -13.785975,2.9101800000000004 "
              fill="url(#f)" id="svg_7" class=""/>
        <path d="m102.23425820556668,84.70600218368531 c-2.3633100000000002,0.41574 -4.7266200000000005,0 -6.302160000000001,-0.83148 h-0.39388500000000026 c-0.39388500000000026,0.41574 -0.7877700000000003,0.83148 -1.9694250000000002,1.2472200000000002 c-0.39388500000000026,0 -0.39388500000000026,0.41574 0,0.83148 s2.7571950000000003,4.98888 4.7266200000000005,6.65184 c1.9694250000000002,1.2472200000000002 2.7571950000000003,0.83148 5.1205050000000005,-0.41574 s3.544965,-2.9101800000000004 5.908275,-2.4944400000000004 l0.39388500000000026,-6.65184 c-1.1816550000000001,0.41574 -5.1205050000000005,1.2472200000000002 -7.483815,1.66296 "
              fill="url(#g)" id="svg_8" class=""/>
        <path d="m86.87274320556662,70.5708421836853 v0.83148 l0.7877700000000003,1.66296 s0.39388500000000026,0.83148 1.5755400000000002,1.66296 s2.3633100000000002,0.83148 2.7571950000000003,1.2472200000000002 c0.39388500000000026,0 0.39388500000000026,0 0.7877700000000003,-0.41574 s1.1816550000000001,-2.9101800000000004 5.908275,-4.1574 c2.3633100000000002,-0.83148 4.3327350000000004,-0.83148 5.1205050000000005,-0.83148 l-1.9694250000000002,-5.40462 c-6.6960450000000025,1.66296 -14.96763,4.98888 -14.96763,5.40462 "
              fill="url(#h)" id="svg_9" class=""/>
        <path d="m111.29361320556654,101.3356021836853 c-1.1816550000000001,1.66296 -3.1510800000000003,4.1574 -4.3327350000000004,5.82036 c-1.5755400000000002,1.66296 -3.544965,1.2472200000000002 -3.544965,1.2472200000000002 s11.81655,6.2361 18.90648,10.3935 c2.7571950000000003,1.66296 7.08993,0.41574 10.241010000000001,-5.40462 c0.7877700000000003,-1.2472200000000002 5.1205050000000005,-11.64072 6.302160000000001,-14.5509 l-25.602525,-3.74166 c0.7877700000000003,2.4944400000000004 -0.7877700000000003,4.57314 -1.9694250000000002,6.2361 "
              fill="url(#i)" id="svg_10" class=""/>
        <path d="m72.69288320556643,135.01054218368532 c-3.1510800000000003,0 -10.241010000000001,0.83148 -12.210435,1.2472200000000002 s-5.1205050000000005,3.32592 -5.51439,3.74166 c-0.7877700000000003,0.83148 -0.7877700000000003,1.66296 0,1.66296 h2.3633100000000002 c2.3633100000000002,-0.41574 9.45324,-0.41574 16.937055,-0.41574 h18.11871 c-3.1510800000000003,-3.32592 -5.51439,-7.48332 -6.302160000000001,-7.48332 c-1.9694250000000002,0 -12.604320000000001,0.83148 -13.39209,1.2472200000000002 "
              fill="url(#j)" id="svg_11" class=""/>
        <path d="m54.57234820556641,142.0777421836853 c-0.3940000000000002,0 -0.3940000000000002,-0.4160000000000001 -0.3940000000000002,-0.8310000000000002 s0.3940000000000002,-0.8320000000000002 0.787,-1.247 s3.545,-3.326 5.909,-3.742 c1.97,-0.4160000000000001 9.06,-1.247 12.21,-1.247 c0.788,0 11.423,-0.8320000000000002 12.998,-1.248 c0.3940000000000002,0 0.788,0.4160000000000001 1.182,0.8320000000000002 s0.788,1.247 1.576,1.6630000000000005 c1.181,1.6630000000000005 2.363,3.326 3.938,4.989 l0.3940000000000002,0.4150000000000001 h-18.512 c-7.878,0 -14.574,0.4160000000000001 -16.937,0.4160000000000001 zm0.787,-0.4160000000000001 h1.576 c2.363,-0.4150000000000001 9.453,-0.4150000000000001 16.937,-0.4150000000000001 h17.725 c-1.97,-2.495 -3.94,-5.405 -5.12,-6.652 l-0.789,-0.8320000000000002 c-1.5750000000000002,0 -11.816,0.8320000000000002 -12.604,0.8320000000000002 c-3.15,0 -10.24,0.8310000000000002 -12.21,1.247 s-5.12,3.326 -5.515,3.742 s-0.3940000000000002,0.8310000000000002 -0.3940000000000002,1.247 s0,0.4160000000000001 0.3940000000000002,0.4160000000000001 c-0.3940000000000002,0.4150000000000001 -0.3940000000000002,0.4150000000000001 0,0.4150000000000001 "
              fill="#7f7d7e" id="svg_12" class=""/>
        <path d="m100.65871820556686,53.52550218368529 c-2.7571950000000003,1.66296 -2.7571950000000003,3.74166 -4.7266200000000005,4.98888 s-6.302160000000001,2.0787 -10.634895,4.1574 c-2.3633100000000002,1.2472200000000002 -2.3633100000000002,1.2472200000000002 -1.9694250000000002,2.9101800000000004 c0.39388500000000026,0.41574 1.9694250000000002,3.74166 2.7571950000000003,3.74166 s1.9694250000000002,-0.41574 2.7571950000000003,-0.83148 c1.1816550000000001,-0.41574 10.241010000000001,-4.1574 17.330940000000002,-5.82036 c7.8777,-1.66296 16.149285,-2.0787 19.300365000000003,1.2472200000000002 c4.7266200000000005,4.98888 12.604320000000001,16.6296 14.96763,21.20274 c2.3633100000000002,4.98888 1.9694250000000002,7.06758 0.39388500000000026,12.05646 c-1.5755400000000002,4.57314 -7.08993,16.6296 -8.665470000000001,19.124039999999997 s-3.544965,3.74166 -8.271585,1.66296 c-5.1205050000000005,-2.0787 -23.6331,-12.4722 -27.57195,-14.5509 c-2.7571950000000003,-1.2472200000000002 -14.17986,-7.48332 -22.84533,-12.05646 c-3.1510800000000003,-1.66296 -5.908275,-2.9101800000000004 -8.665470000000001,-3.74166 c-6.302160000000001,-1.66296 -13.39209,-0.83148 -16.54317,-0.41574 c-1.5755400000000002,0.41574 -2.3633100000000002,2.9101800000000004 -2.3633100000000002,3.74166 s1.5755400000000002,0.83148 3.544965,0.41574 h2.7571950000000003 c2.3633100000000002,0 9.847125,1.2472200000000002 14.573745,2.9101800000000004 c4.7266200000000005,2.0787 28.35972,15.382380000000001 34.267995,18.7083 c45.69066,26.19162 64.991025,42.821220000000004 100.04678999999999,105.18222 c1.5755400000000002,2.9101800000000004 2.3633100000000002,6.2361 0,7.06758 c-3.544965,1.2472200000000002 -18.512595,4.1574 -23.239215,5.82036 c-3.93885,1.2472200000000002 -4.3327350000000004,1.66296 -4.7266200000000005,3.74166 c-0.7877700000000003,2.0787 -1.5755400000000002,6.65184 -1.1816550000000001,7.48332 c0,0.41574 -0.39388500000000026,0.83148 0.39388500000000026,0.83148 c4.3327350000000004,0 19.300365000000003,0 31.116915000000002,1.2472200000000002 c1.5755400000000002,0 1.5755400000000002,0 2.3633100000000002,-1.2472200000000002 c1.1816550000000001,-1.66296 5.1205050000000005,-6.65184 7.8777,-8.73054 c1.1816550000000001,-0.83148 0.39388500000000026,-2.4944400000000004 0,-2.9101800000000004 c-3.1510800000000003,-8.73054 -12.604320000000001,-28.270319999999998 -25.602525,-48.22584 c-12.604320000000001,-19.53978 -34.267995,-46.14714 -37.02519,-50.720279999999995 c-2.7571950000000003,-4.1574 -3.93885,-9.14628 1.9694250000000002,-11.22498 c3.93885,-1.2472200000000002 13.39209,-3.32592 17.330940000000002,-4.57314 s3.93885,-2.4944400000000004 4.3327350000000004,-5.40462 c0.39388500000000026,-3.32592 -0.39388500000000026,-19.53978 -2.3633100000000002,-29.1018 c-0.39388500000000026,-2.0787 -1.5755400000000002,-3.74166 -3.1510800000000003,-4.98888 c-1.1816550000000001,-0.83148 -6.6960450000000025,-5.82036 -9.45324,-9.14628 c-3.1510800000000003,-4.1574 -4.7266200000000005,-7.8990599999999995 -5.51439,-10.80924 s0,-0.41574 -0.7877700000000003,-1.2472200000000002 l-0.7877700000000003,-0.83148 c-5.51439,-3.74166 -25.602525,-9.562019999999999 -29.93526,-9.97776 h-0.7877700000000003 c-3.544965,1.2472200000000002 -12.998204999999999,2.9101800000000004 -21.26979,8.3148 "
              fill="url(#k)" id="svg_13" class=""/>
        <path d="m46.69647320556669,92.6050621836853 h7.08993 c4.3327350000000004,0.41574 9.45324,1.66296 12.998204999999999,2.9101800000000004 c4.7266200000000005,2.0787 27.178065,16.21386 33.08634,19.53978 c17.330940000000002,10.3935 30.723029999999998,19.95552 43.32735,30.764760000000003 c18.90648,16.21386 35.44965,34.92216 55.93167,73.17024 c0.7877700000000003,1.66296 1.1816550000000001,2.4944400000000004 1.1816550000000001,4.1574 c0,2.0787 -1.5755400000000002,2.9101800000000004 -2.3633100000000002,2.9101800000000004 c-3.544965,1.2472200000000002 -18.11871,4.57314 -22.451445,6.2361 c-3.544965,1.2472200000000002 -4.3327350000000004,2.0787 -4.7266200000000005,4.1574 c0,0.83148 -0.7877700000000003,4.57314 -1.5755400000000002,5.40462 s-2.3633100000000002,1.2472200000000002 -4.3327350000000004,1.2472200000000002 c-1.1816550000000001,0 -1.5755400000000002,0 -1.5755400000000002,-1.2472200000000002 s0.7877700000000003,-4.57314 1.1816550000000001,-6.65184 s1.1816550000000001,-3.32592 2.7571950000000003,-4.57314 s7.8777,-2.0787 11.02878,-2.9101800000000004 c3.544965,-0.83148 3.544965,-2.4944400000000004 3.544965,-5.40462 c0,2.9101800000000004 -0.7877700000000003,3.74166 -4.3327350000000004,4.1574 c-3.544965,0.83148 -9.45324,1.66296 -11.02878,2.9101800000000004 c-1.9694250000000002,1.2472200000000002 -2.7571950000000003,3.32592 -2.7571950000000003,4.57314 c-1.1816550000000001,4.98888 -1.9694250000000002,8.73054 -1.9694250000000002,9.97776 s0.39388500000000026,1.2472200000000002 1.5755400000000002,1.2472200000000002 s3.93885,-0.41574 8.665470000000001,-0.83148 c1.1816550000000001,0 1.1816550000000001,-1.66296 1.1816550000000001,-3.32592 c0,-0.83148 0,-2.4944400000000004 0.39388500000000026,-3.74166 c0.39388500000000026,-0.83148 1.1816550000000001,-1.66296 1.9694250000000002,-2.0787 c2.3633100000000002,-0.83148 16.149285,-4.57314 22.84533,-6.65184 c3.1510800000000003,-0.83148 4.3327350000000004,-2.0787 3.93885,-4.98888 c-0.39388500000000026,-2.4944400000000004 -2.3633100000000002,-6.2361 -6.302160000000001,-12.88794 s-9.059355,-15.382380000000001 -15.361514999999999,-25.360139999999998 c-11.81655,-17.46108 -23.239215,-31.1805 -37.419075,-43.23696 c-10.634895,-8.73054 -21.663675,-15.798119999999999 -29.93526,-20.787 s-42.53958,-24.9444 -47.660084999999995,-26.60736 c-4.7266200000000005,-1.66296 -8.665470000000001,-2.0787 -12.210435,-2.4944400000000004 c-2.3633100000000002,-0.41574 -4.3327350000000004,0 -6.302160000000001,0 s-1.1816550000000001,-1.66296 -1.1816550000000001,-2.4944400000000004 c0.39388500000000026,0.41574 -0.7877700000000003,2.9101800000000004 0.7877700000000003,2.9101800000000004 "
              fill="url(#l)" id="svg_14" class=""/>
        <path d="m109.32418820556632,157.87624218368532 c-1.1816550000000001,1.66296 -7.8777,12.88794 -13.39209,23.69718 c-3.93885,7.48332 -8.665470000000001,18.29256 -9.45324,21.20274 c-0.7877700000000003,2.4944400000000004 -1.1816550000000001,4.57314 -0.7877700000000003,7.48332 c0,2.4944400000000004 0.39388500000000026,7.06758 0.7877700000000003,9.97776 c0,2.9101800000000004 -0.39388500000000026,4.1574 -3.544965,4.98888 c-2.3633100000000002,0.41574 -15.7554,2.9101800000000004 -18.90648,3.74166 s-4.3327350000000004,2.4944400000000004 -5.1205050000000005,4.98888 s-1.5755400000000002,7.48332 -1.5755400000000002,8.3148 c0,1.2472200000000002 0,1.2472200000000002 1.1816550000000001,1.2472200000000002 c0.7877700000000003,0 3.1510800000000003,-0.41574 3.93885,-0.41574 s0.7877700000000003,-0.83148 0.7877700000000003,-1.66296 c0.39388500000000026,-0.83148 0.39388500000000026,-2.0787 0.7877700000000003,-4.57314 c0.39388500000000026,-2.0787 1.1816550000000001,-3.74166 3.93885,-4.98888 c2.7571950000000003,-0.83148 16.149285,-3.32592 18.11871,-3.74166 c2.3633100000000002,-0.83148 3.544965,-1.66296 3.93885,-4.1574 s-0.39388500000000026,-7.48332 -0.39388500000000026,-11.22498 c0,-4.1574 0,-6.2361 1.9694250000000002,-10.80924 c4.3327350000000004,-8.73054 17.724825,-29.517539999999997 26.78418,-41.574 s-0.7877700000000003,-0.83148 -1.9694250000000002,-1.66296 s-3.1510800000000003,-2.4944400000000004 -3.93885,-2.4944400000000004 h-0.7877700000000003 c-0.7877700000000003,0 -1.5755400000000002,0.41574 -2.3633100000000002,1.66296 "
              fill="url(#m)" id="svg_15" class=""/>
        <path d="m107.7486482055665,218.57428218368526 c-2.3633100000000002,5.82036 -3.1510800000000003,9.14628 -3.1510800000000003,11.64072 s0.39388500000000026,3.32592 0.39388500000000026,3.32592 c0,-2.4944400000000004 0.7877700000000003,-4.57314 2.3633100000000002,-7.06758 c1.9694250000000002,-2.9101800000000004 5.1205050000000005,-6.2361 9.059355,-10.3935 c6.6960450000000025,-7.48332 22.84533,-24.11292 23.6331,-24.9444 c0.39388500000000026,-0.41574 0.7877700000000003,-0.83148 0,-1.66296 l-5.1205050000000005,-5.40462 c-1.5755400000000002,-1.66296 -2.7571950000000003,-2.4944400000000004 -2.7571950000000003,-3.32592 c-0.39388500000000026,0 -18.512595,21.61848 -24.42087,37.832339999999995 "
              fill="url(#n)" id="svg_16" class=""/>
        <path d="m47.090358205566645,92.6050621836853 l150.46407000000002,133.45254 c1.5755400000000002,-0.41574 2.3633100000000002,-1.66296 2.3633100000000002,-2.4944400000000004 c0,-1.2472200000000002 0,-2.4944400000000004 -0.7877700000000003,-4.1574 c-20.875905,-38.66382 -36.631305000000005,-56.540639999999996 -55.93167,-72.7545 c-3.1510800000000003,-2.9101800000000004 -6.6960450000000025,-5.82036 -10.241010000000001,-8.3148 c-9.847125,-7.48332 -20.482020000000002,-14.96664 -33.08634,-22.44996 c-3.544965,-2.0787 -14.17986,-8.73054 -22.451445,-13.71942 c-4.7266200000000005,-2.9101800000000004 -9.059355,-5.40462 -10.634895,-5.82036 c-3.1510800000000003,-1.66296 -8.665470000000001,-2.4944400000000004 -12.998204999999999,-3.32592 c-1.5755400000000002,0 -2.7571950000000003,-0.41574 -4.3327350000000004,-0.41574 c-0.39388500000000026,-0.41574 -1.5755400000000002,0 -2.3633100000000002,0 "
              fill="url(#o)" id="svg_17" class=""/>
        <path d="m153.4393082055667,55.18846218368529 c0.39388500000000026,0.41574 0.7877700000000003,0.41574 1.1816550000000001,0.83148 c1.1816550000000001,0.83148 1.1816550000000001,2.0787 1.1816550000000001,2.0787 c0.39388500000000026,2.4944400000000004 1.9694250000000002,6.2361 5.1205050000000005,9.97776 c2.7571950000000003,3.32592 8.271585,8.3148 9.45324,9.14628 c0.7877700000000003,0.41574 1.5755400000000002,1.2472200000000002 1.9694250000000002,1.66296 c0.39388500000000026,-2.0787 0.7877700000000003,-4.1574 1.9694250000000002,-6.2361 c0,0.41574 -0.39388500000000026,0.41574 -0.39388500000000026,0.83148 c-0.39388500000000026,0.41574 -0.7877700000000003,0.83148 -1.5755400000000002,0.83148 s-1.1816550000000001,-0.41574 -1.5755400000000002,-0.83148 c-3.1510800000000003,-2.4944400000000004 -11.422665,-9.14628 -12.604320000000001,-15.382380000000001 c-0.7877700000000003,-2.9101800000000004 0,-1.66296 -2.3633100000000002,-2.9101800000000004 c-0.7877700000000003,-0.41574 -1.5755400000000002,-0.83148 -2.3633100000000002,-0.83148 c-0.39388500000000026,0.41574 -0.39388500000000026,0.41574 0,0.83148 "
              fill="url(#q)" id="svg_18" class=""/>
        <path d="m171.1641332055665,119.6281621836853 c-3.93885,1.2472200000000002 -13.785975,3.32592 -17.724825,4.57314 c-2.7571950000000003,1.2472200000000002 -3.1510800000000003,2.0787 -3.1510800000000003,3.32592 s0.7877700000000003,3.32592 1.9694250000000002,5.40462 c1.5755400000000002,2.0787 8.665470000000001,10.80924 16.54317,21.20274 c0.7877700000000003,1.2472200000000002 1.1816550000000001,1.66296 1.9694250000000002,2.4944400000000004 c-0.39388500000000026,-0.41574 -11.422665,-15.382380000000001 -14.96763,-19.53978 c-0.7877700000000003,-1.2472200000000002 -1.9694250000000002,-2.9101800000000004 -1.9694250000000002,-4.98888 s1.5755400000000002,-4.98888 4.7266200000000005,-6.2361 c4.3327350000000004,-1.66296 11.81655,-4.1574 13.785975,-5.40462 c1.5755400000000002,-0.83148 2.3633100000000002,-1.66296 2.3633100000000002,-2.9101800000000004 c-1.1816550000000001,0.83148 -2.3633100000000002,1.66296 -3.544965,2.0787 "
              fill="url(#r)" id="svg_19" class=""/>
        <path d="m188.4950732055663,61.84030218368531 c-7.483815,0 -12.604320000000001,7.06758 -14.17986,13.30368 c1.5755400000000002,-5.82036 6.302160000000001,-12.4722 14.17986,-12.4722 c9.847125,0 13.785975,3.74166 15.361514999999999,9.562019999999999 c-1.5755400000000002,-7.8990599999999995 -8.271585,-10.80924 -14.573745,-10.80924 c-0.39388500000000026,0.41574 -0.7877700000000003,0.41574 -0.7877700000000003,0.41574 "
              fill="url(#s)" id="svg_20" class=""/>
        <path d="m117.20188820556632,216.91132218368531 c-7.483815,8.3148 -11.02878,10.80924 -11.02878,15.798119999999999 c0,2.9101800000000004 0.39388500000000026,10.3935 0.39388500000000026,11.64072 c0,0.83148 0,1.66296 -1.1816550000000001,2.0787 c-0.7877700000000003,0.41574 -1.5755400000000002,0.41574 -1.9694250000000002,0.41574 c-1.9694250000000002,0 -22.05756,-2.0787 -29.14749,-2.0787 s-12.998204999999999,0.83148 -16.54317,1.66296 c-0.7877700000000003,0 -1.9694250000000002,0 -2.7571950000000003,-0.83148 c-0.39388500000000026,-0.41574 -0.39388500000000026,-0.83148 -0.39388500000000026,-1.2472200000000002 c0,1.2472200000000002 -0.39388500000000026,3.32592 -0.39388500000000026,3.74166 c1.1816550000000001,-0.41574 4.3327350000000004,-0.83148 8.271585,-0.83148 c5.1205050000000005,-0.41574 10.634895,-0.41574 14.17986,-0.41574 s31.5108,1.66296 31.5108,1.66296 c0,-2.0787 -0.39388500000000026,-7.48332 -0.39388500000000026,-10.80924 v-3.32592 c0,-2.4944400000000004 0.39388500000000026,-5.82036 2.7571950000000003,-8.3148 c1.1816550000000001,-1.66296 6.302160000000001,-7.48332 11.81655,-13.71942 c-2.3633100000000002,1.66296 -3.93885,3.32592 -5.1205050000000005,4.57314 "
              fill="url(#u)" id="svg_21" class=""/>
        <path d="m140.44110320556638,192.3826621836853 c0.7877700000000003,0 1.5755400000000002,0.41574 1.9694250000000002,1.2472200000000002 c1.5755400000000002,1.2472200000000002 20.088134999999998,15.798119999999999 23.6331,18.29256 c1.5755400000000002,1.2472200000000002 3.1510800000000003,2.0787 4.7266200000000005,2.4944400000000004 c-1.1816550000000001,-0.83148 -3.1510800000000003,-2.4944400000000004 -5.51439,-4.57314 c-3.544965,-2.9101800000000004 -8.271585,-6.65184 -12.604320000000001,-10.3935 c-3.93885,-3.32592 -7.8777,-6.65184 -11.02878,-9.14628 c0,1.2472200000000002 -0.7877700000000003,2.0787 -1.1816550000000001,2.0787 "
              fill="url(#v)" id="svg_22" class=""/>
        <path d="m184.95010820556672,172.0114021836853 c0,0.41574 -0.39388500000000026,1.2472200000000002 -0.39388500000000026,2.0787 c0,1.2472200000000002 0.39388500000000026,2.9101800000000004 1.9694250000000002,4.98888 c0.7877700000000003,1.2472200000000002 1.5755400000000002,2.4944400000000004 2.7571950000000003,3.74166 c12.998204999999999,19.95552 22.05756,39.4953 25.208640000000003,48.64158 c0.7877700000000003,2.0787 0.7877700000000003,3.32592 0,4.1574 s-6.6960450000000025,7.48332 -7.483815,8.73054 l-1.1816550000000001,1.2472200000000002 c-0.39388500000000026,0.41574 -1.5755400000000002,0.83148 -2.7571950000000003,0.83148 c-9.847125,-0.83148 -20.875905,-1.2472200000000002 -26.390295000000002,-1.2472200000000002 c-7.08993,0 -11.02878,0.83148 -13.39209,0.83148 c-1.1816550000000001,0 -1.9694250000000002,-0.41574 -2.3633100000000002,-0.41574 v2.0787 c4.3327350000000004,-0.83148 9.847125,-1.2472200000000002 16.54317,-1.2472200000000002 h6.302160000000001 c10.634895,0.41574 22.84533,1.2472200000000002 22.84533,1.2472200000000002 s5.908275,-7.8990599999999995 9.45324,-11.22498 c0.7877700000000003,-0.41574 0.7877700000000003,-0.41574 0.7877700000000003,-0.83148 s0,-0.83148 -0.39388500000000026,-2.0787 c-3.93885,-11.22498 -18.11871,-39.4953 -29.14749,-54.87768 c-1.1816550000000001,-1.66296 -1.9694250000000002,-3.32592 -1.9694250000000002,-4.98888 s0.7877700000000003,-2.9101800000000004 1.9694250000000002,-3.74166 c0.7877700000000003,-0.83148 2.7571950000000003,-2.4944400000000004 5.1205050000000005,-4.98888 c-4.3327350000000004,3.74166 -7.08993,6.2361 -7.483815,7.06758 "
              fill="url(#w)" id="svg_23" class=""/>
        <path d="m58.5130232055667,144.1568221836853 c-4.3327350000000004,0.41574 -6.302160000000001,0.83148 -6.6960450000000025,0.83148 h-0.7877700000000003 s0.39388500000000026,0.41574 0.39388500000000026,0.83148 h0.39388500000000026 c2.3633100000000002,-0.83148 8.271585,-1.2472200000000002 15.361514999999999,-1.2472200000000002 c6.6960450000000025,0 14.17986,0 18.11871,0.41574 c3.544965,0 8.271585,0.83148 12.210435,2.9101800000000004 c3.544965,2.0787 11.422665,7.8990599999999995 11.81655,7.48332 c-3.1510800000000003,-2.4944400000000004 -6.6960450000000025,-4.57314 -9.45324,-6.65184 c-3.93885,-2.4944400000000004 -7.8777,-4.57314 -9.059355,-4.57314 h-19.300365000000003 c-5.51439,-0.41574 -11.02878,0 -12.998204999999999,0 "
              fill="url(#x)" id="svg_24" class=""/>
        <path d="m52.99863320556642,107.57170218368529 h0.7877700000000003 c1.1816550000000001,0 3.1510800000000003,0 4.7266200000000005,0.83148 c3.1510800000000003,1.66296 11.02878,7.8990599999999995 12.210435,9.14628 c1.5755400000000002,1.66296 3.1510800000000003,1.66296 1.5755400000000002,0.41574 c-4.7266200000000005,-4.57314 -11.422665,-9.562019999999999 -14.96763,-10.3935 c-1.1816550000000001,-0.41574 -2.7571950000000003,-0.41574 -3.93885,-0.41574 s-0.7877700000000003,-1.2472200000000002 -1.1816550000000001,-1.66296 s0,2.0787 0.7877700000000003,2.0787 "
              fill="url(#y)" id="svg_25" class=""/>
        <path d="m45.908703205566326,141.6623821836853 c-2.3633100000000002,0 -7.483815,2.9101800000000004 -8.665470000000001,3.32592 c-1.1816550000000001,0.83148 -1.9694250000000002,0.83148 -2.7571950000000003,0 c0.39388500000000026,0.83148 1.1816550000000001,1.66296 1.5755400000000002,1.2472200000000002 s7.08993,-3.74166 10.241010000000001,-3.74166 c0.7877700000000003,0 1.1816550000000001,0 1.9694250000000002,0.41574 c-0.39388500000000026,-0.83148 -1.1816550000000001,-1.2472200000000002 -2.3633100000000002,-1.2472200000000002 z"
              fill="url(#z)" id="svg_26" class=""/>
        <path d="m110.11195820556668,53.94124218368532 c-1.5755400000000002,0.41574 -6.302160000000001,1.66296 -6.6960450000000025,1.66296 s-0.7877700000000003,0.41574 -1.1816550000000001,0.83148 s-0.39388500000000026,1.66296 -0.39388500000000026,2.4944400000000004 c0,0.41574 0.7877700000000003,0.83148 1.1816550000000001,0.41574 c1.1816550000000001,-0.41574 7.08993,-2.9101800000000004 7.8777,-2.9101800000000004 c0.39388500000000026,0 0.7877700000000003,-0.41574 0.7877700000000003,-0.83148 v-1.2472200000000002 c0,-0.41574 -0.39388500000000026,-0.83148 -0.7877700000000003,-0.83148 c0,0.41574 -0.39388500000000026,0.41574 -0.7877700000000003,0.41574 "
              fill="url(#A)" id="svg_27" class=""/>
        <path d="m110.11034820556642,54.3567421836853 c0.787,0 1.18,0 1.18,0.4160000000000001 v0.8310000000000002 s0,0.4160000000000001 -0.3930000000000001,0.4160000000000001 c-0.788,0.4160000000000001 -5.12,2.079 -5.908,2.495 s-1.576,0 -1.576,-0.4160000000000001 s0,-1.247 0.3940000000000002,-1.247 c0,-0.4160000000000001 0.3940000000000002,-0.4160000000000001 0.788,-0.8320000000000002 c0.3940000000000002,0 4.333,-1.247 5.514,-1.6630000000000005 "
              fill="#231f20" id="svg_28" class=""/>
        <path d="m116.41411820556687,61.00882218368531 c-12.210435,0.41574 -22.84533,5.82036 -29.14749,8.3148 c4.3327350000000004,-1.66296 14.573745,-6.2361 26.390295000000002,-6.65184 c6.302160000000001,-0.41574 9.059355,0 11.422665,2.9101800000000004 c3.544965,4.1574 11.422665,14.96664 14.17986,20.787 c1.1816550000000001,2.0787 1.5755400000000002,4.1574 1.5755400000000002,5.82036 c-0.39388500000000026,2.4944400000000004 -1.1816550000000001,4.57314 -1.9694250000000002,6.2361 c-1.1816550000000001,2.9101800000000004 -5.908275,12.4722 -6.6960450000000025,14.135159999999999 c-3.1510800000000003,5.82036 -6.302160000000001,5.82036 -9.847125,4.98888 s1.5755400000000002,0.83148 3.1510800000000003,1.66296 c3.93885,1.66296 6.302160000000001,-0.83148 8.665470000000001,-4.98888 c0.7877700000000003,-1.2472200000000002 5.51439,-12.05646 6.6960450000000025,-15.382380000000001 c0.7877700000000003,-2.0787 1.5755400000000002,-3.74166 1.5755400000000002,-6.2361 c0,-1.66296 -0.39388500000000026,-4.1574 -1.5755400000000002,-6.2361 c-2.7571950000000003,-5.82036 -11.02878,-17.04534 -14.17986,-21.20274 c-2.7571950000000003,-3.32592 -5.1205050000000005,-4.1574 -9.059355,-4.1574 z"
              fill="url(#B)" id="svg_29" class=""/>
        <path d="m102.23425820556668,182.8206421836853 c-4.3327350000000004,7.48332 -10.634895,18.29256 -11.81655,20.787 c-0.7877700000000003,2.0787 -1.1816550000000001,4.1574 -1.1816550000000001,6.65184 s0.39388500000000026,11.64072 0.39388500000000026,12.05646 c0,1.66296 -0.39388500000000026,2.4944400000000004 -0.7877700000000003,3.74166 c-0.7877700000000003,0.83148 -1.9694250000000002,1.2472200000000002 -3.544965,1.66296 c-2.7571950000000003,0.41574 -14.96763,2.4944400000000004 -18.11871,2.9101800000000004 c-3.1510800000000003,0.83148 -4.7266200000000005,2.4944400000000004 -5.51439,4.57314 c-0.39388500000000026,1.66296 -1.1816550000000001,4.57314 -1.1816550000000001,5.82036 v0.83148 c0,1.2472200000000002 0.39388500000000026,1.2472200000000002 0.39388500000000026,1.2472200000000002 s14.17986,-1.2472200000000002 22.451445,-0.41574 c8.271585,0.41574 20.088134999999998,1.66296 20.088134999999998,1.66296 s-12.210435,-2.4944400000000004 -20.482020000000002,-2.9101800000000004 c-4.3327350000000004,-0.41574 -9.059355,0 -12.604320000000001,0 c-3.93885,0 -6.6960450000000025,0.41574 -6.6960450000000025,0 s-0.39388500000000026,-0.83148 0,-2.0787 c0,-0.83148 0.39388500000000026,-1.66296 0.39388500000000026,-2.4944400000000004 c0.39388500000000026,-2.0787 1.5755400000000002,-4.1574 4.7266200000000005,-4.98888 s14.96763,-2.9101800000000004 17.330940000000002,-3.32592 s3.544965,-1.66296 3.93885,-3.32592 v-3.32592 c0,-2.4944400000000004 -0.39388500000000026,-9.14628 -0.39388500000000026,-9.562019999999999 c0,-4.1574 0.39388500000000026,-6.2361 2.7571950000000003,-10.80924 c3.93885,-7.06758 18.90648,-30.764760000000003 25.996409999999997,-39.07956 c0.39388500000000026,-0.41574 0.7877700000000003,-0.83148 1.5755400000000002,-0.83148 h-0.39388500000000026 s-0.7877700000000003,-0.41574 -1.5755400000000002,-1.2472200000000002 c-1.9694250000000002,1.66296 -10.241010000000001,12.88794 -15.7554,22.44996 "
              fill="url(#C)" id="svg_30" class=""/>
    </g>
</svg>