<svg width="192.756" height="192.756" xmlns="http://www.w3.org/2000/svg">

    <g>
        <title>background</title>
        <rect fill="none" id="canvas_background" height="402" width="582" y="-1" x="-1"/>
    </g>
    <g>
        <title>Layer 1</title>
        <g id="svg_1" clip-rule="evenodd" fill-rule="evenodd">
            <path id="svg_2" d="m1,0l192.756,0l0,192.756l-192.756,0l0,-192.756z" fill="#fff"/>
            <path id="svg_6"
                  d="m125.715,68.235c-3.125,-11.539 -18.057,-17.355 -18.057,-17.355c-3.984,-1.458 -2.393,0.832 -2.393,0.832s17.182,7.909 17.182,18.918c0,13.635 -18.723,17.713 -18.723,17.713c17.029,-5.418 17.078,-16.98 17.078,-16.98c-0.299,-11.56 -15.537,-19.651 -15.537,-19.651c-5.875,-3.333 -9.062,-4.167 -9.062,-4.167c-7.668,-2.569 -5.18,0.417 -5.18,0.417s23.133,7.289 23.133,23.369c0,16.424 -32.244,21.7 -32.244,21.7c30.32,-5.626 30.326,-21.564 30.326,-21.564c0,-14.356 -21.215,-23.505 -21.215,-23.505c-3.186,-1.735 -8.59,-3.133 -8.59,-3.133c-5.006,-1.067 -2.166,1.12 -2.166,1.12c20.318,11.874 20.318,24.998 20.318,24.998c0,14.584 -13.371,18.228 -13.371,18.228c-3.885,1.511 -11.402,2.72 -11.402,2.72c-1.217,0.36 -2.068,1.197 -2.068,2.178c0,0.396 0.096,0.788 0.385,1.099c0.734,0.784 3.205,2.622 3.205,2.622c0.885,0.833 1.402,1.864 1.402,2.98c0,2.738 -3.148,4.96 -7.059,5.011l-0.288,0c-3.91,-0.051 -7.061,-2.272 -7.061,-5.011c0,-1.116 0.52,-2.147 1.403,-2.98c0,0 2.47,-1.838 3.204,-2.622c0.289,-0.311 0.388,-0.702 0.388,-1.099c0,-0.981 -0.853,-1.818 -2.069,-2.178c0,0 -7.518,-1.208 -11.403,-2.72c0,0 -13.371,-3.643 -13.371,-18.228c0,0 0,-13.125 20.318,-24.998c0,0 2.839,-2.187 -2.166,-1.12c0,0 -5.404,1.398 -8.59,3.133c0,0 -21.214,9.148 -21.214,23.505c0,0 0.004,15.938 30.327,21.564c0,0 -32.245,-5.275 -32.245,-21.7c0,-16.08 23.132,-23.369 23.132,-23.369s2.488,-2.986 -5.18,-0.417c0,0 -3.187,0.833 -9.063,4.167c0,0 -15.239,8.091 -15.537,19.651c0,0 0.049,11.562 17.08,16.98c0,0 -18.724,-4.079 -18.724,-17.713c0,-11.009 17.181,-18.918 17.181,-18.918s1.593,-2.291 -2.39,-0.832c0,0 -14.935,5.817 -18.058,17.355c0,0 -0.947,4.347 0.439,7.522c1.68,3.888 6.061,10.328 17.219,13.937c0,0 5.08,2.086 25.399,6.148l1.197,0.273s0.874,0.383 0.248,1.073l-2.799,2.406s-4.105,3.158 1.754,5.816c0,0 3.575,1.218 6.095,3.916c0,0 1.621,1.542 4.366,1.619l0,0.011l0.183,0c0.008,0 0.015,0.003 0.021,0.003l0,-0.003l0.118,0l0,0.003l0.021,-0.003l0.126,0l0,-0.004c2.781,-0.06 4.422,-1.626 4.422,-1.626c2.521,-2.698 6.094,-3.916 6.094,-3.916c5.861,-2.658 1.754,-5.816 1.754,-5.816l-2.797,-2.406c-0.625,-0.69 0.248,-1.073 0.248,-1.073l1.195,-0.273c20.318,-4.062 25.4,-6.148 25.4,-6.148c11.158,-3.609 15.539,-10.048 17.221,-13.937c1.387,-3.175 0.44,-7.522 0.44,-7.522z"
                  fill="#1a3b73"/>
        </g>
    </g>
</svg>