<?xml version="1.0" encoding="UTF-8" standalone="no"?>
<!DOCTYPE svg PUBLIC "-//W3C//DTD SVG 1.0//EN" "http://www.w3.org/TR/2001/REC-SVG-20010904/DTD/svg10.dtd">
<!-- Created with Inkscape (http://www.inkscape.org/) -->
<svg
        xmlns:svg="http://www.w3.org/2000/svg"
        xmlns="http://www.w3.org/2000/svg"
        version="1.0"
        width="55"
        height="35"
        viewBox="0 0 62.334 37.033"
        id="svg2"
        xml:space="preserve"
        style="overflow:visible"><defs
   id="defs22">
			
</defs>

    <path
            d="M 31.097909,2.5110456 C 23.759727,2.5110456 16.987909,4.4583183 11.997,7.4128638 C 6.885182,10.438318 3.6597275,14.507409 3.6597275,18.5865 C 3.6597275,22.6565 6.8706366,26.681045 11.962455,29.670136 C 16.955182,32.601045 23.741546,34.522863 31.097,34.522863 C 38.511545,34.522863 45.326091,32.604682 50.336091,29.677409 C 55.455182,26.6865 58.673363,22.659227 58.673363,18.585591 C 58.673363,14.501955 55.441545,10.429227 50.303363,7.4019547 C 45.298818,4.4537729 38.497,2.5110456 31.097909,2.5110456 L 31.097909,2.5110456 z M 11.577909,6.7019547 C 16.686091,3.6774092 23.607909,1.6837729 31.097909,1.6837729 C 38.647,1.6837729 45.596091,3.6728638 50.721545,6.6919547 C 56.111545,9.8674092 59.500636,14.1965 59.500636,18.585591 C 59.500636,22.969227 56.124272,27.253773 50.753363,30.391045 C 45.626091,33.385591 38.664273,35.349227 31.097909,35.349227 C 23.594273,35.349227 16.658818,33.381045 11.547,30.380136 C 6.2033639,27.243773 2.8333639,22.963773 2.8333639,18.5865 C 2.8333639,14.201046 6.2160911,9.875591 11.577909,6.7019547 L 11.577909,6.7019547 z"
            id="path7"/>
    <polygon
            points="22.708,11.887 36.73,14.935 22.86,17.831 19.812,25.452 16.764,17.678 3.96,14.935 16.764,12.191 19.66,4.875 22.708,11.887 "
            transform="matrix(0.9090909,0,0,0.9090909,2.8333639,1.6837729)"
            id="polygon9"
            style="fill-rule:evenodd"/>
    <polygon
            points="38.103,19.05 44.047,20.27 38.103,21.641 36.883,24.842 35.511,21.489 30.024,20.27 35.511,19.05 36.73,16.002 38.103,19.05 "
            transform="matrix(0.9090909,0,0,0.9090909,2.8333639,1.6837729)"
            id="polygon11"
            style="fill-rule:evenodd"/>
    <polygon
            points="52.582,19.05 58.526,20.27 52.582,21.641 51.362,24.842 49.991,21.489 44.656,20.27 49.991,19.05 51.362,16.002 52.582,19.05 "
            transform="matrix(0.9090909,0,0,0.9090909,2.8333639,1.6837729)"
            id="polygon13"
            style="fill-rule:evenodd"/>
    <polygon
            points="48.771,10.058 54.716,11.277 48.771,12.496 47.552,15.85 46.181,12.496 40.693,11.277 46.181,10.058 47.399,7.009 48.771,10.058 "
            transform="matrix(0.9090909,0,0,0.9090909,2.8333639,1.6837729)"
            id="polygon15"
            style="fill-rule:evenodd"/>
    <polygon
            points="43.132,26.214 49.229,27.586 43.284,28.805 41.912,32.006 40.541,28.805 35.206,27.586 40.541,26.366 41.912,23.318 43.132,26.214 "
            transform="matrix(0.9090909,0,0,0.9090909,2.8333639,1.6837729)"
            id="polygon17"
            style="fill-rule:evenodd"/>
    <polygon
            points="27.433,27.281 33.378,28.652 27.433,29.872 26.213,33.072 24.842,29.719 19.355,28.652 24.842,27.433 26.061,24.232 27.433,27.281 "
            transform="matrix(0.9090909,0,0,0.9090909,2.8333639,1.6837729)"
            id="polygon19"
            style="fill-rule:evenodd"/>
	</svg>