<svg width="153.588" height="185.084" xmlns="http://www.w3.org/2000/svg">

    <g>
        <title>background</title>
        <rect fill="none" id="canvas_background" height="402" width="582" y="-1" x="-1"/>
    </g>
    <g>
        <title>Layer 1</title>
        <path id="svg_1" fill="#ff0016"
              d="m55.487,39.154c1.426,-4.656 5.037,-2.28 5.037,-2.28s9.358,7.126 35.025,23.459s57.666,-6.333 57.666,-6.333l-76,-54c-33.334,35.333 -76,48 -76,48l0.121,0.047l97.147,68.121c-1.426,4.656 -5.037,2.281 -5.037,2.281s-9.358,-7.127 -35.025,-23.461c-25.667,-16.333 -57.666,6.334 -57.666,6.334l76,54c33.334,-35.334 76,-48 76,-48l-0.123,-0.048l-97.145,-68.12z"/>
    </g>
</svg>