<svg width="283.465" height="233.771" xmlns="http://www.w3.org/2000/svg">
    <defs>
        <linearGradient y2="0.164598" x2="0.5" y1="0.925592" x1="0.5" id="a">
            <stop stop-color="#f0f3f5" offset="0"/>
            <stop stop-color="#e2e5e8" offset="0.056"/>
            <stop stop-color="#d4d8dd" offset="0.138"/>
            <stop stop-color="#ccd0d6" offset="0.242"/>
            <stop stop-color="#caced4" offset="0.44"/>
            <stop stop-color="#b3b7bd" offset="0.568"/>
            <stop stop-color="#797c83" offset="0.835"/>
            <stop stop-color="#52545c" offset="1"/>
        </linearGradient>
        <linearGradient y2="0.270819" x2="0.5" y1="1.225925" x1="0.5" id="b">
            <stop stop-color="#f0f3f5" offset="0"/>
            <stop stop-color="#e2e5e8" offset="0.056"/>
            <stop stop-color="#d4d8dd" offset="0.138"/>
            <stop stop-color="#ccd0d6" offset="0.242"/>
            <stop stop-color="#caced4" offset="0.44"/>
            <stop stop-color="#b3b7bd" offset="0.568"/>
            <stop stop-color="#797c83" offset="0.835"/>
            <stop stop-color="#52545c" offset="1"/>
        </linearGradient>
        <linearGradient y2="0.336549" x2="0.125968" y1="1.102698" x1="0.924598" id="c">
            <stop stop-color="#f0f3f5" offset="0"/>
            <stop stop-color="#e2e5e8" offset="0.056"/>
            <stop stop-color="#d4d8dd" offset="0.138"/>
            <stop stop-color="#ccd0d6" offset="0.242"/>
            <stop stop-color="#caced4" offset="0.44"/>
            <stop stop-color="#b3b7bd" offset="0.568"/>
            <stop stop-color="#797c83" offset="0.835"/>
            <stop stop-color="#52545c" offset="1"/>
        </linearGradient>
        <linearGradient y2="0.154532" x2="-0.122611" y1="0.606401" x1="0.977954" id="d">
            <stop stop-color="#f0f3f5" offset="0"/>
            <stop stop-color="#e2e5e8" offset="0.056"/>
            <stop stop-color="#d4d8dd" offset="0.138"/>
            <stop stop-color="#ccd0d6" offset="0.242"/>
            <stop stop-color="#caced4" offset="0.44"/>
            <stop stop-color="#b3b7bd" offset="0.568"/>
            <stop stop-color="#797c83" offset="0.835"/>
            <stop stop-color="#52545c" offset="1"/>
        </linearGradient>
        <linearGradient y2="1.368753" x2="0.500018" y1="-0.20464" x1="0.500018" id="e">
            <stop stop-color="#f0f3f5" offset="0"/>
            <stop stop-color="#e2e5e8" offset="0.056"/>
            <stop stop-color="#d4d8dd" offset="0.138"/>
            <stop stop-color="#ccd0d6" offset="0.242"/>
            <stop stop-color="#caced4" offset="0.44"/>
            <stop stop-color="#b3b7bd" offset="0.568"/>
            <stop stop-color="#797c83" offset="0.835"/>
            <stop stop-color="#52545c" offset="1"/>
        </linearGradient>
        <linearGradient y2="1.368753" x2="0.500018" y1="-0.20464" x1="0.500018" id="f">
            <stop stop-color="#f0f3f5" offset="0"/>
            <stop stop-color="#e2e5e8" offset="0.056"/>
            <stop stop-color="#d4d8dd" offset="0.138"/>
            <stop stop-color="#ccd0d6" offset="0.242"/>
            <stop stop-color="#caced4" offset="0.44"/>
            <stop stop-color="#b3b7bd" offset="0.568"/>
            <stop stop-color="#797c83" offset="0.835"/>
            <stop stop-color="#52545c" offset="1"/>
        </linearGradient>
        <linearGradient y2="0.728128" x2="0.499987" y1="-0.897582" x1="0.499987" id="g">
            <stop stop-color="#f0f3f5" offset="0"/>
            <stop stop-color="#e2e5e8" offset="0.056"/>
            <stop stop-color="#d4d8dd" offset="0.138"/>
            <stop stop-color="#ccd0d6" offset="0.242"/>
            <stop stop-color="#caced4" offset="0.44"/>
            <stop stop-color="#b3b7bd" offset="0.568"/>
            <stop stop-color="#797c83" offset="0.835"/>
            <stop stop-color="#52545c" offset="1"/>
        </linearGradient>
        <linearGradient y2="0.728115" x2="0.499987" y1="-0.897594" x1="0.499987" id="h">
            <stop stop-color="#f0f3f5" offset="0"/>
            <stop stop-color="#e2e5e8" offset="0.056"/>
            <stop stop-color="#d4d8dd" offset="0.138"/>
            <stop stop-color="#ccd0d6" offset="0.242"/>
            <stop stop-color="#caced4" offset="0.44"/>
            <stop stop-color="#b3b7bd" offset="0.568"/>
            <stop stop-color="#797c83" offset="0.835"/>
            <stop stop-color="#52545c" offset="1"/>
        </linearGradient>
        <linearGradient y2="1" x2="0.499998" y1="0" x1="0.499998" id="i">
            <stop stop-color="#f0f3f5" offset="0"/>
            <stop stop-color="#edf0f3" offset="0.253"/>
            <stop stop-color="#e5e8ea" offset="0.406"/>
            <stop stop-color="#d7dadc" offset="0.531"/>
            <stop stop-color="#c3c5c9" offset="0.642"/>
            <stop stop-color="#a9abaf" offset="0.744"/>
            <stop stop-color="#888b90" offset="0.839"/>
            <stop stop-color="#63656b" offset="0.926"/>
            <stop stop-color="#3d3f46" offset="1"/>
        </linearGradient>
        <linearGradient y2="1.056706" x2="0.499993" y1="-0.071898" x1="0.499993" id="j">
            <stop stop-color="#f0f3f5" offset="0"/>
            <stop stop-color="#edf0f3" offset="0.253"/>
            <stop stop-color="#e5e8ea" offset="0.406"/>
            <stop stop-color="#d7dadc" offset="0.531"/>
            <stop stop-color="#c3c5c9" offset="0.642"/>
            <stop stop-color="#a9abaf" offset="0.744"/>
            <stop stop-color="#888b90" offset="0.839"/>
            <stop stop-color="#63656b" offset="0.926"/>
            <stop stop-color="#3d3f46" offset="1"/>
        </linearGradient>
        <linearGradient y2="2.197254" x2="0.500002" y1="-0.020573" x1="0.500002" id="k">
            <stop stop-color="#f0f3f5" offset="0"/>
            <stop stop-color="#edf0f3" offset="0.253"/>
            <stop stop-color="#e5e8ea" offset="0.406"/>
            <stop stop-color="#d7dadc" offset="0.531"/>
            <stop stop-color="#c3c5c9" offset="0.642"/>
            <stop stop-color="#a9abaf" offset="0.744"/>
            <stop stop-color="#888b90" offset="0.839"/>
            <stop stop-color="#63656b" offset="0.926"/>
            <stop stop-color="#3d3f46" offset="1"/>
        </linearGradient>
        <linearGradient y2="1.011242" x2="0.500003" y1="-0.129187" x1="0.500003" id="l">
            <stop stop-color="#caced4" offset="0"/>
            <stop stop-color="#52545c" offset="1"/>
        </linearGradient>
    </defs>
    <g>
        <title>background</title>
        <rect fill="none" id="canvas_background" height="402" width="582" y="-1" x="-1"/>
    </g>
    <g>
        <title>Layer 1</title>
        <path id="svg_4" fill="url(#a)"
              d="m225.129,34.101c0.184,0.508 0.352,1.026 0.484,1.547c0.754,2.996 0.598,5.938 -0.379,8.805c13.008,10.727 20.676,23.957 20.676,38.292c0,35.78 -47.914,64.792 -107.014,64.792c-59.104,0 -107.014,-29.012 -107.014,-64.792c0,-14.323 7.676,-27.564 20.668,-38.292c-0.969,-2.867 -1.125,-5.809 -0.371,-8.805a9.638,9.638 0 0 1 0.621,-1.652c-17.75,12.646 -28.512,29.219 -28.512,47.37c0,39.632 51.308,71.757 114.607,71.757c63.291,0 114.607,-32.125 114.607,-71.757c0.002,-18.113 -10.717,-34.648 -28.373,-47.265z"/>
        <path id="svg_5" fill="url(#b)"
              d="m154.818,60.335c-5.051,0.379 -10.375,0.586 -15.926,0.586c-5.547,0 -10.867,-0.207 -15.918,-0.586l-0.016,0l-3.301,2.398c6.09,0.531 12.521,0.832 19.238,0.832c6.718,0 13.148,-0.301 19.242,-0.832l-3.319,-2.398zm58.541,-25.141c-4.023,-13.297 -37.187,-23.062 -74.463,-23.062c-37.27,0 -70.433,9.767 -74.456,23.062c-3.492,11.535 15.57,22.211 45.644,26.445l-2.613,-3.181c-24.328,-4.14 -38.788,-12.968 -35.452,-22.354c4.043,-11.396 33.409,-19.648 66.874,-19.648c33.464,0 62.837,8.254 66.876,19.648c3.332,9.387 -11.121,18.215 -35.455,22.354l-2.604,3.181c30.063,-4.234 49.138,-14.91 45.649,-26.445z"/>
        <path id="svg_6" fill="url(#c)" d="m123.014,60.335c2.793,-15.52 8.852,-25.219 15.879,-25.219c7.035,0 13.089,9.699 15.886,25.219l0.056,0l3.267,2.371c-2.758,-20.496 -10.312,-33.594 -19.204,-33.594c-8.898,0 -16.449,13.098 -19.203,33.594l3.266,-2.371l0.053,0z"/>
        <path id="svg_7" fill="url(#d)"
              d="m159.092,74.319l-2.672,4.832c0,0.352 0.016,0.714 0.016,1.081c0,25.726 -7.867,45.232 -17.542,45.232c-9.684,0 -17.535,-19.508 -17.535,-45.232c0,-0.406 0.008,-0.809 0.016,-1.198l-2.676,-4.715a145.44,145.44 0 0 0 -0.117,5.886c0,29.167 9.094,51.261 20.316,51.261s20.324,-22.094 20.324,-51.261a147.012,147.012 0 0 0 -0.13,-5.886z"/>
        <path id="svg_8" fill="url(#e)" d="m110.127,61.651c3.844,-28.488 15.27,-49.521 28.77,-49.521c-14.473,0 -26.809,18.634 -31.387,46.384l2.578,3.137l0.039,0z"/>
        <path id="svg_9" fill="url(#f)" d="m167.67,61.651l0.027,0l2.578,-3.137c-4.57,-27.75 -16.914,-46.384 -31.379,-46.384c13.5,0.002 24.934,21.033 28.774,49.521z"/>
        <path id="svg_10" fill="url(#g)" d="m172.072,77.053l-3.281,-3.918l-0.027,0c0.184,3.113 0.289,6.277 0.289,9.491c0,38.934 -13.504,70.495 -30.156,70.495c18.671,0 33.281,-29.272 33.281,-70.495c0,-1.886 -0.039,-3.736 -0.106,-5.573z"/>
        <path id="svg_11" fill="url(#h)" d="m108.748,82.627c0,-3.214 0.105,-6.378 0.285,-9.491l-0.022,0l-3.289,3.906a155.884,155.884 0 0 0 -0.109,5.585c0,41.223 14.621,70.495 33.285,70.495c-16.646,0 -30.15,-31.562 -30.15,-70.495z"/>
        <path id="svg_12" fill="#2d2f34"
              d="m225.234,44.452c4.973,4.102 9.168,8.578 12.449,13.332a45.87,45.87 0 0 0 -8.75,-20.82a89.125,89.125 0 0 0 -3.806,-2.862c0.185,0.508 0.353,1.026 0.483,1.547c0.757,2.995 0.601,5.936 -0.376,8.803zm-172.683,0c-0.969,-2.867 -1.125,-5.809 -0.371,-8.805a9.638,9.638 0 0 1 0.621,-1.652a119.88,119.88 0 0 0 -3.941,2.969a46.053,46.053 0 0 0 -8.75,20.82c3.281,-4.754 7.468,-9.231 12.441,-13.332z"/>
        <path id="svg_13" fill="url(#i)"
              d="m10.547,81.561c0,-43.934 57.46,-79.558 128.35,-79.558c70.88,0 128.341,35.624 128.341,79.558c0,43.943 -57.461,79.554 -128.341,79.554c-70.89,-0.001 -128.35,-35.61 -128.35,-79.554zm128.349,71.561c63.292,0 114.607,-32.125 114.607,-71.757c0,-39.636 -51.315,-71.772 -114.607,-71.772c-63.3,0 -114.611,32.138 -114.611,71.772c0,39.632 51.312,71.757 114.611,71.757z"/>
        <path id="svg_14" fill="url(#j)"
              d="m108.748,82.627c0,-38.525 13.504,-70.495 30.148,-70.495c16.652,0 30.157,31.97 30.157,70.495c0,38.934 -13.505,70.495 -30.157,70.495s-30.148,-31.562 -30.148,-70.495zm30.148,48.839c11.223,0 20.325,-22.094 20.325,-51.249c0,-30.257 -9.103,-51.104 -20.325,-51.104s-20.316,20.847 -20.316,51.104c0,29.155 9.094,51.249 20.316,51.249z"/>
        <path id="svg_15" fill="url(#k)"
              d="m52.18,35.647c3.308,-13.097 43.314,-32.159 86.716,-32.159c43.398,0 82.03,13.62 86.717,32.159c5.246,20.78 -33.309,39.586 -86.717,39.586c-53.417,0 -91.97,-18.805 -86.716,-39.586zm86.716,-23.515c-37.27,0 -70.433,9.767 -74.456,23.062c-4.508,14.895 28.593,28.371 74.456,28.371c45.872,0 78.967,-13.478 74.463,-28.371c-4.023,-13.297 -37.185,-23.062 -74.463,-23.062z"/>
        <path id="svg_16" fill="url(#l)"
              d="m118.658,74.28l0.023,0.016l2.754,4.855c5.605,0.479 11.434,0.753 17.461,0.753c6.055,0 11.898,-0.273 17.54,-0.765l2.68,-4.845l0.016,-0.016c-6.445,0.613 -13.203,0.953 -20.234,0.953a213.256,213.256 0 0 1 -20.24,-0.951zm107.408,-34.14c-0.688,14.858 -23.527,28.022 -57.287,32.983l0.012,0.012l3.293,3.935c33.033,-5.938 54.764,-20.524 53.982,-36.93zm-174.339,0c-0.781,16.422 20.948,30.991 53.975,36.93l3.301,-3.935l0.008,-0.012c-33.766,-4.96 -56.589,-18.124 -57.284,-32.983z"/>
    </g>
</svg>