<svg height="511pt" viewBox="1 -22 511.99999 511" width="511pt" xmlns="http://www.w3.org/2000/svg">
    <path d="m510.773438 157.363281c0-25.324219-20.527344-45.851562-45.847657-45.851562-25.324219 0-45.851562 20.527343-45.851562 45.851562 0 6.96875 1.5625 13.574219 4.347656 19.488281-11.859375 5.578126-20.070313 17.625-20.070313 31.597657 0 19.273437 15.625 34.898437 34.898438 34.898437 19.277344 0 34.902344-15.625 34.902344-34.898437 0-2.011719-.179688-3.980469-.507813-5.898438 21.644531-3.671875 38.128907-22.5 38.128907-45.1875zm0 0"
          fill="#5c5e70"/>
    <path d="m432.089844 72.710938c0 11.339843-9.191406 20.53125-20.527344 20.53125-11.339844 0-20.53125-9.191407-20.53125-20.53125 0-11.335938 9.191406-20.527344 20.53125-20.527344 11.335938 0 20.527344 9.191406 20.527344 20.527344zm0 0" fill="#5c5e70"/>
    <path d="m482.246094 114.902344c-.011719 0-.011719 0-.023438 0-76.550781 17.550781-42.933594 80.480468-42.933594 80.480468-6.828124-4.609374-12.339843-11.015624-15.878906-18.527343l.011719-.007813c-2.785156-5.914062-4.351563-12.519531-4.351563-19.484375 0-25.320312 20.523438-45.855469 45.84375-45.855469 6.136719 0 11.984376 1.210938 17.332032 3.394532zm0 0"
          fill="#3b3d4c"/>
    <path d="m425.351562 240.878906c.011719.011719.011719.011719.011719.023438-12.898437-5.136719-22.011719-17.730469-22.011719-32.453125 0-13.980469 8.210938-26.015625 20.058594-31.59375l.011719-.007813c-2.785156-5.914062-4.351563-12.519531-4.351563-19.484375 0-1.984375.128907-3.949219.371094-5.871093l4.292969-1.226563 4.023437 33.941406c-8.128906 3.929688-25.878906 26.382813-2.40625 56.671875zm0 0"
          fill="#3b3d4c"/>
    <path d="m512 33.152344c0 18.03125-14.617188 32.648437-32.648438 32.648437s-32.648437-14.617187-32.648437-32.648437c0-18.035156 14.617187-32.652344 32.648437-32.652344s32.648438 14.617188 32.648438 32.652344zm0 0" fill="#5c5e70"/>
    <path d="m416.828125 92.554688c-1.683594.441406-3.445313.683593-5.261719.683593-11.332031 0-20.535156-9.191406-20.535156-20.523437 0-11.34375 9.203125-20.53125 20.535156-20.53125 1.816406 0 3.578125.242187 5.261719.683594-8.800781 2.308593-15.28125 10.324218-15.28125 19.847656 0 9.515625 6.480469 17.53125 15.28125 19.839844zm0 0"
          fill="#3b3d4c"/>
    <path d="m488.933594 64.375c-3.027344.925781-6.25 1.429688-9.578125 1.429688-18.035157 0-32.652344-14.621094-32.652344-32.652344s14.617187-32.652344 32.652344-32.652344c3.328125 0 6.550781.503906 9.578125 1.429688-13.359375 4.09375-23.074219 16.53125-23.074219 31.222656s9.714844 27.128906 23.074219 31.222656zm0 0"
          fill="#3b3d4c"/>
    <path d="m368.746094 273.171875c-1.214844 1.109375-2.78125 1.851563-4.542969 2.023437-4.332031.425782-8.1875-2.734374-8.613281-7.066406-.09375-.957031-2.269532-23.84375 1.445312-52.402344 5.074219-39.046874 18.230469-68.535156 39.101563-87.652343 3.207031-2.941407 8.191406-2.722657 11.128906.484375 2.9375 3.210937 2.71875 8.191406-.488281 11.128906-43.523438 39.867188-35.59375 126.03125-35.507813 126.898438.253907 2.566406-.757812 4.96875-2.523437 6.585937zm0 0"
          fill="#2077a8"/>
    <path d="m508.371094 322.648438c-.074219 1.449218-.234375 2.898437-.472656 4.339843l-2.4375 14.335938-2.332032 13.734375-.390625 2.324218h-.007812l-3.265625 19.261719-5.945313 34.980469h-478.339843l-5.621094-34.980469-1.132813-7.089843-1.269531-7.878907-1.261719-7.875-3.632812-22.570312-1.261719-7.878907c-.347656-2.132812-.503906-4.261718-.503906-6.375 0-.503906.011718-1.007812.03125-1.5.421875-11.269531 5.554687-21.992187 14.398437-29.386718l29-24.230469 7.390625-62.425781c3.980469-33.535156 32.414063-58.792969 66.179688-58.792969h149.542968c22.667969 0 43.386719 12.769531 53.566407 33.019531l44.363281 88.199219s67.488281-1.058594 123.800781 27.042969c4.371094 2.1875 8.121094 5.179687 11.132813 8.75 4.015625 4.726562 6.722656 10.441406 7.867187 16.550781.535157 2.753906.734375 5.589844.601563 8.445313zm0 0"
          fill="#4799cf"/>
    <path d="m9.558594 376.644531h489.90625l-5.945313 34.984375h-478.339843zm0 0" fill="#2077a8"/>
    <path d="m161.289062 140.640625c-33.765624 0-62.195312 25.257813-66.175781 58.792969l-7.394531 62.425781-28.996094 24.230469c-9.230468 7.71875-14.429687 19.074218-14.429687 30.890625 0 2.109375.15625 4.242187.503906 6.375l6.152344 38.320312 8.023437 49.953125h-43.792968l-8.023438-49.953125-6.15625-38.320312c-.347656-2.132813-.503906-4.265625-.503906-6.375 0-11.816407 5.199218-23.171875 14.429687-30.890625l29-24.230469 7.390625-62.425781c3.980469-33.535156 32.414063-58.792969 66.179688-58.792969zm0 0"
          fill="#2077a8"/>
    <path d="m508.371094 322.648438c-.074219 1.449218-.234375 2.898437-.472656 4.339843l-3.75 22.097657c-3.488282.785156-7.238282 1.21875-11.132813 1.21875-19 0-34.398437-10.117188-34.398437-22.582032 0-12.476562 15.398437-22.589844 34.398437-22.589844 4.398437 0 8.601563.546876 12.464844 1.542969 2.132812 4.957031 3.152343 10.417969 2.890625 15.972657zm0 0"
          fill="#fbd25f"/>
    <path d="m466.496094 327.722656c0 6.953125 10.890625 14.703125 26.519531 14.703125 3.222656 0 6.382813-.347656 9.398437-1.019531 1.03125-.230469 2.070313-.25 3.046876-.082031l-2.332032 13.734375-.390625 2.324218h-.007812c-3.171875.535157-6.429688.796876-9.714844.796876-23.707031 0-42.273437-13.378907-42.273437-30.457032 0-17.089844 18.566406-30.46875 42.273437-30.46875 2.320313 0 4.628906.136719 6.886719.398438 4.015625 4.726562 6.722656 10.441406 7.867187 16.550781-1.332031.421875-2.804687.472656-4.253906.097656-3.328125-.851562-6.855469-1.292969-10.5-1.292969-15.628906 0-26.519531 7.75-26.519531 14.714844zm0 0"
          fill="#e6e6e6"/>
    <path d="m43.921875 342.519531c0 10.582031-8.582031 19.160157-19.164063 19.160157h-17.605468l-6.15625-38.324219h23.761718c10.585938 0 19.164063 8.582031 19.164063 19.164062zm0 0" fill="#fbd25f"/>
    <path d="m335.433594 261.585938h-265.042969l7.003906-59.066407c2.40625-20.3125 19.652344-35.625 40.101563-35.625h149.542968c5.367188 0 10.523438 1.25 15.105469 3.550781 6.363281 3.171876 11.65625 8.359376 15.007813 15.007813zm0 0" fill="#d4eff4"/>
    <g fill="#e6e6e6">
        <path d="m501.496094 419.507812h-84.839844c-4.351562 0-7.875-3.527343-7.875-7.875 0-4.351562 3.523438-7.878906 7.875-7.878906h84.839844c4.351562 0 7.878906 3.527344 7.878906 7.878906 0 4.347657-3.527344 7.875-7.878906 7.875zm0 0"/>
        <path d="m72.269531 419.507812h-64.394531c-4.347656 0-7.875-3.527343-7.875-7.875 0-4.351562 3.527344-7.878906 7.875-7.878906h64.394531c4.351563 0 7.878907 3.527344 7.878907 7.878906 0 4.347657-3.527344 7.875-7.878907 7.875zm0 0"/>
        <path d="m51.800781 342.519531c0 14.914063-12.128906 27.035157-27.042969 27.035157h-16.332031l-1.269531-7.878907-1.261719-7.875h18.863281c6.226563 0 11.289063-5.0625 11.289063-11.28125 0-6.226562-5.0625-11.289062-11.289063-11.289062h-22.496093l-1.261719-7.878907c-.347656-2.132812-.503906-4.261718-.503906-6.375 0-.503906.011718-1.007812.03125-1.5h24.230468c14.914063 0 27.042969 12.128907 27.042969 27.042969zm0 0"/>
    </g>
    <path d="m160.289062 414.96875c0 29.480469-23.894531 53.378906-53.375 53.378906-29.480468 0-53.378906-23.898437-53.378906-53.378906 0-29.476562 23.898438-53.375 53.378906-53.375 29.480469 0 53.375 23.898438 53.375 53.375zm0 0" fill="#5c5e70"/>
    <path d="m133.679688 414.96875c0 14.78125-11.984376 26.765625-26.765626 26.765625s-26.765624-11.984375-26.765624-26.765625 11.984374-26.765625 26.765624-26.765625 26.765626 11.984375 26.765626 26.765625zm0 0" fill="#e6e6e6"/>
    <path d="m106.914062 449.613281c-19.101562 0-34.644531-15.542969-34.644531-34.644531s15.542969-34.640625 34.644531-34.640625c19.101563 0 34.640626 15.539063 34.640626 34.640625s-15.539063 34.644531-34.640626 34.644531zm0-53.53125c-10.417968 0-18.890624 8.472657-18.890624 18.886719s8.476562 18.890625 18.890624 18.890625c10.414063 0 18.886719-8.476563 18.886719-18.890625s-8.472656-18.886719-18.886719-18.886719zm0 0"
          fill="#3b3d4c"/>
    <path d="m435.390625 414.96875c0 29.480469-23.898437 53.378906-53.375 53.378906-29.480469 0-53.378906-23.898437-53.378906-53.378906 0-29.476562 23.898437-53.375 53.378906-53.375 29.476563 0 53.375 23.898438 53.375 53.375zm0 0" fill="#5c5e70"/>
    <path d="m408.777344 414.96875c0 14.78125-11.980469 26.765625-26.761719 26.765625-14.785156 0-26.765625-11.984375-26.765625-26.765625s11.980469-26.765625 26.765625-26.765625c14.78125 0 26.761719 11.984375 26.761719 26.765625zm0 0" fill="#e6e6e6"/>
    <path d="m382.015625 449.613281c-19.105469 0-34.644531-15.542969-34.644531-34.644531s15.539062-34.640625 34.644531-34.640625c19.101563 0 34.640625 15.539063 34.640625 34.640625s-15.539062 34.644531-34.640625 34.644531zm0-53.53125c-10.417969 0-18.890625 8.472657-18.890625 18.886719s8.472656 18.890625 18.890625 18.890625c10.414063 0 18.886719-8.476563 18.886719-18.890625s-8.472656-18.886719-18.886719-18.886719zm0 0"
          fill="#3b3d4c"/>
    <path d="m236.25 302.40625h-21.199219c-4.347656 0-7.875-3.527344-7.875-7.878906 0-4.347656 3.527344-7.875 7.875-7.875h21.199219c4.351562 0 7.878906 3.527344 7.878906 7.875 0 4.351562-3.527344 7.878906-7.878906 7.878906zm0 0" fill="#e6e6e6"/>
    <path d="m109.214844 302.40625h-21.199219c-4.351563 0-7.878906-3.527344-7.878906-7.878906 0-4.347656 3.527343-7.875 7.878906-7.875h21.199219c4.347656 0 7.875 3.527344 7.875 7.875 0 4.351562-3.527344 7.878906-7.875 7.878906zm0 0" fill="#e6e6e6"/>
    <path d="m189.753906 166.894531-27.222656 94.691407h-20.535156l27.222656-94.691407zm0 0" fill="#f0fdff"/>
    <path d="m282.144531 170.445312-26.203125 91.140626h-34.902344l27.222657-94.691407h18.777343c5.367188 0 10.523438 1.25 15.105469 3.550781zm0 0" fill="#f0fdff"/>
    <path d="m342.472656 258.046875-38.285156-76.136719c-7.113281-14.121094-21.34375-22.890625-37.148438-22.890625h-149.542968c-.316406 0-.628906.015625-.941406.023438-.144532-.007813-.289063-.023438-.433594-.023438-.300782 0-.597656.019531-.886719.050781-23.445313 1.089844-42.875 19.003907-45.660156 42.523438l-7.007813 59.066406c-.261718 2.234375.441406 4.476563 1.933594 6.160156 1.496094 1.683594 3.640625 2.644532 5.890625 2.644532h265.042969c2.734375 0 5.269531-1.417969 6.703125-3.742188 1.433593-2.328125 1.5625-5.230468.335937-7.675781zm-218.476562-83.273437h67.425781v78.9375h-67.425781zm-38.777344 28.671874c1.558594-13.164062 10.863281-23.714843 23.023438-27.328124v77.59375h-28.984376zm121.957031 50.265626v-78.9375h59.863281c9.816407 0 18.660157 5.449218 23.074219 14.21875l32.542969 64.71875zm0 0"
          fill="#2077a8"/>
    <path d="m306.054688 419.507812h-121.128907c-4.347656 0-7.875-3.527343-7.875-7.875 0-4.351562 3.527344-7.878906 7.875-7.878906h121.128907c4.347656 0 7.875 3.527344 7.875 7.878906 0 4.347657-3.527344 7.875-7.875 7.875zm0 0" fill="#e6e6e6"/>
</svg>