<?xml version="1.0" encoding="utf-8"?>
<!-- Generator: Adobe Illustrator 16.0.0, SVG Export Plug-In . SVG Version: 6.00 Build 0)  -->
<!DOCTYPE svg PUBLIC "-//W3C//DTD SVG 1.1//EN" "http://www.w3.org/Graphics/SVG/1.1/DTD/svg11.dtd">
<svg version="1.1" id="Layer_1" xmlns="http://www.w3.org/2000/svg" xmlns:xlink="http://www.w3.org/1999/xlink" x="0px" y="0px"
	 width="511px" height="511px" viewBox="0 0 511 511" enable-background="new 0 0 511 511" xml:space="preserve">
<path fill="#58BA25" d="M509.777,157.512c0-25.274-20.487-45.762-45.758-45.762c-25.274,0-45.762,20.487-45.762,45.762
	c0,6.956,1.56,13.548,4.339,19.451c-11.836,5.567-20.031,17.59-20.031,31.536c0,19.236,15.595,34.831,34.83,34.831
	c19.24,0,34.835-15.595,34.835-34.831c0-2.008-0.18-3.973-0.507-5.887C493.325,198.946,509.777,180.155,509.777,157.512z"/>
	<path fill="#58BA25" d="M431.248,73.025c0,11.318-9.174,20.491-20.487,20.491c-11.317,0-20.491-9.173-20.491-20.491
	c0-11.314,9.174-20.487,20.491-20.487C422.074,52.538,431.248,61.711,431.248,73.025z"/>
	<path fill="#559928" d="M481.306,115.134c-0.011,0-0.011,0-0.022,0c-76.401,17.517-42.851,80.323-42.851,80.323
	c-6.814-4.6-12.315-10.994-15.848-18.491l0.012-0.007c-2.779-5.903-4.343-12.495-4.343-19.447c0-25.271,20.483-45.766,45.754-45.766
	C470.133,111.746,475.969,112.955,481.306,115.134z"/>
	<path fill="#559928" d="M424.522,240.864c0.012,0.012,0.012,0.012,0.012,0.023c-12.873-5.126-21.969-17.696-21.969-32.39
	c0-13.953,8.195-25.965,20.02-31.532l0.012-0.007c-2.779-5.903-4.343-12.495-4.343-19.447c0-1.98,0.129-3.941,0.37-5.859
	l4.285-1.224l4.016,33.875C418.812,188.226,401.096,210.635,424.522,240.864z"/>
	<path fill="#58BA25" d="M511.002,33.543c0,17.996-14.589,32.585-32.585,32.585s-32.584-14.589-32.584-32.585
	c0-18,14.588-32.588,32.584-32.588S511.002,15.544,511.002,33.543z"/>
	<path fill="#559928" d="M416.016,92.83c-1.68,0.44-3.438,0.682-5.251,0.682c-11.31,0-20.495-9.173-20.495-20.483
	c0-11.322,9.186-20.491,20.495-20.491c1.813,0,3.571,0.242,5.251,0.682c-8.783,2.304-15.251,10.304-15.251,19.809
	C400.765,82.526,407.232,90.526,416.016,92.83z"/>
	<path fill="#559928" d="M487.98,64.705c-3.021,0.924-6.237,1.427-9.56,1.427c-18,0-32.588-14.593-32.588-32.589
	c0-17.996,14.588-32.588,32.588-32.588c3.322,0,6.538,0.503,9.56,1.427c-13.333,4.086-23.029,16.499-23.029,31.162
	C464.951,48.207,474.647,60.62,487.98,64.705z"/>
	<path fill="#2077A8" d="M368.028,273.094c-1.213,1.107-2.776,1.849-4.534,2.02c-4.324,0.426-8.172-2.729-8.597-7.052
	c-0.094-0.956-2.266-23.797,1.442-52.3c5.064-38.971,18.194-68.401,39.025-87.481c3.2-2.936,8.175-2.717,11.106,0.483
	c2.933,3.205,2.714,8.175-0.487,11.107c-43.438,39.79-35.523,125.786-35.438,126.651C370.8,269.082,369.79,271.48,368.028,273.094z"
	/>
	<path fill="#4799CF" d="M507.38,322.475c-0.074,1.446-0.233,2.893-0.472,4.331l-2.433,14.308l-2.327,13.708l-0.39,2.319h-0.008
	l-3.26,19.225l-5.934,34.912H15.152l-5.61-34.912l-1.131-7.076l-1.267-7.863l-1.259-7.859l-3.625-22.527L1,323.176
	c-0.347-2.129-0.503-4.253-0.503-6.362c0-0.503,0.012-1.006,0.031-1.497c0.421-11.248,5.544-21.949,14.37-29.329l28.943-24.184
	l7.376-62.304c3.973-33.47,32.351-58.678,66.05-58.678H266.52c22.623,0,43.302,12.744,53.462,32.955l44.276,88.027
	c0,0,67.356-1.056,123.559,26.99c4.363,2.184,8.105,5.17,11.111,8.733c4.008,4.717,6.71,10.421,7.852,16.518
	C507.313,316.794,507.513,319.625,507.38,322.475z"/>
	<path fill="#2077A8" d="M43.838,362.583h488.949l-5.934,34.916H49.448L43.838,362.583z"/>
	<path fill="#2077A8" d="M160.976,140.822c-33.7,0-62.074,25.208-66.046,58.678l-7.38,62.304L58.61,285.987
	c-9.212,7.704-14.401,19.036-14.401,30.83c0,2.105,0.156,4.233,0.503,6.362l6.14,38.246l8.008,49.855H15.152l-8.008-49.855L1,323.18
	c-0.347-2.129-0.503-4.257-0.503-6.362c0-11.794,5.189-23.126,14.401-30.83l28.943-24.184l7.376-62.304
	c3.973-33.47,32.351-58.678,66.05-58.678H160.976z"/>
	<path fill="#FBD25F" d="M507.38,322.475c-0.074,1.446-0.233,2.893-0.472,4.331l-3.742,22.055c-3.481,0.783-7.225,1.216-11.111,1.216
	c-18.963,0-34.331-10.098-34.331-22.537c0-12.453,15.368-22.546,34.331-22.546c4.39,0,8.585,0.546,12.44,1.54
	C506.624,311.48,507.642,316.931,507.38,322.475z"/>
	<path fill="#E6E6E6" d="M465.587,327.539c0,6.939,10.869,14.674,26.468,14.674c3.217,0,6.37-0.347,9.38-1.018
	c1.029-0.23,2.066-0.25,3.041-0.082l-2.327,13.708l-0.39,2.319h-0.008c-3.166,0.534-6.418,0.795-9.696,0.795
	c-23.661,0-42.19-13.352-42.19-30.396c0-17.057,18.529-30.41,42.19-30.41c2.315,0,4.62,0.137,6.873,0.398
	c4.008,4.717,6.71,10.421,7.852,16.518c-1.329,0.422-2.799,0.473-4.245,0.098c-3.321-0.85-6.842-1.29-10.479-1.29
	C476.456,312.853,465.587,320.588,465.587,327.539z"/>
	<path fill="#FBD25F" d="M43.838,342.307c0,10.562-8.565,19.123-19.126,19.123H7.14l-6.144-38.25h23.715
	C35.277,323.18,43.838,331.745,43.838,342.307z"/>
	<path fill="#D4EFF4" d="M334.78,261.531H70.255l6.99-58.951c2.402-20.273,19.614-35.556,40.023-35.556H266.52
	c5.356,0,10.503,1.248,15.076,3.544c6.351,3.166,11.633,8.343,14.979,14.979L334.78,261.531z"/>
	<g>
	<path fill="#E6E6E6" d="M500.519,419.145h-84.674c-4.344,0-7.86-3.521-7.86-7.859c0-4.344,3.517-7.863,7.86-7.863h84.674
		c4.343,0,7.863,3.52,7.863,7.863C508.382,415.624,504.861,419.145,500.519,419.145z"/>
		<path fill="#E6E6E6" d="M72.13,419.145H7.861c-4.339,0-7.859-3.521-7.859-7.859c0-4.344,3.521-7.863,7.859-7.863H72.13
		c4.343,0,7.863,3.52,7.863,7.863C79.994,415.624,76.474,419.145,72.13,419.145z"/>
		<path fill="#E6E6E6" d="M51.702,342.307c0,14.885-12.105,26.982-26.99,26.982h-16.3l-1.267-7.863l-1.259-7.859h18.827
		c6.214,0,11.267-5.053,11.267-11.26c0-6.215-5.053-11.268-11.267-11.268H2.259L1,323.176c-0.347-2.129-0.503-4.253-0.503-6.362
		c0-0.503,0.012-1.006,0.031-1.497h24.183C39.596,315.316,51.702,327.422,51.702,342.307z"/>
</g>
	<path fill="#5C5E70" d="M159.978,414.614c0,29.423-23.848,53.274-53.271,53.274s-53.274-23.852-53.274-53.274
	c0-29.419,23.852-53.271,53.274-53.271S159.978,385.195,159.978,414.614z"/>
	<path fill="#E6E6E6" d="M133.42,414.614c0,14.752-11.961,26.714-26.713,26.714s-26.713-11.962-26.713-26.714
	c0-14.753,11.961-26.714,26.713-26.714S133.42,399.861,133.42,414.614z"/>
	<path fill="#3B3D4C" d="M106.707,449.191c-19.064,0-34.577-15.513-34.577-34.577s15.513-34.573,34.577-34.573
	c19.064,0,34.573,15.509,34.573,34.573S125.771,449.191,106.707,449.191z M106.707,395.765c-10.397,0-18.854,8.456-18.854,18.85
	s8.46,18.854,18.854,18.854c10.394,0,18.85-8.46,18.85-18.854S117.101,395.765,106.707,395.765z"/>
	<path fill="#5C5E70" d="M434.542,414.614c0,29.423-23.852,53.274-53.271,53.274c-29.423,0-53.274-23.852-53.274-53.274
	c0-29.419,23.852-53.271,53.274-53.271C410.69,361.344,434.542,385.195,434.542,414.614z"/>
	<path fill="#E6E6E6" d="M407.98,414.614c0,14.752-11.957,26.714-26.709,26.714c-14.756,0-26.714-11.962-26.714-26.714
	c0-14.753,11.958-26.714,26.714-26.714C396.023,387.9,407.98,399.861,407.98,414.614z"/>
	<path fill="#3B3D4C" d="M381.271,449.191c-19.068,0-34.577-15.513-34.577-34.577s15.509-34.573,34.577-34.573
	c19.064,0,34.573,15.509,34.573,34.573S400.336,449.191,381.271,449.191z M381.271,395.765c-10.397,0-18.854,8.456-18.854,18.85
	s8.456,18.854,18.854,18.854c10.394,0,18.85-8.46,18.85-18.854S391.665,395.765,381.271,395.765z"/>
	<path fill="#E6E6E6" d="M235.791,302.271h-21.158c-4.339,0-7.86-3.521-7.86-7.863c0-4.34,3.521-7.859,7.86-7.859h21.158
	c4.343,0,7.864,3.52,7.864,7.859C243.654,298.751,240.134,302.271,235.791,302.271z"/>
	<path fill="#E6E6E6" d="M109.003,302.271H87.846c-4.343,0-7.864-3.521-7.864-7.863c0-4.34,3.521-7.859,7.864-7.859h21.158
	c4.339,0,7.86,3.52,7.86,7.859C116.863,298.751,113.343,302.271,109.003,302.271z"/>
	<path fill="#F0FDFF" d="M189.385,167.024l-27.169,94.507h-20.495l27.169-94.507H189.385z"/>
	<path fill="#F0FDFF" d="M281.596,170.568l-26.152,90.963h-34.834l27.169-94.507h18.741
	C271.876,167.024,277.022,168.272,281.596,170.568z"/>
	<path fill="#2077A8" d="M341.806,257.999l-38.21-75.988c-7.1-14.093-21.303-22.846-37.076-22.846H117.269
	c-0.316,0-0.627,0.016-0.939,0.023c-0.145-0.008-0.289-0.023-0.433-0.023c-0.3,0-0.597,0.02-0.885,0.051
	c-23.399,1.087-42.791,18.967-45.571,42.44l-6.994,58.951c-0.261,2.229,0.44,4.468,1.93,6.148c1.493,1.68,3.633,2.639,5.879,2.639
	H334.78c2.729,0,5.26-1.415,6.69-3.734C342.901,263.336,343.03,260.439,341.806,257.999z M123.756,174.888h67.294v78.783h-67.294
	V174.888z M85.054,203.504c1.556-13.138,10.842-23.668,22.979-27.274v77.442H79.105L85.054,203.504z M206.773,253.671v-78.783
	h59.747c9.797,0,18.623,5.438,23.029,14.191l32.479,64.592H206.773z"/>
	<path fill="#E6E6E6" d="M305.459,419.145H184.566c-4.339,0-7.859-3.521-7.859-7.859c0-4.344,3.521-7.863,7.859-7.863h120.893
	c4.339,0,7.859,3.52,7.859,7.863C313.318,415.624,309.798,419.145,305.459,419.145z"/>
</svg>
