<?xml version="1.0" encoding="UTF-8"?>
<svg xmlns="http://www.w3.org/2000/svg" xmlns:xlink="http://www.w3.org/1999/xlink" width="200pt" height="200pt" viewBox="0 0 200 200" version="1.1">
    <g id="surface1">
        <path style=" stroke:none;fill-rule:nonzero;fill:rgb(88.235294%,29.411765%,29.411765%);fill-opacity:1;"
              d="M 200 106.3125 L 200 116.660156 C 200 116.660156 196.699219 122.472656 194.515625 123.378906 L 154.941406 123.378906 L 152.03125 122.472656 L 150.757812 125.378906 L 51.992188 125.378906 L 51.730469 125.285156 L 47.269531 123.742188 L 13.683594 128.101562 C 13.683594 128.101562 12.621094 128.050781 11.097656 127.851562 C 6.820312 127.292969 -1.078125 125.5625 0.792969 120.472656 C 0.792969 120.472656 -0.988281 110.824219 0.792969 105.222656 C 0.792969 105.222656 1.335938 97.414062 8.050781 94.6875 C 14.773438 91.96875 34.558594 86.699219 45.453125 85.070312 C 45.453125 85.070312 55.074219 82.164062 59.25 78.351562 C 59.25 78.351562 68.671875 71.3125 80.308594 66.210938 C 86.578125 63.464844 93.289062 61.84375 100.101562 61.207031 C 113.289062 59.96875 141.949219 58.0625 160.191406 62.550781 C 175.691406 66.371094 185.964844 75.125 191.371094 80.976562 C 194.339844 84.191406 195.960938 88.386719 195.960938 92.761719 L 195.960938 96.6875 L 197.230469 101.226562 C 197.238281 101.226562 200 103.222656 200 106.3125 Z M 200 106.3125 "/>
        <path style=" stroke:none;fill-rule:nonzero;fill:rgb(18.039216%,19.607843%,20.784314%);fill-opacity:1;"
              d="M 51.808594 123.441406 C 51.808594 124.0625 51.785156 124.679688 51.730469 125.285156 L 47.269531 123.742188 L 13.683594 128.101562 C 13.683594 128.101562 12.621094 128.050781 11.097656 127.851562 C 10.78125 126.429688 10.621094 124.957031 10.621094 123.441406 C 10.621094 112.070312 19.84375 102.847656 31.214844 102.847656 C 42.589844 102.847656 51.808594 112.070312 51.808594 123.441406 Z M 51.808594 123.441406 "/>
        <path style=" stroke:none;fill-rule:nonzero;fill:rgb(24.313725%,26.27451%,27.843137%);fill-opacity:1;"
              d="M 48.046875 123.441406 C 48.046875 132.738281 40.511719 140.273438 31.214844 140.273438 C 21.917969 140.273438 14.382812 132.738281 14.382812 123.441406 C 14.382812 114.148438 21.917969 106.609375 31.214844 106.609375 C 40.511719 106.609375 48.046875 114.148438 48.046875 123.441406 Z M 48.046875 123.441406 "/>
        <path style=" stroke:none;fill-rule:nonzero;fill:rgb(18.039216%,19.607843%,20.784314%);fill-opacity:1;"
              d="M 151.640625 123.367188 L 152.03125 122.464844 L 154.941406 123.375 L 192.824219 123.375 C 192.785156 112.03125 183.582031 102.847656 172.234375 102.847656 C 160.878906 102.847656 151.675781 112.03125 151.640625 123.367188 Z M 151.640625 123.367188 "/>
        <path style=" stroke:none;fill-rule:nonzero;fill:rgb(24.313725%,26.27451%,27.843137%);fill-opacity:1;"
              d="M 189.058594 123.441406 C 189.058594 132.738281 181.523438 140.273438 172.226562 140.273438 C 162.933594 140.273438 155.398438 132.738281 155.398438 123.441406 C 155.398438 114.148438 162.933594 106.609375 172.226562 106.609375 C 181.523438 106.609375 189.058594 114.148438 189.058594 123.441406 Z M 189.058594 123.441406 "/>
        <path style=" stroke:none;fill-rule:nonzero;fill:rgb(24.313725%,26.27451%,27.843137%);fill-opacity:1;"
              d="M 112.34375 65.121094 C 108.847656 65.242188 106.636719 65.359375 106.59375 65.367188 L 106.46875 65.371094 L 106.34375 65.371094 C 105.992188 65.359375 105.640625 65.359375 105.292969 65.359375 C 90.03125 65.359375 74.824219 74.425781 67.117188 79.828125 C 63.632812 82.265625 60.894531 85.699219 59.304688 89.574219 L 107.941406 85.691406 Z M 112.34375 65.121094 "/>
        <path style=" stroke:none;fill-rule:nonzero;fill:rgb(24.313725%,26.27451%,27.843137%);fill-opacity:1;"
              d="M 157.777344 68.167969 C 152.945312 66.054688 141.433594 64.890625 125.316406 64.890625 C 123.429688 64.890625 121.597656 64.910156 119.871094 64.933594 L 118.121094 84.871094 L 166.320312 81.027344 C 166.476562 80.125 166.605469 79.269531 166.699219 78.488281 L 166.707031 78.425781 L 166.71875 78.363281 C 167.226562 75.414062 161.738281 70.578125 157.777344 68.167969 Z M 157.777344 68.167969 "/>
        <path style=" stroke:none;fill-rule:nonzero;fill:rgb(100%,84.705882%,23.137255%);fill-opacity:1;"
              d="M 4.304688 102.171875 C 4.304688 102.171875 11 94.375 18.503906 94.964844 C 20.332031 95.105469 25.789062 97.550781 17.253906 102.171875 C 14.585938 103.617188 9.332031 104.464844 5.335938 104.527344 C 2.097656 104.574219 4.304688 102.171875 4.304688 102.171875 Z M 4.304688 102.171875 "/>
        <path style=" stroke:none;fill-rule:nonzero;fill:rgb(100%,84.705882%,23.137255%);fill-opacity:1;"
              d="M 195.96875 96.6875 L 195.96875 92.761719 C 195.96875 91.066406 195.65625 89.421875 195.1875 87.828125 C 192.484375 87.492188 189.101562 87.324219 188.003906 88.421875 C 186.539062 89.886719 186.539062 95.238281 188.003906 96.703125 C 189.226562 97.925781 193.316406 97.582031 196.097656 97.175781 Z M 195.96875 96.6875 "/>
        <path style=" stroke:none;fill-rule:nonzero;fill:rgb(79.607843%,83.921569%,87.843137%);fill-opacity:1;"
              d="M 42.449219 123.441406 C 42.449219 129.648438 37.421875 134.675781 31.214844 134.675781 C 25.011719 134.675781 19.980469 129.648438 19.980469 123.441406 C 19.980469 117.238281 25.011719 112.207031 31.214844 112.207031 C 37.421875 112.207031 42.449219 117.238281 42.449219 123.441406 Z M 42.449219 123.441406 "/>
        <path style=" stroke:none;fill-rule:nonzero;fill:rgb(57.647059%,59.215686%,60%);fill-opacity:1;"
              d="M 40.382812 123.441406 C 40.382812 128.503906 36.277344 132.609375 31.214844 132.609375 C 26.152344 132.609375 22.050781 128.503906 22.050781 123.441406 C 22.050781 118.378906 26.152344 114.277344 31.214844 114.277344 C 36.277344 114.277344 40.382812 118.378906 40.382812 123.441406 Z M 40.382812 123.441406 "/>
        <path style=" stroke:none;fill-rule:nonzero;fill:rgb(79.607843%,83.921569%,87.843137%);fill-opacity:1;"
              d="M 37.8125 123.441406 C 37.8125 127.085938 34.859375 130.039062 31.214844 130.039062 C 27.574219 130.039062 24.621094 127.085938 24.621094 123.441406 C 24.621094 119.800781 27.574219 116.847656 31.214844 116.847656 C 34.859375 116.847656 37.8125 119.800781 37.8125 123.441406 Z M 37.8125 123.441406 "/>
        <path style=" stroke:none;fill-rule:nonzero;fill:rgb(79.607843%,83.921569%,87.843137%);fill-opacity:1;"
              d="M 183.464844 123.441406 C 183.464844 129.648438 178.433594 134.675781 172.226562 134.675781 C 166.023438 134.675781 160.992188 129.648438 160.992188 123.441406 C 160.992188 117.238281 166.023438 112.207031 172.226562 112.207031 C 178.433594 112.207031 183.464844 117.238281 183.464844 123.441406 Z M 183.464844 123.441406 "/>
        <path style=" stroke:none;fill-rule:nonzero;fill:rgb(57.647059%,59.215686%,60%);fill-opacity:1;"
              d="M 181.394531 123.441406 C 181.394531 128.503906 177.289062 132.609375 172.226562 132.609375 C 167.164062 132.609375 163.0625 128.503906 163.0625 123.441406 C 163.0625 118.378906 167.164062 114.277344 172.226562 114.277344 C 177.289062 114.277344 181.394531 118.378906 181.394531 123.441406 Z M 181.394531 123.441406 "/>
        <path style=" stroke:none;fill-rule:nonzero;fill:rgb(79.607843%,83.921569%,87.843137%);fill-opacity:1;"
              d="M 178.824219 123.441406 C 178.824219 127.085938 175.871094 130.039062 172.226562 130.039062 C 168.585938 130.039062 165.632812 127.085938 165.632812 123.441406 C 165.632812 119.800781 168.585938 116.847656 172.226562 116.847656 C 175.871094 116.847656 178.824219 119.800781 178.824219 123.441406 Z M 178.824219 123.441406 "/>
        <path style=" stroke:none;fill-rule:nonzero;fill:rgb(35.294118%,37.254902%,38.823529%);fill-opacity:1;" d="M 70.679688 88.660156 L 80.914062 87.84375 L 93.789062 66.910156 C 89.3125 68.058594 85.066406 69.753906 81.15625 71.625 Z M 70.679688 88.660156 "/>
        <path style=" stroke:none;fill-rule:nonzero;fill:rgb(35.294118%,37.254902%,38.823529%);fill-opacity:1;" d="M 84.523438 87.554688 L 89.859375 87.128906 L 103.160156 65.503906 C 101.328125 65.601562 99.507812 65.804688 97.703125 66.121094 Z M 84.523438 87.554688 "/>
        <path style=" stroke:none;fill-rule:nonzero;fill:rgb(35.294118%,37.254902%,38.823529%);fill-opacity:1;" d="M 120.902344 84.652344 L 131.136719 83.835938 L 142.4375 65.460938 C 139.585938 65.246094 136.421875 65.089844 132.984375 65.003906 Z M 120.902344 84.652344 "/>
        <path style=" stroke:none;fill-rule:nonzero;fill:rgb(35.294118%,37.254902%,38.823529%);fill-opacity:1;" d="M 134.738281 83.546875 L 140.078125 83.121094 L 150.402344 66.335938 C 148.964844 66.109375 147.417969 65.902344 145.691406 65.734375 Z M 134.738281 83.546875 "/>
    </g>
</svg>
