<?xml version="1.0"?>
<svg xmlns="http://www.w3.org/2000/svg" height="512px" version="1.1" viewBox="0 0 512.00062 512" width="512px" class="">
    <g>
        <g id="surface1">
            <path d="M 182.6875 385.28125 L 68.007812 499.367188 C 52.539062 514.839844 27.359375 514.890625 11.804688 499.488281 L 11.65625 499.339844 C -3.886719 483.796875 -3.886719 458.515625 11.660156 442.964844 L 126.414062 328.792969 C 132.273438 322.960938 141.753906 322.980469 147.597656 328.820312 L 147.625 328.851562 L 165.011719 346.277344 L 182.714844 364.039062 L 182.746094 364.066406 C 188.585938 369.941406 188.566406 379.4375 182.6875 385.28125 Z M 182.6875 385.28125 "
                  style="fill:#0078C3" data-original="#696E73" class="active-path" data-old_color="#696E73"/>
            <path d="M 182.6875 385.28125 L 68.007812 499.367188 C 52.539062 514.839844 27.359375 514.890625 11.804688 499.488281 L 165.011719 346.28125 L 182.71875 364.042969 L 182.746094 364.070312 C 188.585938 369.941406 188.566406 379.4375 182.6875 385.28125 Z M 182.6875 385.28125 "
                  style="fill:#005A93" data-original="#373C41" class="" data-old_color="#373C41"/>
            <path d="M 448.703125 368.921875 C 407.882812 409.742188 353.609375 432.226562 295.882812 432.226562 C 238.160156 432.226562 183.890625 409.746094 143.070312 368.929688 L 142.71875 368.574219 C 102.125 327.796875 79.773438 273.671875 79.773438 216.117188 C 79.773438 158.390625 102.257812 104.117188 143.078125 63.296875 C 183.890625 22.484375 238.164062 0 295.890625 0 C 353.445312 0 407.570312 22.351562 448.347656 62.945312 L 448.703125 63.296875 C 489.519531 104.117188 512 158.386719 512 216.109375 C 512 273.835938 489.515625 328.109375 448.703125 368.921875 Z M 448.703125 368.921875 "
                  style=" stroke:none;fill-rule:nonzero;fill:rgb(88.235294%,92.156863%,94.117647%);fill-opacity:1;" data-original="#E1EBF0" class=""/>
            <path d="M 448.703125 368.921875 C 407.882812 409.742188 353.609375 432.226562 295.882812 432.226562 C 238.160156 432.226562 183.890625 409.746094 143.070312 368.929688 L 142.71875 368.574219 L 448.351562 62.945312 L 448.703125 63.296875 C 489.523438 104.117188 512 158.386719 512 216.109375 C 512 273.835938 489.515625 328.109375 448.703125 368.921875 Z M 448.703125 368.921875 "
                  style=" stroke:none;fill-rule:nonzero;fill:rgb(70.588235%,82.352941%,84.313725%);fill-opacity:1;" data-original="#B4D2D7" class=""/>
            <path d="M 412.34375 332.5625 C 348.128906 396.78125 243.644531 396.773438 179.4375 332.5625 L 179.082031 332.210938 C 115.226562 267.972656 115.347656 163.757812 179.445312 99.664062 C 243.53125 35.574219 347.746094 35.453125 411.984375 99.308594 L 412.339844 99.664062 C 476.546875 163.871094 476.554688 268.355469 412.34375 332.5625 Z M 412.34375 332.5625 "
                  style="fill:#97FF62" data-original="#FFE477" class="" data-old_color="#FFE477"/>
            <path d="M 412.34375 332.5625 C 348.128906 396.78125 243.644531 396.773438 179.4375 332.5625 L 179.082031 332.210938 L 411.984375 99.308594 L 412.339844 99.664062 C 476.546875 163.871094 476.554688 268.355469 412.34375 332.5625 Z M 412.34375 332.5625 " style="fill:#58BA25"
                  data-original="#FFCD00" class="" data-old_color="#FFCD00"/>
            <path d="M 310.886719 166.792969 L 310.886719 225.691406 C 310.886719 233.96875 304.175781 240.691406 295.886719 240.691406 C 289.046875 240.691406 283.265625 236.101562 281.464844 229.832031 C 281.085938 228.511719 280.886719 227.128906 280.886719 225.691406 L 280.886719 166.792969 C 280.886719 158.503906 287.605469 151.792969 295.886719 151.792969 C 304.175781 151.792969 310.886719 158.503906 310.886719 166.792969 Z M 310.886719 166.792969 "
                  style="fill:#FFFFFF" data-original="#FFFFFF" class=""/>
            <path d="M 310.59375 268.511719 C 310.496094 268.03125 310.375 267.550781 310.234375 267.082031 C 310.09375 266.609375 309.925781 266.152344 309.734375 265.699219 C 309.554688 265.25 309.34375 264.800781 309.113281 264.371094 C 308.886719 263.941406 308.625 263.519531 308.363281 263.109375 C 308.085938 262.699219 307.796875 262.300781 307.484375 261.929688 C 307.175781 261.539062 306.84375 261.179688 306.496094 260.828125 C 303.355469 257.6875 298.855469 256.058594 294.414062 256.511719 C 293.925781 256.558594 293.4375 256.628906 292.957031 256.730469 C 292.476562 256.832031 291.996094 256.953125 291.535156 257.089844 C 291.066406 257.230469 290.605469 257.402344 290.15625 257.589844 C 289.695312 257.769531 289.257812 257.980469 288.824219 258.210938 C 288.394531 258.4375 287.964844 258.699219 287.566406 258.96875 C 287.15625 259.242188 286.757812 259.53125 286.375 259.839844 C 285.996094 260.152344 285.625 260.480469 285.285156 260.828125 C 284.9375 261.179688 284.605469 261.539062 284.296875 261.929688 C 283.984375 262.300781 283.6875 262.699219 283.417969 263.109375 C 283.144531 263.519531 282.894531 263.941406 282.667969 264.371094 C 282.4375 264.800781 282.226562 265.25 282.035156 265.699219 C 281.855469 266.152344 281.6875 266.609375 281.546875 267.082031 C 281.394531 267.550781 281.277344 268.03125 281.1875 268.511719 C 281.085938 268.992188 281.015625 269.480469 280.964844 269.960938 C 280.917969 270.449219 280.886719 270.949219 280.886719 271.441406 C 280.886719 271.929688 280.917969 272.417969 280.964844 272.910156 C 281.015625 273.402344 281.085938 273.890625 281.1875 274.371094 C 281.277344 274.847656 281.394531 275.320312 281.546875 275.789062 C 281.6875 276.261719 281.855469 276.71875 282.035156 277.171875 C 282.226562 277.621094 282.4375 278.070312 282.667969 278.5 C 282.894531 278.929688 283.144531 279.359375 283.417969 279.761719 C 283.6875 280.171875 283.984375 280.570312 284.296875 280.949219 C 284.605469 281.328125 284.9375 281.699219 285.285156 282.039062 C 285.625 282.390625 285.996094 282.71875 286.375 283.03125 C 286.757812 283.339844 287.15625 283.640625 287.566406 283.910156 C 287.964844 284.179688 288.394531 284.429688 288.824219 284.660156 C 289.257812 284.890625 289.695312 285.097656 290.15625 285.289062 C 290.605469 285.480469 291.066406 285.640625 291.535156 285.78125 C 291.996094 285.929688 292.476562 286.050781 292.957031 286.140625 C 293.4375 286.238281 293.925781 286.308594 294.414062 286.359375 C 294.90625 286.410156 295.394531 286.4375 295.886719 286.4375 C 296.375 286.4375 296.875 286.410156 297.367188 286.359375 C 297.84375 286.308594 298.335938 286.238281 298.816406 286.140625 C 299.296875 286.046875 299.777344 285.929688 300.246094 285.78125 C 300.707031 285.640625 301.175781 285.480469 301.625 285.289062 C 302.074219 285.101562 302.523438 284.890625 302.957031 284.660156 C 303.386719 284.429688 303.804688 284.179688 304.214844 283.910156 C 304.625 283.640625 305.023438 283.339844 305.394531 283.03125 C 305.773438 282.71875 306.144531 282.390625 306.496094 282.039062 C 306.84375 281.699219 307.175781 281.328125 307.484375 280.949219 C 307.796875 280.570312 308.085938 280.171875 308.363281 279.761719 C 308.625 279.359375 308.886719 278.929688 309.113281 278.5 C 309.34375 278.070312 309.554688 277.621094 309.734375 277.171875 C 309.925781 276.71875 310.09375 276.261719 310.234375 275.789062 C 310.375 275.320312 310.496094 274.851562 310.59375 274.371094 C 310.695312 273.890625 310.765625 273.402344 310.816406 272.910156 C 310.863281 272.421875 310.886719 271.929688 310.886719 271.441406 C 310.886719 270.949219 310.863281 270.449219 310.816406 269.960938 C 310.765625 269.480469 310.695312 268.992188 310.59375 268.511719 Z M 310.59375 268.511719 "
                  style=" stroke:none;fill-rule:nonzero;fill:rgb(88.235294%,92.156863%,94.117647%);fill-opacity:1;" data-original="#E1EBF0" class=""/>
            <path d="M 281.464844 229.832031 L 310.886719 200.414062 L 310.886719 225.691406 C 310.886719 233.96875 304.175781 240.691406 295.886719 240.691406 C 289.046875 240.6875 283.265625 236.097656 281.464844 229.832031 Z M 281.464844 229.832031 "
                  style=" stroke:none;fill-rule:nonzero;fill:rgb(88.235294%,92.156863%,94.117647%);fill-opacity:1;" data-original="#E1EBF0" class=""/>
        </g>
    </g>
</svg>
