<svg xmlns="http://www.w3.org/2000/svg" width="111" height="110" viewBox="0 0 111 110"><g><g><path fill="#5cba0a" d="M83.27 38.353l-4.659-4.791a1.002 1.002 0 0 0-.741-.318.961.961 0 0 0-.741.318l-32.292 32.53L33.085 54.34a1.045 1.045 0 0 0-.74-.318c-.265 0-.53.106-.742.318l-4.711 4.71a1.055 1.055 0 0 0 0 1.51l14.822 14.822c.953.953 2.118 1.509 3.097 1.509 1.403 0 2.62-1.033 3.07-1.456h.027L83.296 39.86c.37-.45.37-1.111-.027-1.508z"/></g><g><path fill="#5cba0a" d="M110.108 55.054c0 30.412-24.642 55.054-55.054 55.054C24.642 110.108 0 85.466 0 55.054 0 24.642 24.642 0 55.054 0c30.412 0 55.054 24.642 55.054 55.054zM55.054 7.411c-12.731 0-24.695 4.95-33.694 13.949-9 9-13.949 20.963-13.949 33.694 0 12.731 4.95 24.695 13.949 33.694 9 9 20.963 13.95 33.694 13.95 12.731 0 24.695-4.95 33.694-13.95 9-8.999 13.95-20.963 13.95-33.694 0-12.731-4.95-24.695-13.95-33.694-8.999-9-20.963-13.949-33.694-13.949"/></g></g></svg>